<?xml version="1.0" standalone="no"?>
 <!DOCTYPE svg PUBLIC "-//W3C//DTD SVG 1.1//EN" 
 "http://www.w3.org/Graphics/SVG/1.1/DTD/svg11.dtd"> 
<svg
  xmlns:svg="http://www.w3.org/2000/svg"
  xmlns="http://www.w3.org/2000/svg"
  xmlns:xlink="http://www.w3.org/1999/xlink"
  version="1.1"
  width="29.700220cm" height="21.000720cm" viewBox="0 0 116930 82680">
<title>SVG Picture created as keyboard-Dwgs_User.svg date 2021/08/25 15:52:55 </title>
  <desc>Picture generated by PCBNEW </desc>
<g style="fill:#000000; fill-opacity:1;stroke:#000000; stroke-opacity:1;
stroke-linecap:round; stroke-linejoin:round;"
 transform="translate(0 0) scale(1 1)">
</g>
<g style="fill:#000000; fill-opacity:0.0; 
stroke:#000000; stroke-width:-0.000393701; stroke-opacity:1; 
stroke-linecap:round; stroke-linejoin:round;">
</g>
<g style="fill:#000000; fill-opacity:0.0; 
stroke:#000000; stroke-width:59.0551; stroke-opacity:1; 
stroke-linecap:round; stroke-linejoin:round;">
<path d="M47975 61850
L47975 54350
" />
<path d="M47975 61850
L66725 61850
" />
<path d="M66725 54350
L66725 61850
" />
<path d="M47975 54350
L66725 54350
" />
<path d="M54594 55344
L54594 56131
" />
<path d="M55381 55344
L54594 55344
" />
<path d="M54594 60855
L55381 60855
" />
<path d="M54594 60068
L54594 60855
" />
<path d="M60105 60855
L60105 60068
" />
<path d="M59318 60855
L60105 60855
" />
<path d="M60105 55344
L60105 56131
" />
<path d="M59318 55344
L60105 55344
" />
<path d="M38512 61850
L38512 54350
" />
<path d="M47887 61850
L38512 61850
" />
<path d="M47887 54350
L47887 61850
" />
<path d="M38512 54350
L47887 54350
" />
<path d="M40444 55344
L40444 56131
" />
<path d="M41231 55344
L40444 55344
" />
<path d="M40444 60855
L41231 60855
" />
<path d="M40444 60068
L40444 60855
" />
<path d="M45955 60855
L45955 60068
" />
<path d="M45168 60855
L45955 60855
" />
<path d="M45955 55344
L45955 56131
" />
<path d="M45168 55344
L45955 55344
" />
<path d="M29727 65452
L27162 58404
" />
<path d="M38537 62245
L29727 65452
" />
<path d="M35972 55197
L38537 62245
" />
<path d="M27162 58404
L35972 55197
" />
<path d="M29317 58677
L29587 59417
" />
<path d="M30057 58408
L29317 58677
" />
<path d="M31202 63857
L31942 63587
" />
<path d="M30933 63117
L31202 63857
" />
<path d="M36382 61972
L36112 61232
" />
<path d="M35642 62241
L36382 61972
" />
<path d="M34497 56792
L34766 57532
" />
<path d="M33757 57062
L34497 56792
" />
<path d="M20802 68602
L18237 61554
" />
<path d="M29612 65395
L20802 68602
" />
<path d="M27047 58347
L29612 65395
" />
<path d="M18237 61554
L27047 58347
" />
<path d="M20392 61827
L20662 62567
" />
<path d="M21132 61558
L20392 61827
" />
<path d="M22277 67007
L23017 66737
" />
<path d="M22008 66267
L22277 67007
" />
<path d="M27457 65122
L27187 64382
" />
<path d="M26717 65391
L27457 65122
" />
<path d="M25572 59942
L25841 60682
" />
<path d="M24832 60212
L25572 59942
" />
<path d="M62800 54275
L62800 46775
" />
<path d="M70300 54275
L62800 54275
" />
<path d="M70300 46775
L70300 54275
" />
<path d="M62800 46775
L70300 46775
" />
<path d="M63794 47769
L63794 48556
" />
<path d="M64581 47769
L63794 47769
" />
<path d="M63794 53280
L64581 53280
" />
<path d="M63794 52493
L63794 53280
" />
<path d="M69305 53280
L69305 52493
" />
<path d="M68518 53280
L69305 53280
" />
<path d="M69305 47769
L69305 48556
" />
<path d="M68518 47769
L69305 47769
" />
<path d="M55225 54275
L55225 46775
" />
<path d="M62725 54275
L55225 54275
" />
<path d="M62725 46775
L62725 54275
" />
<path d="M55225 46775
L62725 46775
" />
<path d="M56219 47769
L56219 48556
" />
<path d="M57006 47769
L56219 47769
" />
<path d="M56219 53280
L57006 53280
" />
<path d="M56219 52493
L56219 53280
" />
<path d="M61730 53280
L61730 52493
" />
<path d="M60943 53280
L61730 53280
" />
<path d="M61730 47769
L61730 48556
" />
<path d="M60943 47769
L61730 47769
" />
<path d="M47650 54275
L47650 46775
" />
<path d="M55150 54275
L47650 54275
" />
<path d="M55150 46775
L55150 54275
" />
<path d="M47650 46775
L55150 46775
" />
<path d="M48644 47769
L48644 48556
" />
<path d="M49431 47769
L48644 47769
" />
<path d="M48644 53280
L49431 53280
" />
<path d="M48644 52493
L48644 53280
" />
<path d="M54155 53280
L54155 52493
" />
<path d="M53368 53280
L54155 53280
" />
<path d="M54155 47769
L54155 48556
" />
<path d="M53368 47769
L54155 47769
" />
<path d="M40075 54275
L40075 46775
" />
<path d="M47575 54275
L40075 54275
" />
<path d="M47575 46775
L47575 54275
" />
<path d="M40075 46775
L47575 46775
" />
<path d="M41069 47769
L41069 48556
" />
<path d="M41856 47769
L41069 47769
" />
<path d="M41069 53280
L41856 53280
" />
<path d="M41069 52493
L41069 53280
" />
<path d="M46580 53280
L46580 52493
" />
<path d="M45793 53280
L46580 53280
" />
<path d="M46580 47769
L46580 48556
" />
<path d="M45793 47769
L46580 47769
" />
<path d="M32408 56431
L29843 49383
" />
<path d="M39456 53866
L32408 56431
" />
<path d="M36891 46818
L39456 53866
" />
<path d="M29843 49383
L36891 46818
" />
<path d="M31117 49977
L31387 50717
" />
<path d="M31857 49708
L31117 49977
" />
<path d="M33002 55157
L33742 54887
" />
<path d="M32733 54417
L33002 55157
" />
<path d="M38182 53272
L37912 52532
" />
<path d="M37442 53541
L38182 53272
" />
<path d="M36297 48092
L36566 48832
" />
<path d="M35557 48362
L36297 48092
" />
<path d="M16403 62134
L13838 55086
" />
<path d="M16403 62134
L32261 56363
" />
<path d="M29696 49315
L32261 56363
" />
<path d="M13838 55086
L29696 49315
" />
<path d="M19517 54077
L19787 54817
" />
<path d="M20257 53808
L19517 54077
" />
<path d="M21402 59257
L22142 58987
" />
<path d="M21133 58517
L21402 59257
" />
<path d="M26582 57372
L26312 56632
" />
<path d="M25842 57641
L26582 57372
" />
<path d="M24697 52192
L24966 52932
" />
<path d="M23957 52462
L24697 52192
" />
<path d="M59075 46675
L59075 39175
" />
<path d="M66575 46675
L59075 46675
" />
<path d="M66575 39175
L66575 46675
" />
<path d="M59075 39175
L66575 39175
" />
<path d="M60069 40169
L60069 40956
" />
<path d="M60856 40169
L60069 40169
" />
<path d="M60069 45680
L60856 45680
" />
<path d="M60069 44893
L60069 45680
" />
<path d="M65580 45680
L65580 44893
" />
<path d="M64793 45680
L65580 45680
" />
<path d="M65580 40169
L65580 40956
" />
<path d="M64793 40169
L65580 40169
" />
<path d="M51500 46675
L51500 39175
" />
<path d="M59000 46675
L51500 46675
" />
<path d="M59000 39175
L59000 46675
" />
<path d="M51500 39175
L59000 39175
" />
<path d="M52494 40169
L52494 40956
" />
<path d="M53281 40169
L52494 40169
" />
<path d="M52494 45680
L53281 45680
" />
<path d="M52494 44893
L52494 45680
" />
<path d="M58005 45680
L58005 44893
" />
<path d="M57218 45680
L58005 45680
" />
<path d="M58005 40169
L58005 40956
" />
<path d="M57218 40169
L58005 40169
" />
<path d="M43925 46675
L43925 39175
" />
<path d="M51425 46675
L43925 46675
" />
<path d="M51425 39175
L51425 46675
" />
<path d="M43925 39175
L51425 39175
" />
<path d="M44919 40169
L44919 40956
" />
<path d="M45706 40169
L44919 40169
" />
<path d="M44919 45680
L45706 45680
" />
<path d="M44919 44893
L44919 45680
" />
<path d="M50430 45680
L50430 44893
" />
<path d="M49643 45680
L50430 45680
" />
<path d="M50430 40169
L50430 40956
" />
<path d="M49643 40169
L50430 40169
" />
<path d="M36350 46700
L36350 39200
" />
<path d="M43850 46700
L36350 46700
" />
<path d="M43850 39200
L43850 46700
" />
<path d="M36350 39200
L43850 39200
" />
<path d="M37344 40194
L37344 40981
" />
<path d="M38131 40194
L37344 40194
" />
<path d="M37344 45705
L38131 45705
" />
<path d="M37344 44918
L37344 45705
" />
<path d="M42855 45705
L42855 44918
" />
<path d="M42068 45705
L42855 45705
" />
<path d="M42855 40194
L42855 40981
" />
<path d="M42068 40194
L42855 40194
" />
<path d="M29158 49281
L26593 42233
" />
<path d="M36206 46716
L29158 49281
" />
<path d="M33641 39668
L36206 46716
" />
<path d="M26593 42233
L33641 39668
" />
<path d="M27867 42827
L28137 43567
" />
<path d="M28607 42558
L27867 42827
" />
<path d="M29752 48007
L30492 47737
" />
<path d="M29483 47267
L29752 48007
" />
<path d="M34932 46122
L34662 45382
" />
<path d="M34192 46391
L34932 46122
" />
<path d="M33047 40942
L33316 41682
" />
<path d="M32307 41212
L33047 40942
" />
<path d="M16740 53793
L14175 46745
" />
<path d="M29074 49304
L16740 53793
" />
<path d="M26509 42256
L29074 49304
" />
<path d="M14175 46745
L26509 42256
" />
<path d="M18092 46377
L18362 47117
" />
<path d="M18832 46108
L18092 46377
" />
<path d="M19977 51557
L20717 51287
" />
<path d="M19708 50817
L19977 51557
" />
<path d="M25157 49672
L24887 48932
" />
<path d="M24417 49941
L25157 49672
" />
<path d="M23272 44492
L23541 45232
" />
<path d="M22532 44762
L23272 44492
" />
<path d="M57200 39125
L57200 31625
" />
<path d="M64700 39125
L57200 39125
" />
<path d="M64700 31625
L64700 39125
" />
<path d="M57200 31625
L64700 31625
" />
<path d="M58194 32619
L58194 33406
" />
<path d="M58981 32619
L58194 32619
" />
<path d="M58194 38130
L58981 38130
" />
<path d="M58194 37343
L58194 38130
" />
<path d="M63705 38130
L63705 37343
" />
<path d="M62918 38130
L63705 38130
" />
<path d="M63705 32619
L63705 33406
" />
<path d="M62918 32619
L63705 32619
" />
<path d="M49625 39125
L49625 31625
" />
<path d="M57125 39125
L49625 39125
" />
<path d="M57125 31625
L57125 39125
" />
<path d="M49625 31625
L57125 31625
" />
<path d="M50619 32619
L50619 33406
" />
<path d="M51406 32619
L50619 32619
" />
<path d="M50619 38130
L51406 38130
" />
<path d="M50619 37343
L50619 38130
" />
<path d="M56130 38130
L56130 37343
" />
<path d="M55343 38130
L56130 38130
" />
<path d="M56130 32619
L56130 33406
" />
<path d="M55343 32619
L56130 32619
" />
<path d="M42050 39125
L42050 31625
" />
<path d="M49550 39125
L42050 39125
" />
<path d="M49550 31625
L49550 39125
" />
<path d="M42050 31625
L49550 31625
" />
<path d="M43044 32619
L43044 33406
" />
<path d="M43831 32619
L43044 32619
" />
<path d="M43044 38130
L43831 38130
" />
<path d="M43044 37343
L43044 38130
" />
<path d="M48555 38130
L48555 37343
" />
<path d="M47768 38130
L48555 38130
" />
<path d="M48555 32619
L48555 33406
" />
<path d="M47768 32619
L48555 32619
" />
<path d="M34475 39125
L34475 31625
" />
<path d="M41975 39125
L34475 39125
" />
<path d="M41975 31625
L41975 39125
" />
<path d="M34475 31625
L41975 31625
" />
<path d="M35469 32619
L35469 33406
" />
<path d="M36256 32619
L35469 32619
" />
<path d="M35469 38130
L36256 38130
" />
<path d="M35469 37343
L35469 38130
" />
<path d="M40980 38130
L40980 37343
" />
<path d="M40193 38130
L40980 38130
" />
<path d="M40980 32619
L40980 33406
" />
<path d="M40193 32619
L40980 32619
" />
<path d="M27083 41981
L24518 34933
" />
<path d="M34131 39416
L27083 41981
" />
<path d="M31566 32368
L34131 39416
" />
<path d="M24518 34933
L31566 32368
" />
<path d="M25792 35527
L26062 36267
" />
<path d="M26532 35258
L25792 35527
" />
<path d="M27677 40707
L28417 40437
" />
<path d="M27408 39967
L27677 40707
" />
<path d="M32857 38822
L32587 38082
" />
<path d="M32117 39091
L32857 38822
" />
<path d="M30972 33642
L31241 34382
" />
<path d="M30232 33912
L30972 33642
" />
<path d="M16446 45847
L13881 38800
" />
<path d="M27018 41999
L16446 45847
" />
<path d="M24453 34952
L27018 41999
" />
<path d="M13881 38800
L24453 34952
" />
<path d="M16917 38752
L17187 39492
" />
<path d="M17657 38483
L16917 38752
" />
<path d="M18802 43932
L19542 43662
" />
<path d="M18533 43192
L18802 43932
" />
<path d="M23982 42047
L23712 41307
" />
<path d="M23242 42316
L23982 42047
" />
<path d="M22097 36867
L22366 37607
" />
<path d="M21357 37137
L22097 36867
" />
<path d="M61050 31550
L61050 24050
" />
<path d="M68550 31550
L61050 31550
" />
<path d="M68550 24050
L68550 31550
" />
<path d="M61050 24050
L68550 24050
" />
<path d="M62044 25044
L62044 25831
" />
<path d="M62831 25044
L62044 25044
" />
<path d="M62044 30555
L62831 30555
" />
<path d="M62044 29768
L62044 30555
" />
<path d="M67555 30555
L67555 29768
" />
<path d="M66768 30555
L67555 30555
" />
<path d="M67555 25044
L67555 25831
" />
<path d="M66768 25044
L67555 25044
" />
<path d="M53450 31550
L53450 24050
" />
<path d="M60950 31550
L53450 31550
" />
<path d="M60950 24050
L60950 31550
" />
<path d="M53450 24050
L60950 24050
" />
<path d="M54444 25044
L54444 25831
" />
<path d="M55231 25044
L54444 25044
" />
<path d="M54444 30555
L55231 30555
" />
<path d="M54444 29768
L54444 30555
" />
<path d="M59955 30555
L59955 29768
" />
<path d="M59168 30555
L59955 30555
" />
<path d="M59955 25044
L59955 25831
" />
<path d="M59168 25044
L59955 25044
" />
<path d="M45875 31550
L45875 24050
" />
<path d="M53375 31550
L45875 31550
" />
<path d="M53375 24050
L53375 31550
" />
<path d="M45875 24050
L53375 24050
" />
<path d="M46869 25044
L46869 25831
" />
<path d="M47656 25044
L46869 25044
" />
<path d="M46869 30555
L47656 30555
" />
<path d="M46869 29768
L46869 30555
" />
<path d="M52380 30555
L52380 29768
" />
<path d="M51593 30555
L52380 30555
" />
<path d="M52380 25044
L52380 25831
" />
<path d="M51593 25044
L52380 25044
" />
<path d="M38275 31550
L38275 24050
" />
<path d="M45775 31550
L38275 31550
" />
<path d="M45775 24050
L45775 31550
" />
<path d="M38275 24050
L45775 24050
" />
<path d="M39269 25044
L39269 25831
" />
<path d="M40056 25044
L39269 25044
" />
<path d="M39269 30555
L40056 30555
" />
<path d="M39269 29768
L39269 30555
" />
<path d="M44780 30555
L44780 29768
" />
<path d="M43993 30555
L44780 30555
" />
<path d="M44780 25044
L44780 25831
" />
<path d="M43993 25044
L44780 25044
" />
<path d="M29108 33206
L26543 26158
" />
<path d="M36156 30641
L29108 33206
" />
<path d="M33591 23593
L36156 30641
" />
<path d="M26543 26158
L33591 23593
" />
<path d="M27817 26752
L28087 27492
" />
<path d="M28557 26483
L27817 26752
" />
<path d="M29702 31932
L30442 31662
" />
<path d="M29433 31192
L29702 31932
" />
<path d="M34882 30047
L34612 29307
" />
<path d="M34142 30316
L34882 30047
" />
<path d="M32997 24867
L33266 25607
" />
<path d="M32257 25137
L32997 24867
" />
<path d="M21983 35781
L19418 28733
" />
<path d="M29031 33216
L21983 35781
" />
<path d="M26466 26168
L29031 33216
" />
<path d="M19418 28733
L26466 26168
" />
<path d="M20692 29327
L20962 30067
" />
<path d="M21432 29058
L20692 29327
" />
<path d="M22577 34507
L23317 34237
" />
<path d="M22308 33767
L22577 34507
" />
<path d="M27757 32622
L27487 31882
" />
<path d="M27017 32891
L27757 32622
" />
<path d="M25872 27442
L26141 28182
" />
<path d="M25132 27712
L25872 27442
" />
<path d="M14858 38381
L12293 31333
" />
<path d="M21906 35816
L14858 38381
" />
<path d="M19341 28768
L21906 35816
" />
<path d="M12293 31333
L19341 28768
" />
<path d="M13567 31927
L13837 32667
" />
<path d="M14307 31658
L13567 31927
" />
<path d="M15452 37107
L16192 36837
" />
<path d="M15183 36367
L15452 37107
" />
<path d="M20632 35222
L20362 34482
" />
<path d="M19892 35491
L20632 35222
" />
<path d="M18747 30042
L19016 30782
" />
<path d="M18007 30312
L18747 30042
" />
<g >
</g>
<g >
</g>
<g >
</g>
<g >
</g>
<g >
</g>
<g >
</g>
<g >
</g>
<g >
</g>
<g >
</g>
<g >
</g>
<g >
</g>
<g >
</g>
<g >
</g>
<g >
</g>
<g >
</g>
<g >
</g>
<g >
</g>
<g >
</g>
<g >
</g>
<g >
</g>
<g >
</g>
<g >
</g>
<g >
</g>
<g >
</g>
<g >
</g>
<g >
</g>
<g >
</g>
<g >
</g>
<g >
</g>
<g >
</g>
<g >
</g>
<g >
</g>
<g >
</g>
<g >
</g>
<g >
</g>
<g >
</g>
<g >
</g>
<g >
</g>
<g >
</g>
<g >
</g>
<g >
</g>
<g >
</g>
<g >
</g>
<g >
</g>
<g >
</g>
<g >
</g>
<g >
</g>
<g >
</g>
<g >
</g>
<g >
</g>
<g >
</g>
<g >
</g>
<g >
</g>
<g >
</g>
<g >
</g>
<g >
</g>
<g >
</g>
<g >
</g>
<g >
</g>
<g >
</g>
<g >
</g>
<g >
</g>
<g >
</g>
</g>
<g style="fill:#000000; fill-opacity:0.0; 
stroke:#000000; stroke-width:59.0551; stroke-opacity:1; 
stroke-linecap:round; stroke-linejoin:round;">
<text x="57350" y="59546.9"
textLength="1651.57" font-size="524.934" lengthAdjust="spacingAndGlyphs"
text-anchor="middle" opacity="0">MX29</text>
<path d="M56656 59528
L56656 59134
L56787 59415
L56918 59134
L56918 59528
" />
<path d="M57068 59134
L57331 59528
" />
<path d="M57331 59134
L57068 59528
" />
<path d="M57462 59171
L57481 59153
L57518 59134
L57612 59134
L57649 59153
L57668 59171
L57687 59209
L57687 59246
L57668 59303
L57443 59528
L57687 59528
" />
<path d="M57874 59528
L57949 59528
L57987 59509
L58006 59490
L58043 59434
L58062 59359
L58062 59209
L58043 59171
L58024 59153
L57987 59134
L57912 59134
L57874 59153
L57856 59171
L57837 59209
L57837 59303
L57856 59340
L57874 59359
L57912 59378
L57987 59378
L58024 59359
L58043 59340
L58062 59303
" />
<text x="57350" y="55171.9"
textLength="3226.38" font-size="524.934" lengthAdjust="spacingAndGlyphs"
text-anchor="middle" opacity="0">MX-NoLED</text>
<path d="M55868 55153
L55868 54759
L56000 55040
L56131 54759
L56131 55153
" />
<path d="M56281 54759
L56543 55153
" />
<path d="M56543 54759
L56281 55153
" />
<path d="M56693 55003
L56993 55003
" />
<path d="M57181 55153
L57181 54759
L57406 55153
L57406 54759
" />
<path d="M57649 55153
L57612 55134
L57593 55115
L57574 55078
L57574 54965
L57593 54928
L57612 54909
L57649 54890
L57706 54890
L57743 54909
L57762 54928
L57781 54965
L57781 55078
L57762 55115
L57743 55134
L57706 55153
L57649 55153
" />
<path d="M58137 55153
L57949 55153
L57949 54759
" />
<path d="M58268 54946
L58399 54946
" />
<path d="M58456 55153
L58268 55153
L58268 54759
L58456 54759
" />
<path d="M58624 55153
L58624 54759
L58718 54759
L58774 54778
L58812 54815
L58831 54853
L58849 54928
L58849 54984
L58831 55059
L58812 55096
L58774 55134
L58718 55153
L58624 55153
" />
<text x="43200" y="59546.9"
textLength="1651.57" font-size="524.934" lengthAdjust="spacingAndGlyphs"
text-anchor="middle" opacity="0">MX28</text>
<path d="M42506 59528
L42506 59134
L42637 59415
L42768 59134
L42768 59528
" />
<path d="M42918 59134
L43181 59528
" />
<path d="M43181 59134
L42918 59528
" />
<path d="M43312 59171
L43331 59153
L43368 59134
L43462 59134
L43499 59153
L43518 59171
L43537 59209
L43537 59246
L43518 59303
L43293 59528
L43537 59528
" />
<path d="M43762 59303
L43724 59284
L43706 59265
L43687 59228
L43687 59209
L43706 59171
L43724 59153
L43762 59134
L43837 59134
L43874 59153
L43893 59171
L43912 59209
L43912 59228
L43893 59265
L43874 59284
L43837 59303
L43762 59303
L43724 59321
L43706 59340
L43687 59378
L43687 59453
L43706 59490
L43724 59509
L43762 59528
L43837 59528
L43874 59509
L43893 59490
L43912 59453
L43912 59378
L43893 59340
L43874 59321
L43837 59303
" />
<text x="43200" y="55171.9"
textLength="3226.38" font-size="524.934" lengthAdjust="spacingAndGlyphs"
text-anchor="middle" opacity="0">MX-NoLED</text>
<path d="M41718 55153
L41718 54759
L41850 55040
L41981 54759
L41981 55153
" />
<path d="M42131 54759
L42393 55153
" />
<path d="M42393 54759
L42131 55153
" />
<path d="M42543 55003
L42843 55003
" />
<path d="M43031 55153
L43031 54759
L43256 55153
L43256 54759
" />
<path d="M43499 55153
L43462 55134
L43443 55115
L43424 55078
L43424 54965
L43443 54928
L43462 54909
L43499 54890
L43556 54890
L43593 54909
L43612 54928
L43631 54965
L43631 55078
L43612 55115
L43593 55134
L43556 55153
L43499 55153
" />
<path d="M43987 55153
L43799 55153
L43799 54759
" />
<path d="M44118 54946
L44249 54946
" />
<path d="M44306 55153
L44118 55153
L44118 54759
L44306 54759
" />
<path d="M44474 55153
L44474 54759
L44568 54759
L44624 54778
L44662 54815
L44681 54853
L44699 54928
L44699 54984
L44681 55059
L44662 55096
L44624 55134
L44568 55153
L44474 55153
" />
<g transform="rotate(-20 33277.5 61499.6)">
<text x="33277.5" y="61696.5"
textLength="1651.57" font-size="524.934" lengthAdjust="spacingAndGlyphs"
text-anchor="middle" opacity="0">MX27</text>
</g>
<path d="M32686 61904
L32551 61534
L32771 61753
L32798 61444
L32933 61814
" />
<path d="M32939 61393
L33320 61673
" />
<path d="M33186 61303
L33074 61763
" />
<path d="M33322 61293
L33333 61269
L33362 61239
L33450 61207
L33492 61212
L33516 61223
L33546 61252
L33559 61287
L33560 61346
L33426 61634
L33655 61551
" />
<path d="M33644 61136
L33890 61046
L33866 61474
" />
<g transform="rotate(-20 31781.2 57388.5)">
<text x="31781.2" y="57585.3"
textLength="3226.38" font-size="524.934" lengthAdjust="spacingAndGlyphs"
text-anchor="middle" opacity="0">MX-NoLED</text>
</g>
<path d="M30450 58062
L30315 57692
L30535 57911
L30562 57602
L30696 57972
" />
<path d="M30703 57551
L31084 57831
" />
<path d="M30949 57461
L30837 57921
" />
<path d="M31174 57639
L31456 57536
" />
<path d="M31683 57613
L31548 57243
L31894 57536
L31760 57166
" />
<path d="M32123 57453
L32082 57448
L32058 57437
L32027 57408
L31989 57302
L31994 57261
L32005 57237
L32034 57206
L32087 57187
L32128 57192
L32152 57203
L32183 57232
L32221 57337
L32216 57379
L32205 57403
L32176 57433
L32123 57453
" />
<path d="M32582 57286
L32405 57350
L32271 56980
" />
<path d="M32634 57047
L32758 57002
" />
<path d="M32881 57177
L32705 57241
L32570 56871
L32746 56807
" />
<path d="M33040 57119
L32905 56749
L32993 56717
L33052 56716
L33100 56738
L33131 56767
L33174 56831
L33193 56884
L33201 56961
L33196 57002
L33174 57050
L33128 57087
L33040 57119
" />
<g transform="rotate(-20 24352.5 64649.6)">
<text x="24352.5" y="64846.5"
textLength="1651.57" font-size="524.934" lengthAdjust="spacingAndGlyphs"
text-anchor="middle" opacity="0">MX26</text>
</g>
<path d="M23761 65054
L23626 64684
L23846 64903
L23873 64594
L24008 64964
" />
<path d="M24014 64543
L24395 64823
" />
<path d="M24261 64453
L24149 64913
" />
<path d="M24397 64443
L24408 64419
L24437 64389
L24525 64357
L24567 64362
L24591 64373
L24621 64402
L24634 64437
L24635 64496
L24501 64784
L24730 64701
" />
<path d="M24912 64216
L24842 64241
L24813 64272
L24802 64296
L24786 64361
L24794 64438
L24845 64579
L24876 64608
L24900 64619
L24941 64624
L25012 64598
L25041 64568
L25052 64544
L25057 64502
L25025 64414
L24994 64385
L24970 64374
L24929 64369
L24858 64395
L24829 64426
L24818 64450
L24813 64491
" />
<g transform="rotate(-20 22856.2 60538.5)">
<text x="22856.2" y="60735.3"
textLength="3226.38" font-size="524.934" lengthAdjust="spacingAndGlyphs"
text-anchor="middle" opacity="0">MX-NoLED</text>
</g>
<path d="M21525 61212
L21390 60842
L21610 61061
L21637 60752
L21771 61122
" />
<path d="M21778 60701
L22159 60981
" />
<path d="M22024 60611
L21912 61071
" />
<path d="M22249 60789
L22531 60686
" />
<path d="M22758 60763
L22623 60393
L22969 60686
L22835 60316
" />
<path d="M23198 60603
L23157 60598
L23133 60587
L23102 60558
L23064 60452
L23069 60411
L23080 60387
L23109 60356
L23162 60337
L23203 60342
L23227 60353
L23258 60382
L23296 60487
L23291 60529
L23280 60553
L23251 60583
L23198 60603
" />
<path d="M23657 60436
L23480 60500
L23346 60130
" />
<path d="M23709 60197
L23833 60152
" />
<path d="M23956 60327
L23780 60391
L23645 60021
L23821 59957
" />
<path d="M24115 60269
L23980 59899
L24068 59867
L24127 59866
L24175 59888
L24206 59917
L24249 59981
L24268 60034
L24276 60111
L24271 60152
L24249 60200
L24203 60237
L24115 60269
" />
<text x="66550" y="51971.9"
textLength="1651.57" font-size="524.934" lengthAdjust="spacingAndGlyphs"
text-anchor="middle" opacity="0">MX25</text>
<path d="M65856 51953
L65856 51559
L65987 51840
L66118 51559
L66118 51953
" />
<path d="M66268 51559
L66531 51953
" />
<path d="M66531 51559
L66268 51953
" />
<path d="M66662 51596
L66681 51578
L66718 51559
L66812 51559
L66849 51578
L66868 51596
L66887 51634
L66887 51671
L66868 51728
L66643 51953
L66887 51953
" />
<path d="M67243 51559
L67056 51559
L67037 51746
L67056 51728
L67093 51709
L67187 51709
L67224 51728
L67243 51746
L67262 51784
L67262 51878
L67243 51915
L67224 51934
L67187 51953
L67093 51953
L67056 51934
L67037 51915
" />
<text x="66550" y="47596.9"
textLength="3226.38" font-size="524.934" lengthAdjust="spacingAndGlyphs"
text-anchor="middle" opacity="0">MX-NoLED</text>
<path d="M65068 47578
L65068 47184
L65200 47465
L65331 47184
L65331 47578
" />
<path d="M65481 47184
L65743 47578
" />
<path d="M65743 47184
L65481 47578
" />
<path d="M65893 47428
L66193 47428
" />
<path d="M66381 47578
L66381 47184
L66606 47578
L66606 47184
" />
<path d="M66849 47578
L66812 47559
L66793 47540
L66774 47503
L66774 47390
L66793 47353
L66812 47334
L66849 47315
L66906 47315
L66943 47334
L66962 47353
L66981 47390
L66981 47503
L66962 47540
L66943 47559
L66906 47578
L66849 47578
" />
<path d="M67337 47578
L67149 47578
L67149 47184
" />
<path d="M67468 47371
L67599 47371
" />
<path d="M67656 47578
L67468 47578
L67468 47184
L67656 47184
" />
<path d="M67824 47578
L67824 47184
L67918 47184
L67974 47203
L68012 47240
L68031 47278
L68049 47353
L68049 47409
L68031 47484
L68012 47521
L67974 47559
L67918 47578
L67824 47578
" />
<text x="58975" y="51971.9"
textLength="1651.57" font-size="524.934" lengthAdjust="spacingAndGlyphs"
text-anchor="middle" opacity="0">MX24</text>
<path d="M58281 51953
L58281 51559
L58412 51840
L58543 51559
L58543 51953
" />
<path d="M58693 51559
L58956 51953
" />
<path d="M58956 51559
L58693 51953
" />
<path d="M59087 51596
L59106 51578
L59143 51559
L59237 51559
L59274 51578
L59293 51596
L59312 51634
L59312 51671
L59293 51728
L59068 51953
L59312 51953
" />
<path d="M59649 51690
L59649 51953
" />
<path d="M59556 51540
L59462 51821
L59706 51821
" />
<text x="58975" y="47596.9"
textLength="3226.38" font-size="524.934" lengthAdjust="spacingAndGlyphs"
text-anchor="middle" opacity="0">MX-NoLED</text>
<path d="M57493 47578
L57493 47184
L57625 47465
L57756 47184
L57756 47578
" />
<path d="M57906 47184
L58168 47578
" />
<path d="M58168 47184
L57906 47578
" />
<path d="M58318 47428
L58618 47428
" />
<path d="M58806 47578
L58806 47184
L59031 47578
L59031 47184
" />
<path d="M59274 47578
L59237 47559
L59218 47540
L59199 47503
L59199 47390
L59218 47353
L59237 47334
L59274 47315
L59331 47315
L59368 47334
L59387 47353
L59406 47390
L59406 47503
L59387 47540
L59368 47559
L59331 47578
L59274 47578
" />
<path d="M59762 47578
L59574 47578
L59574 47184
" />
<path d="M59893 47371
L60024 47371
" />
<path d="M60081 47578
L59893 47578
L59893 47184
L60081 47184
" />
<path d="M60249 47578
L60249 47184
L60343 47184
L60399 47203
L60437 47240
L60456 47278
L60474 47353
L60474 47409
L60456 47484
L60437 47521
L60399 47559
L60343 47578
L60249 47578
" />
<text x="51400" y="51971.9"
textLength="1651.57" font-size="524.934" lengthAdjust="spacingAndGlyphs"
text-anchor="middle" opacity="0">MX23</text>
<path d="M50706 51953
L50706 51559
L50837 51840
L50968 51559
L50968 51953
" />
<path d="M51118 51559
L51381 51953
" />
<path d="M51381 51559
L51118 51953
" />
<path d="M51512 51596
L51531 51578
L51568 51559
L51662 51559
L51699 51578
L51718 51596
L51737 51634
L51737 51671
L51718 51728
L51493 51953
L51737 51953
" />
<path d="M51868 51559
L52112 51559
L51981 51709
L52037 51709
L52074 51728
L52093 51746
L52112 51784
L52112 51878
L52093 51915
L52074 51934
L52037 51953
L51924 51953
L51887 51934
L51868 51915
" />
<text x="51400" y="47596.9"
textLength="3226.38" font-size="524.934" lengthAdjust="spacingAndGlyphs"
text-anchor="middle" opacity="0">MX-NoLED</text>
<path d="M49918 47578
L49918 47184
L50050 47465
L50181 47184
L50181 47578
" />
<path d="M50331 47184
L50593 47578
" />
<path d="M50593 47184
L50331 47578
" />
<path d="M50743 47428
L51043 47428
" />
<path d="M51231 47578
L51231 47184
L51456 47578
L51456 47184
" />
<path d="M51699 47578
L51662 47559
L51643 47540
L51624 47503
L51624 47390
L51643 47353
L51662 47334
L51699 47315
L51756 47315
L51793 47334
L51812 47353
L51831 47390
L51831 47503
L51812 47540
L51793 47559
L51756 47578
L51699 47578
" />
<path d="M52187 47578
L51999 47578
L51999 47184
" />
<path d="M52318 47371
L52449 47371
" />
<path d="M52506 47578
L52318 47578
L52318 47184
L52506 47184
" />
<path d="M52674 47578
L52674 47184
L52768 47184
L52824 47203
L52862 47240
L52881 47278
L52899 47353
L52899 47409
L52881 47484
L52862 47521
L52824 47559
L52768 47578
L52674 47578
" />
<text x="43825" y="51971.9"
textLength="1651.57" font-size="524.934" lengthAdjust="spacingAndGlyphs"
text-anchor="middle" opacity="0">MX22</text>
<path d="M43131 51953
L43131 51559
L43262 51840
L43393 51559
L43393 51953
" />
<path d="M43543 51559
L43806 51953
" />
<path d="M43806 51559
L43543 51953
" />
<path d="M43937 51596
L43956 51578
L43993 51559
L44087 51559
L44124 51578
L44143 51596
L44162 51634
L44162 51671
L44143 51728
L43918 51953
L44162 51953
" />
<path d="M44312 51596
L44331 51578
L44368 51559
L44462 51559
L44499 51578
L44518 51596
L44537 51634
L44537 51671
L44518 51728
L44293 51953
L44537 51953
" />
<text x="43825" y="47596.9"
textLength="3226.38" font-size="524.934" lengthAdjust="spacingAndGlyphs"
text-anchor="middle" opacity="0">MX-NoLED</text>
<path d="M42343 47578
L42343 47184
L42475 47465
L42606 47184
L42606 47578
" />
<path d="M42756 47184
L43018 47578
" />
<path d="M43018 47184
L42756 47578
" />
<path d="M43168 47428
L43468 47428
" />
<path d="M43656 47578
L43656 47184
L43881 47578
L43881 47184
" />
<path d="M44124 47578
L44087 47559
L44068 47540
L44049 47503
L44049 47390
L44068 47353
L44087 47334
L44124 47315
L44181 47315
L44218 47334
L44237 47353
L44256 47390
L44256 47503
L44237 47540
L44218 47559
L44181 47578
L44124 47578
" />
<path d="M44612 47578
L44424 47578
L44424 47184
" />
<path d="M44743 47371
L44874 47371
" />
<path d="M44931 47578
L44743 47578
L44743 47184
L44931 47184
" />
<path d="M45099 47578
L45099 47184
L45193 47184
L45249 47203
L45287 47240
L45306 47278
L45324 47353
L45324 47409
L45306 47484
L45287 47521
L45249 47559
L45193 47578
L45099 47578
" />
<g transform="rotate(-20 35077.5 52799.6)">
<text x="35077.5" y="52996.5"
textLength="1651.57" font-size="524.934" lengthAdjust="spacingAndGlyphs"
text-anchor="middle" opacity="0">MX21</text>
</g>
<path d="M34486 53204
L34351 52834
L34571 53053
L34598 52744
L34733 53114
" />
<path d="M34739 52693
L35120 52973
" />
<path d="M34986 52603
L34874 53063
" />
<path d="M35122 52593
L35133 52569
L35162 52539
L35250 52507
L35292 52512
L35316 52523
L35346 52552
L35359 52587
L35360 52646
L35226 52934
L35455 52851
" />
<path d="M35807 52723
L35596 52800
" />
<path d="M35702 52761
L35567 52391
L35551 52457
L35529 52505
L35500 52536
" />
<g transform="rotate(-20 33581.2 48688.5)">
<text x="33581.2" y="48885.3"
textLength="3226.38" font-size="524.934" lengthAdjust="spacingAndGlyphs"
text-anchor="middle" opacity="0">MX-NoLED</text>
</g>
<path d="M32250 49362
L32115 48992
L32335 49211
L32362 48902
L32496 49272
" />
<path d="M32503 48851
L32884 49131
" />
<path d="M32749 48761
L32637 49221
" />
<path d="M32974 48939
L33256 48836
" />
<path d="M33483 48913
L33348 48543
L33694 48836
L33560 48466
" />
<path d="M33923 48753
L33882 48748
L33858 48737
L33827 48708
L33789 48602
L33794 48561
L33805 48537
L33834 48506
L33887 48487
L33928 48492
L33952 48503
L33983 48532
L34021 48637
L34016 48679
L34005 48703
L33976 48733
L33923 48753
" />
<path d="M34382 48586
L34205 48650
L34071 48280
" />
<path d="M34434 48347
L34558 48302
" />
<path d="M34681 48477
L34505 48541
L34370 48171
L34546 48107
" />
<path d="M34840 48419
L34705 48049
L34793 48017
L34852 48016
L34900 48038
L34931 48067
L34974 48131
L34993 48184
L35001 48261
L34996 48302
L34974 48350
L34928 48387
L34840 48419
" />
<g transform="rotate(-20 23477.5 56899.6)">
<text x="23477.5" y="57096.5"
textLength="1651.57" font-size="524.934" lengthAdjust="spacingAndGlyphs"
text-anchor="middle" opacity="0">MX20</text>
</g>
<path d="M22886 57304
L22751 56934
L22971 57153
L22998 56844
L23133 57214
" />
<path d="M23139 56793
L23520 57073
" />
<path d="M23386 56703
L23274 57163
" />
<path d="M23522 56693
L23533 56669
L23562 56639
L23650 56607
L23692 56612
L23716 56623
L23746 56652
L23759 56687
L23760 56746
L23626 57034
L23855 56951
" />
<path d="M23949 56498
L23985 56485
L24026 56490
L24050 56501
L24081 56530
L24124 56594
L24156 56682
L24164 56759
L24159 56800
L24148 56824
L24119 56855
L24084 56868
L24042 56863
L24018 56852
L23988 56823
L23945 56759
L23913 56671
L23905 56594
L23909 56552
L23921 56528
L23949 56498
" />
<g transform="rotate(-20 21981.2 52788.5)">
<text x="21981.2" y="52985.3"
textLength="3226.38" font-size="524.934" lengthAdjust="spacingAndGlyphs"
text-anchor="middle" opacity="0">MX-NoLED</text>
</g>
<path d="M20650 53462
L20515 53092
L20735 53311
L20762 53002
L20896 53372
" />
<path d="M20903 52951
L21284 53231
" />
<path d="M21149 52861
L21037 53321
" />
<path d="M21374 53039
L21656 52936
" />
<path d="M21883 53013
L21748 52643
L22094 52936
L21960 52566
" />
<path d="M22323 52853
L22282 52848
L22258 52837
L22227 52808
L22189 52702
L22194 52661
L22205 52637
L22234 52606
L22287 52587
L22328 52592
L22352 52603
L22383 52632
L22421 52737
L22416 52779
L22405 52803
L22376 52833
L22323 52853
" />
<path d="M22782 52686
L22605 52750
L22471 52380
" />
<path d="M22834 52447
L22958 52402
" />
<path d="M23081 52577
L22905 52641
L22770 52271
L22946 52207
" />
<path d="M23240 52519
L23105 52149
L23193 52117
L23252 52116
L23300 52138
L23331 52167
L23374 52231
L23393 52284
L23401 52361
L23396 52402
L23374 52450
L23328 52487
L23240 52519
" />
<text x="62825" y="44371.9"
textLength="1651.57" font-size="524.934" lengthAdjust="spacingAndGlyphs"
text-anchor="middle" opacity="0">MX19</text>
<path d="M62131 44353
L62131 43959
L62262 44240
L62393 43959
L62393 44353
" />
<path d="M62543 43959
L62806 44353
" />
<path d="M62806 43959
L62543 44353
" />
<path d="M63162 44353
L62937 44353
" />
<path d="M63049 44353
L63049 43959
L63012 44015
L62974 44053
L62937 44071
" />
<path d="M63349 44353
L63424 44353
L63462 44334
L63481 44315
L63518 44259
L63537 44184
L63537 44034
L63518 43996
L63499 43978
L63462 43959
L63387 43959
L63349 43978
L63331 43996
L63312 44034
L63312 44128
L63331 44165
L63349 44184
L63387 44203
L63462 44203
L63499 44184
L63518 44165
L63537 44128
" />
<text x="62825" y="39996.9"
textLength="3226.38" font-size="524.934" lengthAdjust="spacingAndGlyphs"
text-anchor="middle" opacity="0">MX-NoLED</text>
<path d="M61343 39978
L61343 39584
L61475 39865
L61606 39584
L61606 39978
" />
<path d="M61756 39584
L62018 39978
" />
<path d="M62018 39584
L61756 39978
" />
<path d="M62168 39828
L62468 39828
" />
<path d="M62656 39978
L62656 39584
L62881 39978
L62881 39584
" />
<path d="M63124 39978
L63087 39959
L63068 39940
L63049 39903
L63049 39790
L63068 39753
L63087 39734
L63124 39715
L63181 39715
L63218 39734
L63237 39753
L63256 39790
L63256 39903
L63237 39940
L63218 39959
L63181 39978
L63124 39978
" />
<path d="M63612 39978
L63424 39978
L63424 39584
" />
<path d="M63743 39771
L63874 39771
" />
<path d="M63931 39978
L63743 39978
L63743 39584
L63931 39584
" />
<path d="M64099 39978
L64099 39584
L64193 39584
L64249 39603
L64287 39640
L64306 39678
L64324 39753
L64324 39809
L64306 39884
L64287 39921
L64249 39959
L64193 39978
L64099 39978
" />
<text x="55250" y="44371.9"
textLength="1651.57" font-size="524.934" lengthAdjust="spacingAndGlyphs"
text-anchor="middle" opacity="0">MX18</text>
<path d="M54556 44353
L54556 43959
L54687 44240
L54818 43959
L54818 44353
" />
<path d="M54968 43959
L55231 44353
" />
<path d="M55231 43959
L54968 44353
" />
<path d="M55587 44353
L55362 44353
" />
<path d="M55474 44353
L55474 43959
L55437 44015
L55399 44053
L55362 44071
" />
<path d="M55812 44128
L55774 44109
L55756 44090
L55737 44053
L55737 44034
L55756 43996
L55774 43978
L55812 43959
L55887 43959
L55924 43978
L55943 43996
L55962 44034
L55962 44053
L55943 44090
L55924 44109
L55887 44128
L55812 44128
L55774 44146
L55756 44165
L55737 44203
L55737 44278
L55756 44315
L55774 44334
L55812 44353
L55887 44353
L55924 44334
L55943 44315
L55962 44278
L55962 44203
L55943 44165
L55924 44146
L55887 44128
" />
<text x="55250" y="39996.9"
textLength="3226.38" font-size="524.934" lengthAdjust="spacingAndGlyphs"
text-anchor="middle" opacity="0">MX-NoLED</text>
<path d="M53768 39978
L53768 39584
L53900 39865
L54031 39584
L54031 39978
" />
<path d="M54181 39584
L54443 39978
" />
<path d="M54443 39584
L54181 39978
" />
<path d="M54593 39828
L54893 39828
" />
<path d="M55081 39978
L55081 39584
L55306 39978
L55306 39584
" />
<path d="M55549 39978
L55512 39959
L55493 39940
L55474 39903
L55474 39790
L55493 39753
L55512 39734
L55549 39715
L55606 39715
L55643 39734
L55662 39753
L55681 39790
L55681 39903
L55662 39940
L55643 39959
L55606 39978
L55549 39978
" />
<path d="M56037 39978
L55849 39978
L55849 39584
" />
<path d="M56168 39771
L56299 39771
" />
<path d="M56356 39978
L56168 39978
L56168 39584
L56356 39584
" />
<path d="M56524 39978
L56524 39584
L56618 39584
L56674 39603
L56712 39640
L56731 39678
L56749 39753
L56749 39809
L56731 39884
L56712 39921
L56674 39959
L56618 39978
L56524 39978
" />
<text x="47675" y="44371.9"
textLength="1651.57" font-size="524.934" lengthAdjust="spacingAndGlyphs"
text-anchor="middle" opacity="0">MX17</text>
<path d="M46981 44353
L46981 43959
L47112 44240
L47243 43959
L47243 44353
" />
<path d="M47393 43959
L47656 44353
" />
<path d="M47656 43959
L47393 44353
" />
<path d="M48012 44353
L47787 44353
" />
<path d="M47899 44353
L47899 43959
L47862 44015
L47824 44053
L47787 44071
" />
<path d="M48143 43959
L48406 43959
L48237 44353
" />
<text x="47675" y="39996.9"
textLength="3226.38" font-size="524.934" lengthAdjust="spacingAndGlyphs"
text-anchor="middle" opacity="0">MX-NoLED</text>
<path d="M46193 39978
L46193 39584
L46325 39865
L46456 39584
L46456 39978
" />
<path d="M46606 39584
L46868 39978
" />
<path d="M46868 39584
L46606 39978
" />
<path d="M47018 39828
L47318 39828
" />
<path d="M47506 39978
L47506 39584
L47731 39978
L47731 39584
" />
<path d="M47974 39978
L47937 39959
L47918 39940
L47899 39903
L47899 39790
L47918 39753
L47937 39734
L47974 39715
L48031 39715
L48068 39734
L48087 39753
L48106 39790
L48106 39903
L48087 39940
L48068 39959
L48031 39978
L47974 39978
" />
<path d="M48462 39978
L48274 39978
L48274 39584
" />
<path d="M48593 39771
L48724 39771
" />
<path d="M48781 39978
L48593 39978
L48593 39584
L48781 39584
" />
<path d="M48949 39978
L48949 39584
L49043 39584
L49099 39603
L49137 39640
L49156 39678
L49174 39753
L49174 39809
L49156 39884
L49137 39921
L49099 39959
L49043 39978
L48949 39978
" />
<text x="40100" y="44396.9"
textLength="1651.57" font-size="524.934" lengthAdjust="spacingAndGlyphs"
text-anchor="middle" opacity="0">MX16</text>
<path d="M39406 44378
L39406 43984
L39537 44265
L39668 43984
L39668 44378
" />
<path d="M39818 43984
L40081 44378
" />
<path d="M40081 43984
L39818 44378
" />
<path d="M40437 44378
L40212 44378
" />
<path d="M40324 44378
L40324 43984
L40287 44040
L40249 44078
L40212 44096
" />
<path d="M40774 43984
L40699 43984
L40662 44003
L40643 44021
L40606 44078
L40587 44153
L40587 44303
L40606 44340
L40624 44359
L40662 44378
L40737 44378
L40774 44359
L40793 44340
L40812 44303
L40812 44209
L40793 44171
L40774 44153
L40737 44134
L40662 44134
L40624 44153
L40606 44171
L40587 44209
" />
<text x="40100" y="40021.9"
textLength="3226.38" font-size="524.934" lengthAdjust="spacingAndGlyphs"
text-anchor="middle" opacity="0">MX-NoLED</text>
<path d="M38618 40003
L38618 39609
L38750 39890
L38881 39609
L38881 40003
" />
<path d="M39031 39609
L39293 40003
" />
<path d="M39293 39609
L39031 40003
" />
<path d="M39443 39853
L39743 39853
" />
<path d="M39931 40003
L39931 39609
L40156 40003
L40156 39609
" />
<path d="M40399 40003
L40362 39984
L40343 39965
L40324 39928
L40324 39815
L40343 39778
L40362 39759
L40399 39740
L40456 39740
L40493 39759
L40512 39778
L40531 39815
L40531 39928
L40512 39965
L40493 39984
L40456 40003
L40399 40003
" />
<path d="M40887 40003
L40699 40003
L40699 39609
" />
<path d="M41018 39796
L41149 39796
" />
<path d="M41206 40003
L41018 40003
L41018 39609
L41206 39609
" />
<path d="M41374 40003
L41374 39609
L41468 39609
L41524 39628
L41562 39665
L41581 39703
L41599 39778
L41599 39834
L41581 39909
L41562 39946
L41524 39984
L41468 40003
L41374 40003
" />
<g transform="rotate(-20 31827.5 45649.6)">
<text x="31827.5" y="45846.5"
textLength="1651.57" font-size="524.934" lengthAdjust="spacingAndGlyphs"
text-anchor="middle" opacity="0">MX15</text>
</g>
<path d="M31236 46054
L31101 45684
L31321 45903
L31348 45594
L31483 45964
" />
<path d="M31489 45543
L31870 45823
" />
<path d="M31736 45453
L31624 45913
" />
<path d="M32205 45701
L31994 45778
" />
<path d="M32099 45740
L31965 45370
L31949 45435
L31926 45483
L31897 45514
" />
<path d="M32405 45209
L32229 45273
L32275 45456
L32287 45432
L32315 45402
L32404 45369
L32445 45374
L32469 45385
L32500 45414
L32532 45502
L32527 45544
L32516 45568
L32487 45598
L32399 45631
L32357 45626
L32333 45615
" />
<g transform="rotate(-20 30331.2 41538.5)">
<text x="30331.2" y="41735.3"
textLength="3226.38" font-size="524.934" lengthAdjust="spacingAndGlyphs"
text-anchor="middle" opacity="0">MX-NoLED</text>
</g>
<path d="M29000 42212
L28865 41842
L29085 42061
L29112 41752
L29246 42122
" />
<path d="M29253 41701
L29634 41981
" />
<path d="M29499 41611
L29387 42071
" />
<path d="M29724 41789
L30006 41686
" />
<path d="M30233 41763
L30098 41393
L30444 41686
L30310 41316
" />
<path d="M30673 41603
L30632 41598
L30608 41587
L30577 41558
L30539 41452
L30544 41411
L30555 41387
L30584 41356
L30637 41337
L30678 41342
L30702 41353
L30733 41382
L30771 41487
L30766 41529
L30755 41553
L30726 41583
L30673 41603
" />
<path d="M31132 41436
L30955 41500
L30821 41130
" />
<path d="M31184 41197
L31308 41152
" />
<path d="M31431 41327
L31255 41391
L31120 41021
L31296 40957
" />
<path d="M31590 41269
L31455 40899
L31543 40867
L31602 40866
L31650 40888
L31681 40917
L31724 40981
L31743 41034
L31751 41111
L31746 41152
L31724 41200
L31678 41237
L31590 41269
" />
<g transform="rotate(-20 22052.5 49199.6)">
<text x="22052.5" y="49396.5"
textLength="1651.57" font-size="524.934" lengthAdjust="spacingAndGlyphs"
text-anchor="middle" opacity="0">MX14</text>
</g>
<path d="M21461 49604
L21326 49234
L21546 49453
L21573 49144
L21708 49514
" />
<path d="M21714 49093
L22095 49373
" />
<path d="M21961 49003
L21849 49463
" />
<path d="M22430 49251
L22219 49328
" />
<path d="M22324 49290
L22190 48920
L22174 48985
L22151 49033
L22122 49064
" />
<path d="M22657 48889
L22747 49136
" />
<path d="M22518 48780
L22526 49076
L22755 48993
" />
<g transform="rotate(-20 20556.2 45088.5)">
<text x="20556.2" y="45285.3"
textLength="3226.38" font-size="524.934" lengthAdjust="spacingAndGlyphs"
text-anchor="middle" opacity="0">MX-NoLED</text>
</g>
<path d="M19225 45762
L19090 45392
L19310 45611
L19337 45302
L19471 45672
" />
<path d="M19478 45251
L19859 45531
" />
<path d="M19724 45161
L19612 45621
" />
<path d="M19949 45339
L20231 45236
" />
<path d="M20458 45313
L20323 44943
L20669 45236
L20535 44866
" />
<path d="M20898 45153
L20857 45148
L20833 45137
L20802 45108
L20764 45002
L20769 44961
L20780 44937
L20809 44906
L20862 44887
L20903 44892
L20927 44903
L20958 44932
L20996 45037
L20991 45079
L20980 45103
L20951 45133
L20898 45153
" />
<path d="M21357 44986
L21180 45050
L21046 44680
" />
<path d="M21409 44747
L21533 44702
" />
<path d="M21656 44877
L21480 44941
L21345 44571
L21521 44507
" />
<path d="M21815 44819
L21680 44449
L21768 44417
L21827 44416
L21875 44438
L21906 44467
L21949 44531
L21968 44584
L21976 44661
L21971 44702
L21949 44750
L21903 44787
L21815 44819
" />
<text x="60950" y="36821.9"
textLength="1651.57" font-size="524.934" lengthAdjust="spacingAndGlyphs"
text-anchor="middle" opacity="0">MX13</text>
<path d="M60256 36803
L60256 36409
L60387 36690
L60518 36409
L60518 36803
" />
<path d="M60668 36409
L60931 36803
" />
<path d="M60931 36409
L60668 36803
" />
<path d="M61287 36803
L61062 36803
" />
<path d="M61174 36803
L61174 36409
L61137 36465
L61099 36503
L61062 36521
" />
<path d="M61418 36409
L61662 36409
L61531 36559
L61587 36559
L61624 36578
L61643 36596
L61662 36634
L61662 36728
L61643 36765
L61624 36784
L61587 36803
L61474 36803
L61437 36784
L61418 36765
" />
<text x="60950" y="32446.9"
textLength="3226.38" font-size="524.934" lengthAdjust="spacingAndGlyphs"
text-anchor="middle" opacity="0">MX-NoLED</text>
<path d="M59468 32428
L59468 32034
L59600 32315
L59731 32034
L59731 32428
" />
<path d="M59881 32034
L60143 32428
" />
<path d="M60143 32034
L59881 32428
" />
<path d="M60293 32278
L60593 32278
" />
<path d="M60781 32428
L60781 32034
L61006 32428
L61006 32034
" />
<path d="M61249 32428
L61212 32409
L61193 32390
L61174 32353
L61174 32240
L61193 32203
L61212 32184
L61249 32165
L61306 32165
L61343 32184
L61362 32203
L61381 32240
L61381 32353
L61362 32390
L61343 32409
L61306 32428
L61249 32428
" />
<path d="M61737 32428
L61549 32428
L61549 32034
" />
<path d="M61868 32221
L61999 32221
" />
<path d="M62056 32428
L61868 32428
L61868 32034
L62056 32034
" />
<path d="M62224 32428
L62224 32034
L62318 32034
L62374 32053
L62412 32090
L62431 32128
L62449 32203
L62449 32259
L62431 32334
L62412 32371
L62374 32409
L62318 32428
L62224 32428
" />
<text x="53375" y="36821.9"
textLength="1651.57" font-size="524.934" lengthAdjust="spacingAndGlyphs"
text-anchor="middle" opacity="0">MX12</text>
<path d="M52681 36803
L52681 36409
L52812 36690
L52943 36409
L52943 36803
" />
<path d="M53093 36409
L53356 36803
" />
<path d="M53356 36409
L53093 36803
" />
<path d="M53712 36803
L53487 36803
" />
<path d="M53599 36803
L53599 36409
L53562 36465
L53524 36503
L53487 36521
" />
<path d="M53862 36446
L53881 36428
L53918 36409
L54012 36409
L54049 36428
L54068 36446
L54087 36484
L54087 36521
L54068 36578
L53843 36803
L54087 36803
" />
<text x="53375" y="32446.9"
textLength="3226.38" font-size="524.934" lengthAdjust="spacingAndGlyphs"
text-anchor="middle" opacity="0">MX-NoLED</text>
<path d="M51893 32428
L51893 32034
L52025 32315
L52156 32034
L52156 32428
" />
<path d="M52306 32034
L52568 32428
" />
<path d="M52568 32034
L52306 32428
" />
<path d="M52718 32278
L53018 32278
" />
<path d="M53206 32428
L53206 32034
L53431 32428
L53431 32034
" />
<path d="M53674 32428
L53637 32409
L53618 32390
L53599 32353
L53599 32240
L53618 32203
L53637 32184
L53674 32165
L53731 32165
L53768 32184
L53787 32203
L53806 32240
L53806 32353
L53787 32390
L53768 32409
L53731 32428
L53674 32428
" />
<path d="M54162 32428
L53974 32428
L53974 32034
" />
<path d="M54293 32221
L54424 32221
" />
<path d="M54481 32428
L54293 32428
L54293 32034
L54481 32034
" />
<path d="M54649 32428
L54649 32034
L54743 32034
L54799 32053
L54837 32090
L54856 32128
L54874 32203
L54874 32259
L54856 32334
L54837 32371
L54799 32409
L54743 32428
L54649 32428
" />
<text x="45800" y="36821.9"
textLength="1651.57" font-size="524.934" lengthAdjust="spacingAndGlyphs"
text-anchor="middle" opacity="0">MX11</text>
<path d="M45106 36803
L45106 36409
L45237 36690
L45368 36409
L45368 36803
" />
<path d="M45518 36409
L45781 36803
" />
<path d="M45781 36409
L45518 36803
" />
<path d="M46137 36803
L45912 36803
" />
<path d="M46024 36803
L46024 36409
L45987 36465
L45949 36503
L45912 36521
" />
<path d="M46512 36803
L46287 36803
" />
<path d="M46399 36803
L46399 36409
L46362 36465
L46324 36503
L46287 36521
" />
<text x="45800" y="32446.9"
textLength="3226.38" font-size="524.934" lengthAdjust="spacingAndGlyphs"
text-anchor="middle" opacity="0">MX-NoLED</text>
<path d="M44318 32428
L44318 32034
L44450 32315
L44581 32034
L44581 32428
" />
<path d="M44731 32034
L44993 32428
" />
<path d="M44993 32034
L44731 32428
" />
<path d="M45143 32278
L45443 32278
" />
<path d="M45631 32428
L45631 32034
L45856 32428
L45856 32034
" />
<path d="M46099 32428
L46062 32409
L46043 32390
L46024 32353
L46024 32240
L46043 32203
L46062 32184
L46099 32165
L46156 32165
L46193 32184
L46212 32203
L46231 32240
L46231 32353
L46212 32390
L46193 32409
L46156 32428
L46099 32428
" />
<path d="M46587 32428
L46399 32428
L46399 32034
" />
<path d="M46718 32221
L46849 32221
" />
<path d="M46906 32428
L46718 32428
L46718 32034
L46906 32034
" />
<path d="M47074 32428
L47074 32034
L47168 32034
L47224 32053
L47262 32090
L47281 32128
L47299 32203
L47299 32259
L47281 32334
L47262 32371
L47224 32409
L47168 32428
L47074 32428
" />
<text x="38225" y="36821.9"
textLength="1651.57" font-size="524.934" lengthAdjust="spacingAndGlyphs"
text-anchor="middle" opacity="0">MX10</text>
<path d="M37531 36803
L37531 36409
L37662 36690
L37793 36409
L37793 36803
" />
<path d="M37943 36409
L38206 36803
" />
<path d="M38206 36409
L37943 36803
" />
<path d="M38562 36803
L38337 36803
" />
<path d="M38449 36803
L38449 36409
L38412 36465
L38374 36503
L38337 36521
" />
<path d="M38806 36409
L38843 36409
L38881 36428
L38899 36446
L38918 36484
L38937 36559
L38937 36653
L38918 36728
L38899 36765
L38881 36784
L38843 36803
L38806 36803
L38768 36784
L38749 36765
L38731 36728
L38712 36653
L38712 36559
L38731 36484
L38749 36446
L38768 36428
L38806 36409
" />
<text x="38225" y="32446.9"
textLength="3226.38" font-size="524.934" lengthAdjust="spacingAndGlyphs"
text-anchor="middle" opacity="0">MX-NoLED</text>
<path d="M36743 32428
L36743 32034
L36875 32315
L37006 32034
L37006 32428
" />
<path d="M37156 32034
L37418 32428
" />
<path d="M37418 32034
L37156 32428
" />
<path d="M37568 32278
L37868 32278
" />
<path d="M38056 32428
L38056 32034
L38281 32428
L38281 32034
" />
<path d="M38524 32428
L38487 32409
L38468 32390
L38449 32353
L38449 32240
L38468 32203
L38487 32184
L38524 32165
L38581 32165
L38618 32184
L38637 32203
L38656 32240
L38656 32353
L38637 32390
L38618 32409
L38581 32428
L38524 32428
" />
<path d="M39012 32428
L38824 32428
L38824 32034
" />
<path d="M39143 32221
L39274 32221
" />
<path d="M39331 32428
L39143 32428
L39143 32034
L39331 32034
" />
<path d="M39499 32428
L39499 32034
L39593 32034
L39649 32053
L39687 32090
L39706 32128
L39724 32203
L39724 32259
L39706 32334
L39687 32371
L39649 32409
L39593 32428
L39499 32428
" />
<g transform="rotate(-20 29752.5 38349.6)">
<text x="29752.5" y="38546.5"
textLength="1276.62" font-size="524.934" lengthAdjust="spacingAndGlyphs"
text-anchor="middle" opacity="0">MX9</text>
</g>
<path d="M29337 38690
L29203 38320
L29422 38539
L29449 38230
L29584 38600
" />
<path d="M29590 38179
L29971 38459
" />
<path d="M29837 38089
L29725 38549
" />
<path d="M30130 38401
L30201 38375
L30229 38345
L30241 38321
L30257 38255
L30249 38178
L30197 38037
L30167 38009
L30143 37997
L30101 37993
L30031 38018
L30002 38049
L29991 38073
L29986 38114
L30018 38202
L30048 38231
L30072 38243
L30114 38247
L30184 38222
L30213 38191
L30224 38167
L30229 38126
" />
<g transform="rotate(-20 28256.2 34238.5)">
<text x="28256.2" y="34435.3"
textLength="3226.38" font-size="524.934" lengthAdjust="spacingAndGlyphs"
text-anchor="middle" opacity="0">MX-NoLED</text>
</g>
<path d="M26925 34912
L26790 34542
L27010 34761
L27037 34452
L27171 34822
" />
<path d="M27178 34401
L27559 34681
" />
<path d="M27424 34311
L27312 34771
" />
<path d="M27649 34489
L27931 34386
" />
<path d="M28158 34463
L28023 34093
L28369 34386
L28235 34016
" />
<path d="M28598 34303
L28557 34298
L28533 34287
L28502 34258
L28464 34152
L28469 34111
L28480 34087
L28509 34056
L28562 34037
L28603 34042
L28627 34053
L28658 34082
L28696 34187
L28691 34229
L28680 34253
L28651 34283
L28598 34303
" />
<path d="M29057 34136
L28880 34200
L28746 33830
" />
<path d="M29109 33897
L29233 33852
" />
<path d="M29356 34027
L29180 34091
L29045 33721
L29221 33657
" />
<path d="M29515 33969
L29380 33599
L29468 33567
L29527 33566
L29575 33588
L29606 33617
L29649 33681
L29668 33734
L29676 33811
L29671 33852
L29649 33900
L29603 33937
L29515 33969
" />
<g transform="rotate(-20 20877.5 41574.6)">
<text x="20877.5" y="41771.5"
textLength="1276.62" font-size="524.934" lengthAdjust="spacingAndGlyphs"
text-anchor="middle" opacity="0">MX8</text>
</g>
<path d="M20462 41915
L20328 41545
L20547 41764
L20574 41455
L20709 41825
" />
<path d="M20715 41404
L21096 41684
" />
<path d="M20962 41314
L20850 41774
" />
<path d="M21213 41402
L21172 41397
L21148 41386
L21117 41357
L21111 41339
L21116 41298
L21127 41274
L21156 41243
L21226 41218
L21268 41222
L21292 41234
L21322 41262
L21329 41280
L21324 41322
L21313 41346
L21284 41376
L21213 41402
L21185 41432
L21173 41456
L21169 41498
L21194 41568
L21225 41597
L21249 41608
L21290 41613
L21361 41588
L21390 41557
L21401 41533
L21406 41491
L21380 41421
L21349 41392
L21325 41381
L21284 41376
" />
<g transform="rotate(-20 19381.2 37463.5)">
<text x="19381.2" y="37660.3"
textLength="3226.38" font-size="524.934" lengthAdjust="spacingAndGlyphs"
text-anchor="middle" opacity="0">MX-NoLED</text>
</g>
<path d="M18050 38137
L17915 37767
L18135 37986
L18162 37677
L18296 38047
" />
<path d="M18303 37626
L18684 37906
" />
<path d="M18549 37536
L18437 37996
" />
<path d="M18774 37714
L19056 37611
" />
<path d="M19283 37688
L19148 37318
L19494 37611
L19360 37241
" />
<path d="M19723 37528
L19682 37523
L19658 37512
L19627 37483
L19589 37377
L19594 37336
L19605 37312
L19634 37281
L19687 37262
L19728 37267
L19752 37278
L19783 37307
L19821 37412
L19816 37454
L19805 37478
L19776 37508
L19723 37528
" />
<path d="M20182 37361
L20005 37425
L19871 37055
" />
<path d="M20234 37122
L20358 37077
" />
<path d="M20481 37252
L20305 37316
L20170 36946
L20346 36882
" />
<path d="M20640 37194
L20505 36824
L20593 36792
L20652 36791
L20700 36813
L20731 36842
L20774 36906
L20793 36959
L20801 37036
L20796 37077
L20774 37125
L20728 37162
L20640 37194
" />
<text x="64800" y="29246.9"
textLength="1276.62" font-size="524.934" lengthAdjust="spacingAndGlyphs"
text-anchor="middle" opacity="0">MX7</text>
<path d="M64293 29228
L64293 28834
L64425 29115
L64556 28834
L64556 29228
" />
<path d="M64706 28834
L64968 29228
" />
<path d="M64968 28834
L64706 29228
" />
<path d="M65081 28834
L65343 28834
L65174 29228
" />
<text x="64800" y="24871.9"
textLength="3226.38" font-size="524.934" lengthAdjust="spacingAndGlyphs"
text-anchor="middle" opacity="0">MX-NoLED</text>
<path d="M63318 24853
L63318 24459
L63450 24740
L63581 24459
L63581 24853
" />
<path d="M63731 24459
L63993 24853
" />
<path d="M63993 24459
L63731 24853
" />
<path d="M64143 24703
L64443 24703
" />
<path d="M64631 24853
L64631 24459
L64856 24853
L64856 24459
" />
<path d="M65099 24853
L65062 24834
L65043 24815
L65024 24778
L65024 24665
L65043 24628
L65062 24609
L65099 24590
L65156 24590
L65193 24609
L65212 24628
L65231 24665
L65231 24778
L65212 24815
L65193 24834
L65156 24853
L65099 24853
" />
<path d="M65587 24853
L65399 24853
L65399 24459
" />
<path d="M65718 24646
L65849 24646
" />
<path d="M65906 24853
L65718 24853
L65718 24459
L65906 24459
" />
<path d="M66074 24853
L66074 24459
L66168 24459
L66224 24478
L66262 24515
L66281 24553
L66299 24628
L66299 24684
L66281 24759
L66262 24796
L66224 24834
L66168 24853
L66074 24853
" />
<text x="57200" y="29246.9"
textLength="1276.62" font-size="524.934" lengthAdjust="spacingAndGlyphs"
text-anchor="middle" opacity="0">MX6</text>
<path d="M56693 29228
L56693 28834
L56825 29115
L56956 28834
L56956 29228
" />
<path d="M57106 28834
L57368 29228
" />
<path d="M57368 28834
L57106 29228
" />
<path d="M57687 28834
L57612 28834
L57574 28853
L57556 28871
L57518 28928
L57499 29003
L57499 29153
L57518 29190
L57537 29209
L57574 29228
L57649 29228
L57687 29209
L57706 29190
L57724 29153
L57724 29059
L57706 29021
L57687 29003
L57649 28984
L57574 28984
L57537 29003
L57518 29021
L57499 29059
" />
<text x="57200" y="24871.9"
textLength="3226.38" font-size="524.934" lengthAdjust="spacingAndGlyphs"
text-anchor="middle" opacity="0">MX-NoLED</text>
<path d="M55718 24853
L55718 24459
L55850 24740
L55981 24459
L55981 24853
" />
<path d="M56131 24459
L56393 24853
" />
<path d="M56393 24459
L56131 24853
" />
<path d="M56543 24703
L56843 24703
" />
<path d="M57031 24853
L57031 24459
L57256 24853
L57256 24459
" />
<path d="M57499 24853
L57462 24834
L57443 24815
L57424 24778
L57424 24665
L57443 24628
L57462 24609
L57499 24590
L57556 24590
L57593 24609
L57612 24628
L57631 24665
L57631 24778
L57612 24815
L57593 24834
L57556 24853
L57499 24853
" />
<path d="M57987 24853
L57799 24853
L57799 24459
" />
<path d="M58118 24646
L58249 24646
" />
<path d="M58306 24853
L58118 24853
L58118 24459
L58306 24459
" />
<path d="M58474 24853
L58474 24459
L58568 24459
L58624 24478
L58662 24515
L58681 24553
L58699 24628
L58699 24684
L58681 24759
L58662 24796
L58624 24834
L58568 24853
L58474 24853
" />
<text x="49625" y="29246.9"
textLength="1276.62" font-size="524.934" lengthAdjust="spacingAndGlyphs"
text-anchor="middle" opacity="0">MX5</text>
<path d="M49118 29228
L49118 28834
L49250 29115
L49381 28834
L49381 29228
" />
<path d="M49531 28834
L49793 29228
" />
<path d="M49793 28834
L49531 29228
" />
<path d="M50131 28834
L49943 28834
L49924 29021
L49943 29003
L49981 28984
L50074 28984
L50112 29003
L50131 29021
L50149 29059
L50149 29153
L50131 29190
L50112 29209
L50074 29228
L49981 29228
L49943 29209
L49924 29190
" />
<text x="49625" y="24871.9"
textLength="3226.38" font-size="524.934" lengthAdjust="spacingAndGlyphs"
text-anchor="middle" opacity="0">MX-NoLED</text>
<path d="M48143 24853
L48143 24459
L48275 24740
L48406 24459
L48406 24853
" />
<path d="M48556 24459
L48818 24853
" />
<path d="M48818 24459
L48556 24853
" />
<path d="M48968 24703
L49268 24703
" />
<path d="M49456 24853
L49456 24459
L49681 24853
L49681 24459
" />
<path d="M49924 24853
L49887 24834
L49868 24815
L49849 24778
L49849 24665
L49868 24628
L49887 24609
L49924 24590
L49981 24590
L50018 24609
L50037 24628
L50056 24665
L50056 24778
L50037 24815
L50018 24834
L49981 24853
L49924 24853
" />
<path d="M50412 24853
L50224 24853
L50224 24459
" />
<path d="M50543 24646
L50674 24646
" />
<path d="M50731 24853
L50543 24853
L50543 24459
L50731 24459
" />
<path d="M50899 24853
L50899 24459
L50993 24459
L51049 24478
L51087 24515
L51106 24553
L51124 24628
L51124 24684
L51106 24759
L51087 24796
L51049 24834
L50993 24853
L50899 24853
" />
<text x="42025" y="29246.9"
textLength="1276.62" font-size="524.934" lengthAdjust="spacingAndGlyphs"
text-anchor="middle" opacity="0">MX4</text>
<path d="M41518 29228
L41518 28834
L41650 29115
L41781 28834
L41781 29228
" />
<path d="M41931 28834
L42193 29228
" />
<path d="M42193 28834
L41931 29228
" />
<path d="M42512 28965
L42512 29228
" />
<path d="M42418 28815
L42324 29096
L42568 29096
" />
<text x="42025" y="24871.9"
textLength="3226.38" font-size="524.934" lengthAdjust="spacingAndGlyphs"
text-anchor="middle" opacity="0">MX-NoLED</text>
<path d="M40543 24853
L40543 24459
L40675 24740
L40806 24459
L40806 24853
" />
<path d="M40956 24459
L41218 24853
" />
<path d="M41218 24459
L40956 24853
" />
<path d="M41368 24703
L41668 24703
" />
<path d="M41856 24853
L41856 24459
L42081 24853
L42081 24459
" />
<path d="M42324 24853
L42287 24834
L42268 24815
L42249 24778
L42249 24665
L42268 24628
L42287 24609
L42324 24590
L42381 24590
L42418 24609
L42437 24628
L42456 24665
L42456 24778
L42437 24815
L42418 24834
L42381 24853
L42324 24853
" />
<path d="M42812 24853
L42624 24853
L42624 24459
" />
<path d="M42943 24646
L43074 24646
" />
<path d="M43131 24853
L42943 24853
L42943 24459
L43131 24459
" />
<path d="M43299 24853
L43299 24459
L43393 24459
L43449 24478
L43487 24515
L43506 24553
L43524 24628
L43524 24684
L43506 24759
L43487 24796
L43449 24834
L43393 24853
L43299 24853
" />
<g transform="rotate(-20 31777.5 29574.6)">
<text x="31777.5" y="29771.5"
textLength="1276.62" font-size="524.934" lengthAdjust="spacingAndGlyphs"
text-anchor="middle" opacity="0">MX3</text>
</g>
<path d="M31362 29915
L31228 29545
L31447 29764
L31474 29455
L31609 29825
" />
<path d="M31615 29404
L31996 29684
" />
<path d="M31862 29314
L31750 29774
" />
<path d="M31968 29275
L32197 29192
L32125 29378
L32177 29359
L32219 29363
L32243 29375
L32274 29403
L32306 29491
L32301 29533
L32290 29557
L32261 29588
L32155 29626
L32113 29621
L32089 29610
" />
<g transform="rotate(-20 30281.2 25463.5)">
<text x="30281.2" y="25660.3"
textLength="3226.38" font-size="524.934" lengthAdjust="spacingAndGlyphs"
text-anchor="middle" opacity="0">MX-NoLED</text>
</g>
<path d="M28950 26137
L28815 25767
L29035 25986
L29062 25677
L29196 26047
" />
<path d="M29203 25626
L29584 25906
" />
<path d="M29449 25536
L29337 25996
" />
<path d="M29674 25714
L29956 25611
" />
<path d="M30183 25688
L30048 25318
L30394 25611
L30260 25241
" />
<path d="M30623 25528
L30582 25523
L30558 25512
L30527 25483
L30489 25377
L30494 25336
L30505 25312
L30534 25281
L30587 25262
L30628 25267
L30652 25278
L30683 25307
L30721 25412
L30716 25454
L30705 25478
L30676 25508
L30623 25528
" />
<path d="M31082 25361
L30905 25425
L30771 25055
" />
<path d="M31134 25122
L31258 25077
" />
<path d="M31381 25252
L31205 25316
L31070 24946
L31246 24882
" />
<path d="M31540 25194
L31405 24824
L31493 24792
L31552 24791
L31600 24813
L31631 24842
L31674 24906
L31693 24959
L31701 25036
L31696 25077
L31674 25125
L31628 25162
L31540 25194
" />
<g transform="rotate(-20 24652.5 32149.6)">
<text x="24652.5" y="32346.5"
textLength="1276.62" font-size="524.934" lengthAdjust="spacingAndGlyphs"
text-anchor="middle" opacity="0">MX2</text>
</g>
<path d="M24237 32490
L24103 32120
L24322 32339
L24349 32030
L24484 32400
" />
<path d="M24490 31979
L24871 32259
" />
<path d="M24737 31889
L24625 32349
" />
<path d="M24873 31879
L24884 31855
L24913 31825
L25001 31793
L25043 31797
L25067 31809
L25097 31837
L25110 31873
L25112 31932
L24977 32220
L25206 32137
" />
<g transform="rotate(-20 23156.2 28038.5)">
<text x="23156.2" y="28235.3"
textLength="3226.38" font-size="524.934" lengthAdjust="spacingAndGlyphs"
text-anchor="middle" opacity="0">MX-NoLED</text>
</g>
<path d="M21825 28712
L21690 28342
L21910 28561
L21937 28252
L22071 28622
" />
<path d="M22078 28201
L22459 28481
" />
<path d="M22324 28111
L22212 28571
" />
<path d="M22549 28289
L22831 28186
" />
<path d="M23058 28263
L22923 27893
L23269 28186
L23135 27816
" />
<path d="M23498 28103
L23457 28098
L23433 28087
L23402 28058
L23364 27952
L23369 27911
L23380 27887
L23409 27856
L23462 27837
L23503 27842
L23527 27853
L23558 27882
L23596 27987
L23591 28029
L23580 28053
L23551 28083
L23498 28103
" />
<path d="M23957 27936
L23780 28000
L23646 27630
" />
<path d="M24009 27697
L24133 27652
" />
<path d="M24256 27827
L24080 27891
L23945 27521
L24121 27457
" />
<path d="M24415 27769
L24280 27399
L24368 27367
L24427 27366
L24475 27388
L24506 27417
L24549 27481
L24568 27534
L24576 27611
L24571 27652
L24549 27700
L24503 27737
L24415 27769
" />
<g transform="rotate(-20 17527.5 34749.6)">
<text x="17527.5" y="34946.5"
textLength="1276.62" font-size="524.934" lengthAdjust="spacingAndGlyphs"
text-anchor="middle" opacity="0">MX1</text>
</g>
<path d="M17112 35090
L16978 34720
L17197 34939
L17224 34630
L17359 35000
" />
<path d="M17365 34579
L17746 34859
" />
<path d="M17612 34489
L17500 34949
" />
<path d="M18081 34737
L17870 34814
" />
<path d="M17976 34775
L17841 34405
L17825 34471
L17802 34519
L17774 34550
" />
<g transform="rotate(-20 16031.2 30638.5)">
<text x="16031.2" y="30835.3"
textLength="3226.38" font-size="524.934" lengthAdjust="spacingAndGlyphs"
text-anchor="middle" opacity="0">MX-NoLED</text>
</g>
<path d="M14700 31312
L14565 30942
L14785 31161
L14812 30852
L14946 31222
" />
<path d="M14953 30801
L15334 31081
" />
<path d="M15199 30711
L15087 31171
" />
<path d="M15424 30889
L15706 30786
" />
<path d="M15933 30863
L15798 30493
L16144 30786
L16010 30416
" />
<path d="M16373 30703
L16332 30698
L16308 30687
L16277 30658
L16239 30552
L16244 30511
L16255 30487
L16284 30456
L16337 30437
L16378 30442
L16402 30453
L16433 30482
L16471 30587
L16466 30629
L16455 30653
L16426 30683
L16373 30703
" />
<path d="M16832 30536
L16655 30600
L16521 30230
" />
<path d="M16884 30297
L17008 30252
" />
<path d="M17131 30427
L16955 30491
L16820 30121
L16996 30057
" />
<path d="M17290 30369
L17155 29999
L17243 29967
L17302 29966
L17350 29988
L17381 30017
L17424 30081
L17443 30134
L17451 30211
L17446 30252
L17424 30300
L17378 30337
L17290 30369
" />
<g >
</g>
</g> 
</svg>
