<?xml version="1.0" standalone="no"?>
 <!DOCTYPE svg PUBLIC "-//W3C//DTD SVG 1.1//EN" 
 "http://www.w3.org/Graphics/SVG/1.1/DTD/svg11.dtd"> 
<svg
  xmlns:svg="http://www.w3.org/2000/svg"
  xmlns="http://www.w3.org/2000/svg"
  xmlns:xlink="http://www.w3.org/1999/xlink"
  version="1.1"
  width="29.700220cm" height="21.000720cm" viewBox="0 0 116930 82680">
<title>SVG Picture created as keyboard-B_SilkS.svg date 2021/08/25 15:52:55 </title>
  <desc>Picture generated by PCBNEW </desc>
<g style="fill:#000000; fill-opacity:1;stroke:#000000; stroke-opacity:1;
stroke-linecap:round; stroke-linejoin:round;"
 transform="translate(0 0) scale(1 1)">
</g>
<g style="fill:#000000; fill-opacity:0.0; 
stroke:#000000; stroke-width:-0.000393701; stroke-opacity:1; 
stroke-linecap:round; stroke-linejoin:round;">
</g>
<g style="fill:#000000; fill-opacity:0.0; 
stroke:#000000; stroke-width:47.2441; stroke-opacity:1; 
stroke-linecap:round; stroke-linejoin:round;">
<path d="M56751 61640
L56751 60759
" />
<path d="M56846 61640
L56846 60759
" />
<path d="M56798 61640
L56798 60759
" />
<path d="M58440 61200
L58184 61200
" />
<path d="M56259 61200
L56515 61200
" />
<path d="M58184 61640
L56515 61640
" />
<path d="M58184 60759
L58184 61640
" />
<path d="M56515 60759
L58184 60759
" />
<path d="M56515 61640
L56515 60759
" />
<path d="M42626 61690
L42626 60809
" />
<path d="M42721 61690
L42721 60809
" />
<path d="M42673 61690
L42673 60809
" />
<path d="M44315 61250
L44059 61250
" />
<path d="M42134 61250
L42390 61250
" />
<path d="M44059 61690
L42390 61690
" />
<path d="M44059 60809
L44059 61690
" />
<path d="M42390 60809
L44059 60809
" />
<path d="M42390 61690
L42390 60809
" />
<path d="M33548 63930
L33246 63102
" />
<path d="M33636 63898
L33335 63069
" />
<path d="M33592 63914
L33290 63086
" />
<path d="M34984 62938
L34743 63026
" />
<path d="M32934 63684
L33175 63597
" />
<path d="M34894 63440
L33326 64011
" />
<path d="M34593 62612
L34894 63440
" />
<path d="M33024 63183
L34593 62612
" />
<path d="M33326 64011
L33024 63183
" />
<path d="M24628 67032
L24327 66203
" />
<path d="M24717 66999
L24416 66171
" />
<path d="M24673 67015
L24371 66187
" />
<path d="M26065 66040
L25824 66127
" />
<path d="M24015 66786
L24256 66698
" />
<path d="M25975 66541
L24406 67112
" />
<path d="M25673 65713
L25975 66541
" />
<path d="M24105 66284
L25673 65713
" />
<path d="M24406 67112
L24105 66284
" />
<path d="M65976 54090
L65976 53209
" />
<path d="M66071 54090
L66071 53209
" />
<path d="M66023 54090
L66023 53209
" />
<path d="M67665 53650
L67409 53650
" />
<path d="M65484 53650
L65740 53650
" />
<path d="M67409 54090
L65740 54090
" />
<path d="M67409 53209
L67409 54090
" />
<path d="M65740 53209
L67409 53209
" />
<path d="M65740 54090
L65740 53209
" />
<path d="M58376 54090
L58376 53209
" />
<path d="M58471 54090
L58471 53209
" />
<path d="M58423 54090
L58423 53209
" />
<path d="M60065 53650
L59809 53650
" />
<path d="M57884 53650
L58140 53650
" />
<path d="M59809 54090
L58140 54090
" />
<path d="M59809 53209
L59809 54090
" />
<path d="M58140 53209
L59809 53209
" />
<path d="M58140 54090
L58140 53209
" />
<path d="M50801 54090
L50801 53209
" />
<path d="M50896 54090
L50896 53209
" />
<path d="M50848 54090
L50848 53209
" />
<path d="M52490 53650
L52234 53650
" />
<path d="M50309 53650
L50565 53650
" />
<path d="M52234 54090
L50565 54090
" />
<path d="M52234 53209
L52234 54090
" />
<path d="M50565 53209
L52234 53209
" />
<path d="M50565 54090
L50565 53209
" />
<path d="M43226 54090
L43226 53209
" />
<path d="M43321 54090
L43321 53209
" />
<path d="M43273 54090
L43273 53209
" />
<path d="M44915 53650
L44659 53650
" />
<path d="M42734 53650
L42990 53650
" />
<path d="M44659 54090
L42990 54090
" />
<path d="M44659 53209
L44659 54090
" />
<path d="M42990 53209
L44659 53209
" />
<path d="M42990 54090
L42990 53209
" />
<path d="M35328 55182
L35027 54353
" />
<path d="M35417 55149
L35116 54321
" />
<path d="M35373 55165
L35071 54337
" />
<path d="M36765 54190
L36524 54277
" />
<path d="M34715 54936
L34956 54848
" />
<path d="M36675 54691
L35106 55262
" />
<path d="M36373 53863
L36675 54691
" />
<path d="M34805 54434
L36373 53863
" />
<path d="M35106 55262
L34805 54434
" />
<path d="M23728 59282
L23427 58453
" />
<path d="M23817 59249
L23516 58421
" />
<path d="M23773 59265
L23471 58437
" />
<path d="M25165 58290
L24924 58377
" />
<path d="M23115 59036
L23356 58948
" />
<path d="M25075 58791
L23506 59362
" />
<path d="M24773 57963
L25075 58791
" />
<path d="M23205 58534
L24773 57963
" />
<path d="M23506 59362
L23205 58534
" />
<path d="M62226 46490
L62226 45609
" />
<path d="M62321 46490
L62321 45609
" />
<path d="M62273 46490
L62273 45609
" />
<path d="M63915 46050
L63659 46050
" />
<path d="M61734 46050
L61990 46050
" />
<path d="M63659 46490
L61990 46490
" />
<path d="M63659 45609
L63659 46490
" />
<path d="M61990 45609
L63659 45609
" />
<path d="M61990 46490
L61990 45609
" />
<path d="M54651 46515
L54651 45634
" />
<path d="M54746 46515
L54746 45634
" />
<path d="M54698 46515
L54698 45634
" />
<path d="M56340 46075
L56084 46075
" />
<path d="M54159 46075
L54415 46075
" />
<path d="M56084 46515
L54415 46515
" />
<path d="M56084 45634
L56084 46515
" />
<path d="M54415 45634
L56084 45634
" />
<path d="M54415 46515
L54415 45634
" />
<path d="M47076 46515
L47076 45634
" />
<path d="M47171 46515
L47171 45634
" />
<path d="M47123 46515
L47123 45634
" />
<path d="M48765 46075
L48509 46075
" />
<path d="M46584 46075
L46840 46075
" />
<path d="M48509 46515
L46840 46515
" />
<path d="M48509 45634
L48509 46515
" />
<path d="M46840 45634
L48509 45634
" />
<path d="M46840 46515
L46840 45634
" />
<path d="M39501 46515
L39501 45634
" />
<path d="M39596 46515
L39596 45634
" />
<path d="M39548 46515
L39548 45634
" />
<path d="M41190 46075
L40934 46075
" />
<path d="M39009 46075
L39265 46075
" />
<path d="M40934 46515
L39265 46515
" />
<path d="M40934 45634
L40934 46515
" />
<path d="M39265 45634
L40934 45634
" />
<path d="M39265 46515
L39265 45634
" />
<path d="M32103 48032
L31802 47203
" />
<path d="M32192 47999
L31891 47171
" />
<path d="M32148 48015
L31846 47187
" />
<path d="M33540 47040
L33299 47127
" />
<path d="M31490 47786
L31731 47698
" />
<path d="M33450 47541
L31881 48112
" />
<path d="M33148 46713
L33450 47541
" />
<path d="M31580 47284
L33148 46713
" />
<path d="M31881 48112
L31580 47284
" />
<path d="M22278 51532
L21977 50703
" />
<path d="M22367 51499
L22066 50671
" />
<path d="M22323 51515
L22021 50687
" />
<path d="M23715 50540
L23474 50627
" />
<path d="M21665 51286
L21906 51198
" />
<path d="M23625 51041
L22056 51612
" />
<path d="M23323 50213
L23625 51041
" />
<path d="M21755 50784
L23323 50213
" />
<path d="M22056 51612
L21755 50784
" />
<path d="M60376 38915
L60376 38034
" />
<path d="M60471 38915
L60471 38034
" />
<path d="M60423 38915
L60423 38034
" />
<path d="M62065 38475
L61809 38475
" />
<path d="M59884 38475
L60140 38475
" />
<path d="M61809 38915
L60140 38915
" />
<path d="M61809 38034
L61809 38915
" />
<path d="M60140 38034
L61809 38034
" />
<path d="M60140 38915
L60140 38034
" />
<path d="M52776 38915
L52776 38034
" />
<path d="M52871 38915
L52871 38034
" />
<path d="M52823 38915
L52823 38034
" />
<path d="M54465 38475
L54209 38475
" />
<path d="M52284 38475
L52540 38475
" />
<path d="M54209 38915
L52540 38915
" />
<path d="M54209 38034
L54209 38915
" />
<path d="M52540 38034
L54209 38034
" />
<path d="M52540 38915
L52540 38034
" />
<path d="M45226 38915
L45226 38034
" />
<path d="M45321 38915
L45321 38034
" />
<path d="M45273 38915
L45273 38034
" />
<path d="M46915 38475
L46659 38475
" />
<path d="M44734 38475
L44990 38475
" />
<path d="M46659 38915
L44990 38915
" />
<path d="M46659 38034
L46659 38915
" />
<path d="M44990 38034
L46659 38034
" />
<path d="M44990 38915
L44990 38034
" />
<path d="M37626 38915
L37626 38034
" />
<path d="M37721 38915
L37721 38034
" />
<path d="M37673 38915
L37673 38034
" />
<path d="M39315 38475
L39059 38475
" />
<path d="M37134 38475
L37390 38475
" />
<path d="M39059 38915
L37390 38915
" />
<path d="M39059 38034
L39059 38915
" />
<path d="M37390 38034
L39059 38034
" />
<path d="M37390 38915
L37390 38034
" />
<path d="M30023 40705
L29721 39877
" />
<path d="M30111 40673
L29810 39844
" />
<path d="M30067 40689
L29765 39861
" />
<path d="M31459 39713
L31218 39801
" />
<path d="M29409 40459
L29650 40372
" />
<path d="M31369 40215
L29801 40786
" />
<path d="M31068 39387
L31369 40215
" />
<path d="M29499 39958
L31068 39387
" />
<path d="M29801 40786
L29499 39958
" />
<path d="M21153 43932
L20852 43103
" />
<path d="M21242 43899
L20941 43071
" />
<path d="M21198 43915
L20896 43087
" />
<path d="M22590 42940
L22349 43027
" />
<path d="M20540 43686
L20781 43598
" />
<path d="M22500 43441
L20931 44012
" />
<path d="M22198 42613
L22500 43441
" />
<path d="M20630 43184
L22198 42613
" />
<path d="M20931 44012
L20630 43184
" />
<path d="M64226 31315
L64226 30434
" />
<path d="M64321 31315
L64321 30434
" />
<path d="M64273 31315
L64273 30434
" />
<path d="M65915 30875
L65659 30875
" />
<path d="M63734 30875
L63990 30875
" />
<path d="M65659 31315
L63990 31315
" />
<path d="M65659 30434
L65659 31315
" />
<path d="M63990 30434
L65659 30434
" />
<path d="M63990 31315
L63990 30434
" />
<path d="M56601 31315
L56601 30434
" />
<path d="M56696 31315
L56696 30434
" />
<path d="M56648 31315
L56648 30434
" />
<path d="M58290 30875
L58034 30875
" />
<path d="M56109 30875
L56365 30875
" />
<path d="M58034 31315
L56365 31315
" />
<path d="M58034 30434
L58034 31315
" />
<path d="M56365 30434
L58034 30434
" />
<path d="M56365 31315
L56365 30434
" />
<path d="M49051 31315
L49051 30434
" />
<path d="M49146 31315
L49146 30434
" />
<path d="M49098 31315
L49098 30434
" />
<path d="M50740 30875
L50484 30875
" />
<path d="M48559 30875
L48815 30875
" />
<path d="M50484 31315
L48815 31315
" />
<path d="M50484 30434
L50484 31315
" />
<path d="M48815 30434
L50484 30434
" />
<path d="M48815 31315
L48815 30434
" />
<path d="M41426 31315
L41426 30434
" />
<path d="M41521 31315
L41521 30434
" />
<path d="M41473 31315
L41473 30434
" />
<path d="M43115 30875
L42859 30875
" />
<path d="M40934 30875
L41190 30875
" />
<path d="M42859 31315
L41190 31315
" />
<path d="M42859 30434
L42859 31315
" />
<path d="M41190 30434
L42859 30434
" />
<path d="M41190 31315
L41190 30434
" />
<path d="M32023 31930
L31721 31102
" />
<path d="M32111 31898
L31810 31069
" />
<path d="M32067 31914
L31765 31086
" />
<path d="M33459 30938
L33218 31026
" />
<path d="M31409 31684
L31650 31597
" />
<path d="M33369 31440
L31801 32011
" />
<path d="M33068 30612
L33369 31440
" />
<path d="M31499 31183
L33068 30612
" />
<path d="M31801 32011
L31499 31183
" />
<path d="M24848 34455
L24546 33627
" />
<path d="M24936 34423
L24635 33594
" />
<path d="M24892 34439
L24590 33611
" />
<path d="M26284 33463
L26043 33551
" />
<path d="M24234 34209
L24475 34122
" />
<path d="M26194 33965
L24626 34536
" />
<path d="M25893 33137
L26194 33965
" />
<path d="M24324 33708
L25893 33137
" />
<path d="M24626 34536
L24324 33708
" />
<path d="M17778 37082
L17477 36253
" />
<path d="M17867 37049
L17566 36221
" />
<path d="M17823 37065
L17521 36237
" />
<path d="M19215 36090
L18974 36177
" />
<path d="M17165 36836
L17406 36748
" />
<path d="M19125 36591
L17556 37162
" />
<path d="M18823 35763
L19125 36591
" />
<path d="M17255 36334
L18823 35763
" />
<path d="M17556 37162
L17255 36334
" />
</g>
<g style="fill:#000000; fill-opacity:0.0; 
stroke:#000000; stroke-width:59.0551; stroke-opacity:1; 
stroke-linecap:round; stroke-linejoin:round;">
<text x="57350" y="62231.5"
transform="scale(-1 1) translate(-114700.000000 0)"
textLength="1066.84" font-size="524.934" lengthAdjust="spacingAndGlyphs"
text-anchor="middle" opacity="0">D29</text>
<path d="M57828 62212
L57828 61819
L57734 61819
L57678 61837
L57640 61875
L57621 61912
L57603 61987
L57603 62044
L57621 62119
L57640 62156
L57678 62194
L57734 62212
L57828 62212
" />
<path d="M57453 61856
L57434 61837
L57396 61819
L57303 61819
L57265 61837
L57246 61856
L57228 61894
L57228 61931
L57246 61987
L57471 62212
L57228 62212
" />
<path d="M57040 62212
L56965 62212
L56928 62194
L56909 62175
L56871 62119
L56853 62044
L56853 61894
L56871 61856
L56890 61837
L56928 61819
L57003 61819
L57040 61837
L57059 61856
L57078 61894
L57078 61987
L57059 62025
L57040 62044
L57003 62062
L56928 62062
L56890 62044
L56871 62025
L56853 61987
" />
<text x="55850" y="62105.5"
transform="scale(-1 1) translate(-111700.000000 0)"
textLength="316.929" font-size="524.934" lengthAdjust="spacingAndGlyphs"
text-anchor="middle" opacity="0">K</text>
<path d="M55953 62086
L55953 61693
" />
<path d="M55728 62086
L55896 61861
" />
<path d="M55728 61693
L55953 61918
" />
<text x="43225" y="62281.5"
transform="scale(-1 1) translate(-86450.000000 0)"
textLength="1066.84" font-size="524.934" lengthAdjust="spacingAndGlyphs"
text-anchor="middle" opacity="0">D28</text>
<path d="M43703 62262
L43703 61869
L43609 61869
L43553 61887
L43515 61925
L43496 61962
L43478 62037
L43478 62094
L43496 62169
L43515 62206
L43553 62244
L43609 62262
L43703 62262
" />
<path d="M43328 61906
L43309 61887
L43271 61869
L43178 61869
L43140 61887
L43121 61906
L43103 61944
L43103 61981
L43121 62037
L43346 62262
L43103 62262
" />
<path d="M42878 62037
L42915 62019
L42934 62000
L42953 61962
L42953 61944
L42934 61906
L42915 61887
L42878 61869
L42803 61869
L42765 61887
L42746 61906
L42728 61944
L42728 61962
L42746 62000
L42765 62019
L42803 62037
L42878 62037
L42915 62056
L42934 62075
L42953 62112
L42953 62187
L42934 62225
L42915 62244
L42878 62262
L42803 62262
L42765 62244
L42746 62225
L42728 62187
L42728 62112
L42746 62075
L42765 62056
L42803 62037
" />
<text x="41725" y="62155.5"
transform="scale(-1 1) translate(-83450.000000 0)"
textLength="316.929" font-size="524.934" lengthAdjust="spacingAndGlyphs"
text-anchor="middle" opacity="0">K</text>
<path d="M41828 62136
L41828 61743
" />
<path d="M41603 62136
L41771 61911
" />
<path d="M41603 61743
L41828 61968
" />
<g transform="rotate(-20 34245 64096.3)">
<text x="34245" y="64293.1"
transform="scale(-1 1) translate(-68490.009449 0)"
textLength="1066.84" font-size="524.934" lengthAdjust="spacingAndGlyphs"
text-anchor="middle" opacity="0">D27</text>
</g>
<path d="M34755 64100
L34620 63730
L34532 63762
L34485 63799
L34463 63847
L34458 63888
L34466 63965
L34486 64018
L34529 64082
L34559 64111
L34607 64133
L34667 64132
L34755 64100
" />
<path d="M34280 63893
L34256 63882
L34215 63877
L34127 63909
L34098 63940
L34087 63964
L34082 64005
L34095 64041
L34132 64087
L34420 64221
L34191 64305
" />
<path d="M33933 63980
L33686 64070
L33980 64382
" />
<g transform="rotate(-20 32792.4 64490.9)">
<text x="32792.4" y="64687.8"
transform="scale(-1 1) translate(-65584.752756 0)"
textLength="316.929" font-size="524.934" lengthAdjust="spacingAndGlyphs"
text-anchor="middle" opacity="0">K</text>
</g>
<path d="M32950 64623
L32815 64253
" />
<path d="M32738 64699
L32820 64430
" />
<path d="M32604 64330
L32892 64464
" />
<g transform="rotate(-20 25325.9 67197.3)">
<text x="25325.9" y="67394.2"
transform="scale(-1 1) translate(-50651.853543 0)"
textLength="1066.84" font-size="524.934" lengthAdjust="spacingAndGlyphs"
text-anchor="middle" opacity="0">D26</text>
</g>
<path d="M25836 67201
L25701 66831
L25613 66863
L25566 66900
L25544 66948
L25539 66989
L25547 67066
L25566 67119
L25610 67183
L25640 67212
L25688 67234
L25747 67233
L25836 67201
" />
<path d="M25361 66994
L25337 66983
L25296 66978
L25208 67010
L25179 67041
L25168 67065
L25163 67106
L25176 67142
L25213 67188
L25501 67323
L25272 67406
" />
<path d="M24820 67151
L24891 67126
L24932 67130
L24956 67142
L25011 67182
L25054 67246
L25105 67387
L25100 67428
L25089 67452
L25060 67483
L24990 67508
L24948 67504
L24924 67492
L24894 67464
L24862 67376
L24867 67334
L24878 67310
L24907 67279
L24977 67254
L25019 67259
L25043 67270
L25073 67299
" />
<g transform="rotate(-20 23873.3 67592)">
<text x="23873.3" y="67788.8"
transform="scale(-1 1) translate(-47746.596850 0)"
textLength="316.929" font-size="524.934" lengthAdjust="spacingAndGlyphs"
text-anchor="middle" opacity="0">K</text>
</g>
<path d="M24031 67724
L23896 67354
" />
<path d="M23819 67801
L23901 67531
" />
<path d="M23685 67431
L23973 67565
" />
<text x="66575" y="54681.5"
transform="scale(-1 1) translate(-133150.000000 0)"
textLength="1066.84" font-size="524.934" lengthAdjust="spacingAndGlyphs"
text-anchor="middle" opacity="0">D25</text>
<path d="M67053 54662
L67053 54269
L66959 54269
L66903 54287
L66865 54325
L66846 54362
L66828 54437
L66828 54494
L66846 54569
L66865 54606
L66903 54644
L66959 54662
L67053 54662
" />
<path d="M66678 54306
L66659 54287
L66621 54269
L66528 54269
L66490 54287
L66471 54306
L66453 54344
L66453 54381
L66471 54437
L66696 54662
L66453 54662
" />
<path d="M66096 54269
L66284 54269
L66303 54456
L66284 54437
L66246 54419
L66153 54419
L66115 54437
L66096 54456
L66078 54494
L66078 54587
L66096 54625
L66115 54644
L66153 54662
L66246 54662
L66284 54644
L66303 54625
" />
<text x="65075" y="54555.5"
transform="scale(-1 1) translate(-130150.000000 0)"
textLength="316.929" font-size="524.934" lengthAdjust="spacingAndGlyphs"
text-anchor="middle" opacity="0">K</text>
<path d="M65178 54536
L65178 54143
" />
<path d="M64953 54536
L65121 54311
" />
<path d="M64953 54143
L65178 54368
" />
<text x="58975" y="54681.5"
transform="scale(-1 1) translate(-117950.000000 0)"
textLength="1066.84" font-size="524.934" lengthAdjust="spacingAndGlyphs"
text-anchor="middle" opacity="0">D24</text>
<path d="M59453 54662
L59453 54269
L59359 54269
L59303 54287
L59265 54325
L59246 54362
L59228 54437
L59228 54494
L59246 54569
L59265 54606
L59303 54644
L59359 54662
L59453 54662
" />
<path d="M59078 54306
L59059 54287
L59021 54269
L58928 54269
L58890 54287
L58871 54306
L58853 54344
L58853 54381
L58871 54437
L59096 54662
L58853 54662
" />
<path d="M58515 54400
L58515 54662
" />
<path d="M58609 54250
L58703 54531
L58459 54531
" />
<text x="57475" y="54555.5"
transform="scale(-1 1) translate(-114950.000000 0)"
textLength="316.929" font-size="524.934" lengthAdjust="spacingAndGlyphs"
text-anchor="middle" opacity="0">K</text>
<path d="M57578 54536
L57578 54143
" />
<path d="M57353 54536
L57521 54311
" />
<path d="M57353 54143
L57578 54368
" />
<text x="51400" y="54681.5"
transform="scale(-1 1) translate(-102800.000000 0)"
textLength="1066.84" font-size="524.934" lengthAdjust="spacingAndGlyphs"
text-anchor="middle" opacity="0">D23</text>
<path d="M51878 54662
L51878 54269
L51784 54269
L51728 54287
L51690 54325
L51671 54362
L51653 54437
L51653 54494
L51671 54569
L51690 54606
L51728 54644
L51784 54662
L51878 54662
" />
<path d="M51503 54306
L51484 54287
L51446 54269
L51353 54269
L51315 54287
L51296 54306
L51278 54344
L51278 54381
L51296 54437
L51521 54662
L51278 54662
" />
<path d="M51146 54269
L50903 54269
L51034 54419
L50978 54419
L50940 54437
L50921 54456
L50903 54494
L50903 54587
L50921 54625
L50940 54644
L50978 54662
L51090 54662
L51128 54644
L51146 54625
" />
<text x="49900" y="54555.5"
transform="scale(-1 1) translate(-99800.000000 0)"
textLength="316.929" font-size="524.934" lengthAdjust="spacingAndGlyphs"
text-anchor="middle" opacity="0">K</text>
<path d="M50003 54536
L50003 54143
" />
<path d="M49778 54536
L49946 54311
" />
<path d="M49778 54143
L50003 54368
" />
<text x="43825" y="54681.5"
transform="scale(-1 1) translate(-87650.000000 0)"
textLength="1066.84" font-size="524.934" lengthAdjust="spacingAndGlyphs"
text-anchor="middle" opacity="0">D22</text>
<path d="M44303 54662
L44303 54269
L44209 54269
L44153 54287
L44115 54325
L44096 54362
L44078 54437
L44078 54494
L44096 54569
L44115 54606
L44153 54644
L44209 54662
L44303 54662
" />
<path d="M43928 54306
L43909 54287
L43871 54269
L43778 54269
L43740 54287
L43721 54306
L43703 54344
L43703 54381
L43721 54437
L43946 54662
L43703 54662
" />
<path d="M43553 54306
L43534 54287
L43496 54269
L43403 54269
L43365 54287
L43346 54306
L43328 54344
L43328 54381
L43346 54437
L43571 54662
L43328 54662
" />
<text x="42325" y="54555.5"
transform="scale(-1 1) translate(-84650.000000 0)"
textLength="316.929" font-size="524.934" lengthAdjust="spacingAndGlyphs"
text-anchor="middle" opacity="0">K</text>
<path d="M42428 54536
L42428 54143
" />
<path d="M42203 54536
L42371 54311
" />
<path d="M42203 54143
L42428 54368
" />
<g transform="rotate(-20 36025.9 55347.3)">
<text x="36025.9" y="55544.2"
transform="scale(-1 1) translate(-72051.853543 0)"
textLength="1066.84" font-size="524.934" lengthAdjust="spacingAndGlyphs"
text-anchor="middle" opacity="0">D21</text>
</g>
<path d="M36536 55351
L36401 54981
L36313 55013
L36266 55050
L36244 55098
L36239 55139
L36247 55216
L36266 55269
L36310 55333
L36340 55362
L36388 55384
L36447 55383
L36536 55351
" />
<path d="M36061 55144
L36037 55133
L35996 55128
L35908 55160
L35879 55191
L35868 55215
L35863 55256
L35876 55292
L35913 55338
L36201 55473
L35972 55556
" />
<path d="M35619 55684
L35831 55607
" />
<path d="M35725 55646
L35591 55276
L35645 55316
L35693 55338
L35735 55343
" />
<g transform="rotate(-20 34573.3 55742)">
<text x="34573.3" y="55938.8"
transform="scale(-1 1) translate(-69146.596850 0)"
textLength="316.929" font-size="524.934" lengthAdjust="spacingAndGlyphs"
text-anchor="middle" opacity="0">K</text>
</g>
<path d="M34731 55874
L34596 55504
" />
<path d="M34519 55951
L34601 55681
" />
<path d="M34385 55581
L34673 55715
" />
<g transform="rotate(-20 24425.9 59447.3)">
<text x="24425.9" y="59644.2"
transform="scale(-1 1) translate(-48851.853543 0)"
textLength="1066.84" font-size="524.934" lengthAdjust="spacingAndGlyphs"
text-anchor="middle" opacity="0">D20</text>
</g>
<path d="M24936 59451
L24801 59081
L24713 59113
L24666 59150
L24644 59198
L24639 59239
L24647 59316
L24666 59369
L24710 59433
L24740 59462
L24788 59484
L24847 59483
L24936 59451
" />
<path d="M24461 59244
L24437 59233
L24396 59228
L24308 59260
L24279 59291
L24268 59315
L24263 59356
L24276 59392
L24313 59438
L24601 59573
L24372 59656
" />
<path d="M24008 59369
L23973 59382
L23944 59413
L23933 59437
L23928 59478
L23936 59555
L23968 59643
L24011 59707
L24042 59736
L24066 59747
L24108 59752
L24143 59739
L24172 59709
L24183 59685
L24188 59643
L24180 59566
L24148 59478
L24104 59414
L24074 59385
L24050 59374
L24008 59369
" />
<g transform="rotate(-20 22973.3 59842)">
<text x="22973.3" y="60038.8"
transform="scale(-1 1) translate(-45946.596850 0)"
textLength="316.929" font-size="524.934" lengthAdjust="spacingAndGlyphs"
text-anchor="middle" opacity="0">K</text>
</g>
<path d="M23131 59974
L22996 59604
" />
<path d="M22919 60051
L23001 59781
" />
<path d="M22785 59681
L23073 59815
" />
<text x="62825" y="47081.5"
transform="scale(-1 1) translate(-125650.000000 0)"
textLength="1066.84" font-size="524.934" lengthAdjust="spacingAndGlyphs"
text-anchor="middle" opacity="0">D19</text>
<path d="M63303 47062
L63303 46669
L63209 46669
L63153 46687
L63115 46725
L63096 46762
L63078 46837
L63078 46894
L63096 46969
L63115 47006
L63153 47044
L63209 47062
L63303 47062
" />
<path d="M62703 47062
L62928 47062
" />
<path d="M62815 47062
L62815 46669
L62853 46725
L62890 46762
L62928 46781
" />
<path d="M62515 47062
L62440 47062
L62403 47044
L62384 47025
L62346 46969
L62328 46894
L62328 46744
L62346 46706
L62365 46687
L62403 46669
L62478 46669
L62515 46687
L62534 46706
L62553 46744
L62553 46837
L62534 46875
L62515 46894
L62478 46912
L62403 46912
L62365 46894
L62346 46875
L62328 46837
" />
<text x="61325" y="46955.5"
transform="scale(-1 1) translate(-122650.000000 0)"
textLength="316.929" font-size="524.934" lengthAdjust="spacingAndGlyphs"
text-anchor="middle" opacity="0">K</text>
<path d="M61428 46936
L61428 46543
" />
<path d="M61203 46936
L61371 46711
" />
<path d="M61203 46543
L61428 46768
" />
<text x="55250" y="47106.5"
transform="scale(-1 1) translate(-110500.000000 0)"
textLength="1066.84" font-size="524.934" lengthAdjust="spacingAndGlyphs"
text-anchor="middle" opacity="0">D18</text>
<path d="M55728 47087
L55728 46694
L55634 46694
L55578 46712
L55540 46750
L55521 46787
L55503 46862
L55503 46919
L55521 46994
L55540 47031
L55578 47069
L55634 47087
L55728 47087
" />
<path d="M55128 47087
L55353 47087
" />
<path d="M55240 47087
L55240 46694
L55278 46750
L55315 46787
L55353 46806
" />
<path d="M54903 46862
L54940 46844
L54959 46825
L54978 46787
L54978 46769
L54959 46731
L54940 46712
L54903 46694
L54828 46694
L54790 46712
L54771 46731
L54753 46769
L54753 46787
L54771 46825
L54790 46844
L54828 46862
L54903 46862
L54940 46881
L54959 46900
L54978 46937
L54978 47012
L54959 47050
L54940 47069
L54903 47087
L54828 47087
L54790 47069
L54771 47050
L54753 47012
L54753 46937
L54771 46900
L54790 46881
L54828 46862
" />
<text x="53750" y="46980.5"
transform="scale(-1 1) translate(-107500.000000 0)"
textLength="316.929" font-size="524.934" lengthAdjust="spacingAndGlyphs"
text-anchor="middle" opacity="0">K</text>
<path d="M53853 46961
L53853 46568
" />
<path d="M53628 46961
L53796 46736
" />
<path d="M53628 46568
L53853 46793
" />
<text x="47675" y="47106.5"
transform="scale(-1 1) translate(-95350.000000 0)"
textLength="1066.84" font-size="524.934" lengthAdjust="spacingAndGlyphs"
text-anchor="middle" opacity="0">D17</text>
<path d="M48153 47087
L48153 46694
L48059 46694
L48003 46712
L47965 46750
L47946 46787
L47928 46862
L47928 46919
L47946 46994
L47965 47031
L48003 47069
L48059 47087
L48153 47087
" />
<path d="M47553 47087
L47778 47087
" />
<path d="M47665 47087
L47665 46694
L47703 46750
L47740 46787
L47778 46806
" />
<path d="M47421 46694
L47159 46694
L47328 47087
" />
<text x="46175" y="46980.5"
transform="scale(-1 1) translate(-92350.000000 0)"
textLength="316.929" font-size="524.934" lengthAdjust="spacingAndGlyphs"
text-anchor="middle" opacity="0">K</text>
<path d="M46278 46961
L46278 46568
" />
<path d="M46053 46961
L46221 46736
" />
<path d="M46053 46568
L46278 46793
" />
<text x="40100" y="47106.5"
transform="scale(-1 1) translate(-80200.000000 0)"
textLength="1066.84" font-size="524.934" lengthAdjust="spacingAndGlyphs"
text-anchor="middle" opacity="0">D16</text>
<path d="M40578 47087
L40578 46694
L40484 46694
L40428 46712
L40390 46750
L40371 46787
L40353 46862
L40353 46919
L40371 46994
L40390 47031
L40428 47069
L40484 47087
L40578 47087
" />
<path d="M39978 47087
L40203 47087
" />
<path d="M40090 47087
L40090 46694
L40128 46750
L40165 46787
L40203 46806
" />
<path d="M39640 46694
L39715 46694
L39753 46712
L39771 46731
L39809 46787
L39828 46862
L39828 47012
L39809 47050
L39790 47069
L39753 47087
L39678 47087
L39640 47069
L39621 47050
L39603 47012
L39603 46919
L39621 46881
L39640 46862
L39678 46844
L39753 46844
L39790 46862
L39809 46881
L39828 46919
" />
<text x="38600" y="46980.5"
transform="scale(-1 1) translate(-77200.000000 0)"
textLength="316.929" font-size="524.934" lengthAdjust="spacingAndGlyphs"
text-anchor="middle" opacity="0">K</text>
<path d="M38703 46961
L38703 46568
" />
<path d="M38478 46961
L38646 46736
" />
<path d="M38478 46568
L38703 46793
" />
<g transform="rotate(-20 32800.9 48197.3)">
<text x="32800.9" y="48394.2"
transform="scale(-1 1) translate(-65601.853543 0)"
textLength="1066.84" font-size="524.934" lengthAdjust="spacingAndGlyphs"
text-anchor="middle" opacity="0">D15</text>
</g>
<path d="M33311 48201
L33176 47831
L33088 47863
L33041 47900
L33019 47948
L33014 47989
L33022 48066
L33041 48119
L33085 48183
L33115 48212
L33163 48234
L33222 48233
L33311 48201
" />
<path d="M32747 48406
L32958 48329
" />
<path d="M32853 48367
L32718 47997
L32772 48037
L32820 48060
L32862 48065
" />
<path d="M32277 48158
L32454 48094
L32535 48263
L32511 48252
L32470 48247
L32382 48279
L32353 48310
L32342 48334
L32337 48376
L32369 48464
L32399 48492
L32423 48504
L32465 48508
L32553 48476
L32582 48446
L32593 48422
" />
<g transform="rotate(-20 31348.3 48592)">
<text x="31348.3" y="48788.8"
transform="scale(-1 1) translate(-62696.596850 0)"
textLength="316.929" font-size="524.934" lengthAdjust="spacingAndGlyphs"
text-anchor="middle" opacity="0">K</text>
</g>
<path d="M31506 48724
L31371 48354
" />
<path d="M31294 48801
L31376 48531
" />
<path d="M31160 48431
L31448 48565
" />
<g transform="rotate(-20 22975.9 51697.3)">
<text x="22975.9" y="51894.2"
transform="scale(-1 1) translate(-45951.853543 0)"
textLength="1066.84" font-size="524.934" lengthAdjust="spacingAndGlyphs"
text-anchor="middle" opacity="0">D14</text>
</g>
<path d="M23486 51701
L23351 51331
L23263 51363
L23216 51400
L23194 51448
L23189 51489
L23197 51566
L23216 51619
L23260 51683
L23290 51712
L23338 51734
L23397 51733
L23486 51701
" />
<path d="M22922 51906
L23133 51829
" />
<path d="M23028 51867
L22893 51497
L22947 51537
L22995 51560
L23037 51565
" />
<path d="M22515 51775
L22605 52021
" />
<path d="M22552 51602
L22736 51834
L22507 51917
" />
<g transform="rotate(-20 21523.3 52092)">
<text x="21523.3" y="52288.8"
transform="scale(-1 1) translate(-43046.596850 0)"
textLength="316.929" font-size="524.934" lengthAdjust="spacingAndGlyphs"
text-anchor="middle" opacity="0">K</text>
</g>
<path d="M21681 52224
L21546 51854
" />
<path d="M21469 52301
L21551 52031
" />
<path d="M21335 51931
L21623 52065
" />
<text x="60975" y="39506.5"
transform="scale(-1 1) translate(-121950.000000 0)"
textLength="1066.84" font-size="524.934" lengthAdjust="spacingAndGlyphs"
text-anchor="middle" opacity="0">D13</text>
<path d="M61453 39487
L61453 39094
L61359 39094
L61303 39112
L61265 39150
L61246 39187
L61228 39262
L61228 39319
L61246 39394
L61265 39431
L61303 39469
L61359 39487
L61453 39487
" />
<path d="M60853 39487
L61078 39487
" />
<path d="M60965 39487
L60965 39094
L61003 39150
L61040 39187
L61078 39206
" />
<path d="M60721 39094
L60478 39094
L60609 39244
L60553 39244
L60515 39262
L60496 39281
L60478 39319
L60478 39412
L60496 39450
L60515 39469
L60553 39487
L60665 39487
L60703 39469
L60721 39450
" />
<text x="59475" y="39380.5"
transform="scale(-1 1) translate(-118950.000000 0)"
textLength="316.929" font-size="524.934" lengthAdjust="spacingAndGlyphs"
text-anchor="middle" opacity="0">K</text>
<path d="M59578 39361
L59578 38968
" />
<path d="M59353 39361
L59521 39136
" />
<path d="M59353 38968
L59578 39193
" />
<text x="53375" y="39506.5"
transform="scale(-1 1) translate(-106750.000000 0)"
textLength="1066.84" font-size="524.934" lengthAdjust="spacingAndGlyphs"
text-anchor="middle" opacity="0">D12</text>
<path d="M53853 39487
L53853 39094
L53759 39094
L53703 39112
L53665 39150
L53646 39187
L53628 39262
L53628 39319
L53646 39394
L53665 39431
L53703 39469
L53759 39487
L53853 39487
" />
<path d="M53253 39487
L53478 39487
" />
<path d="M53365 39487
L53365 39094
L53403 39150
L53440 39187
L53478 39206
" />
<path d="M53103 39131
L53084 39112
L53046 39094
L52953 39094
L52915 39112
L52896 39131
L52878 39169
L52878 39206
L52896 39262
L53121 39487
L52878 39487
" />
<text x="51875" y="39380.5"
transform="scale(-1 1) translate(-103750.000000 0)"
textLength="316.929" font-size="524.934" lengthAdjust="spacingAndGlyphs"
text-anchor="middle" opacity="0">K</text>
<path d="M51978 39361
L51978 38968
" />
<path d="M51753 39361
L51921 39136
" />
<path d="M51753 38968
L51978 39193
" />
<text x="45825" y="39506.5"
transform="scale(-1 1) translate(-91650.000000 0)"
textLength="1066.84" font-size="524.934" lengthAdjust="spacingAndGlyphs"
text-anchor="middle" opacity="0">D11</text>
<path d="M46303 39487
L46303 39094
L46209 39094
L46153 39112
L46115 39150
L46096 39187
L46078 39262
L46078 39319
L46096 39394
L46115 39431
L46153 39469
L46209 39487
L46303 39487
" />
<path d="M45703 39487
L45928 39487
" />
<path d="M45815 39487
L45815 39094
L45853 39150
L45890 39187
L45928 39206
" />
<path d="M45328 39487
L45553 39487
" />
<path d="M45440 39487
L45440 39094
L45478 39150
L45515 39187
L45553 39206
" />
<text x="44325" y="39380.5"
transform="scale(-1 1) translate(-88650.000000 0)"
textLength="316.929" font-size="524.934" lengthAdjust="spacingAndGlyphs"
text-anchor="middle" opacity="0">K</text>
<path d="M44428 39361
L44428 38968
" />
<path d="M44203 39361
L44371 39136
" />
<path d="M44203 38968
L44428 39193
" />
<text x="38225" y="39506.5"
transform="scale(-1 1) translate(-76450.000000 0)"
textLength="1066.84" font-size="524.934" lengthAdjust="spacingAndGlyphs"
text-anchor="middle" opacity="0">D10</text>
<path d="M38703 39487
L38703 39094
L38609 39094
L38553 39112
L38515 39150
L38496 39187
L38478 39262
L38478 39319
L38496 39394
L38515 39431
L38553 39469
L38609 39487
L38703 39487
" />
<path d="M38103 39487
L38328 39487
" />
<path d="M38215 39487
L38215 39094
L38253 39150
L38290 39187
L38328 39206
" />
<path d="M37859 39094
L37821 39094
L37784 39112
L37765 39131
L37746 39169
L37728 39244
L37728 39337
L37746 39412
L37765 39450
L37784 39469
L37821 39487
L37859 39487
L37896 39469
L37915 39450
L37934 39412
L37953 39337
L37953 39244
L37934 39169
L37915 39131
L37896 39112
L37859 39094
" />
<text x="36725" y="39380.5"
transform="scale(-1 1) translate(-73450.000000 0)"
textLength="316.929" font-size="524.934" lengthAdjust="spacingAndGlyphs"
text-anchor="middle" opacity="0">K</text>
<path d="M36828 39361
L36828 38968
" />
<path d="M36603 39361
L36771 39136
" />
<path d="M36603 38968
L36828 39193
" />
<g transform="rotate(-20 30720 40871.3)">
<text x="30720" y="41068.1"
transform="scale(-1 1) translate(-61440.009449 0)"
textLength="691.882" font-size="524.934" lengthAdjust="spacingAndGlyphs"
text-anchor="middle" opacity="0">D9</text>
</g>
<path d="M31053 40939
L30919 40569
L30831 40601
L30784 40638
L30762 40686
L30757 40727
L30765 40804
L30784 40857
L30828 40921
L30858 40950
L30906 40972
L30965 40971
L31053 40939
" />
<path d="M30666 41080
L30595 41105
L30554 41101
L30530 41089
L30475 41049
L30432 40985
L30381 40844
L30386 40803
L30397 40779
L30426 40748
L30496 40723
L30538 40727
L30562 40739
L30592 40768
L30624 40856
L30619 40897
L30608 40921
L30579 40952
L30509 40977
L30467 40973
L30443 40961
L30413 40933
" />
<g transform="rotate(-20 29267.4 41265.9)">
<text x="29267.4" y="41462.8"
transform="scale(-1 1) translate(-58534.752756 0)"
textLength="316.929" font-size="524.934" lengthAdjust="spacingAndGlyphs"
text-anchor="middle" opacity="0">K</text>
</g>
<path d="M29425 41398
L29290 41028
" />
<path d="M29213 41474
L29295 41205
" />
<path d="M29079 41105
L29367 41239
" />
<g transform="rotate(-20 21850.9 44097.3)">
<text x="21850.9" y="44294.2"
transform="scale(-1 1) translate(-43701.853543 0)"
textLength="691.882" font-size="524.934" lengthAdjust="spacingAndGlyphs"
text-anchor="middle" opacity="0">D8</text>
</g>
<path d="M22184 44165
L22050 43795
L21962 43827
L21915 43864
L21893 43912
L21888 43953
L21896 44030
L21915 44083
L21959 44147
L21989 44176
L22037 44198
L22096 44197
L22184 44165
" />
<path d="M21685 44107
L21713 44077
L21725 44053
L21729 44011
L21723 43994
L21693 43965
L21669 43954
L21627 43949
L21556 43974
L21528 44005
L21516 44029
L21512 44071
L21518 44088
L21549 44117
L21573 44128
L21614 44133
L21685 44107
L21726 44112
L21750 44123
L21781 44152
L21806 44223
L21802 44264
L21790 44288
L21762 44319
L21691 44344
L21649 44340
L21625 44328
L21595 44300
L21569 44229
L21574 44187
L21585 44163
L21614 44133
" />
<g transform="rotate(-20 20398.3 44492)">
<text x="20398.3" y="44688.8"
transform="scale(-1 1) translate(-40796.596850 0)"
textLength="316.929" font-size="524.934" lengthAdjust="spacingAndGlyphs"
text-anchor="middle" opacity="0">K</text>
</g>
<path d="M20556 44624
L20421 44254
" />
<path d="M20344 44701
L20426 44431
" />
<path d="M20210 44331
L20498 44465
" />
<text x="64825" y="31906.5"
transform="scale(-1 1) translate(-129650.000000 0)"
textLength="691.882" font-size="524.934" lengthAdjust="spacingAndGlyphs"
text-anchor="middle" opacity="0">D7</text>
<path d="M65115 31887
L65115 31494
L65021 31494
L64965 31512
L64928 31550
L64909 31587
L64890 31662
L64890 31719
L64909 31794
L64928 31831
L64965 31869
L65021 31887
L65115 31887
" />
<path d="M64759 31494
L64496 31494
L64665 31887
" />
<text x="63325" y="31780.5"
transform="scale(-1 1) translate(-126650.000000 0)"
textLength="316.929" font-size="524.934" lengthAdjust="spacingAndGlyphs"
text-anchor="middle" opacity="0">K</text>
<path d="M63428 31761
L63428 31368
" />
<path d="M63203 31761
L63371 31536
" />
<path d="M63203 31368
L63428 31593
" />
<text x="57200" y="31906.5"
transform="scale(-1 1) translate(-114400.000000 0)"
textLength="691.882" font-size="524.934" lengthAdjust="spacingAndGlyphs"
text-anchor="middle" opacity="0">D6</text>
<path d="M57490 31887
L57490 31494
L57396 31494
L57340 31512
L57303 31550
L57284 31587
L57265 31662
L57265 31719
L57284 31794
L57303 31831
L57340 31869
L57396 31887
L57490 31887
" />
<path d="M56928 31494
L57003 31494
L57040 31512
L57059 31531
L57096 31587
L57115 31662
L57115 31812
L57096 31850
L57078 31869
L57040 31887
L56965 31887
L56928 31869
L56909 31850
L56890 31812
L56890 31719
L56909 31681
L56928 31662
L56965 31644
L57040 31644
L57078 31662
L57096 31681
L57115 31719
" />
<text x="55700" y="31780.5"
transform="scale(-1 1) translate(-111400.000000 0)"
textLength="316.929" font-size="524.934" lengthAdjust="spacingAndGlyphs"
text-anchor="middle" opacity="0">K</text>
<path d="M55803 31761
L55803 31368
" />
<path d="M55578 31761
L55746 31536
" />
<path d="M55578 31368
L55803 31593
" />
<text x="49650" y="31906.5"
transform="scale(-1 1) translate(-99300.000000 0)"
textLength="691.882" font-size="524.934" lengthAdjust="spacingAndGlyphs"
text-anchor="middle" opacity="0">D5</text>
<path d="M49940 31887
L49940 31494
L49846 31494
L49790 31512
L49753 31550
L49734 31587
L49715 31662
L49715 31719
L49734 31794
L49753 31831
L49790 31869
L49846 31887
L49940 31887
" />
<path d="M49359 31494
L49546 31494
L49565 31681
L49546 31662
L49509 31644
L49415 31644
L49378 31662
L49359 31681
L49340 31719
L49340 31812
L49359 31850
L49378 31869
L49415 31887
L49509 31887
L49546 31869
L49565 31850
" />
<text x="48150" y="31780.5"
transform="scale(-1 1) translate(-96300.000000 0)"
textLength="316.929" font-size="524.934" lengthAdjust="spacingAndGlyphs"
text-anchor="middle" opacity="0">K</text>
<path d="M48253 31761
L48253 31368
" />
<path d="M48028 31761
L48196 31536
" />
<path d="M48028 31368
L48253 31593
" />
<text x="42025" y="31906.5"
transform="scale(-1 1) translate(-84050.000000 0)"
textLength="691.882" font-size="524.934" lengthAdjust="spacingAndGlyphs"
text-anchor="middle" opacity="0">D4</text>
<path d="M42315 31887
L42315 31494
L42221 31494
L42165 31512
L42128 31550
L42109 31587
L42090 31662
L42090 31719
L42109 31794
L42128 31831
L42165 31869
L42221 31887
L42315 31887
" />
<path d="M41753 31625
L41753 31887
" />
<path d="M41846 31475
L41940 31756
L41696 31756
" />
<text x="40525" y="31780.5"
transform="scale(-1 1) translate(-81050.000000 0)"
textLength="316.929" font-size="524.934" lengthAdjust="spacingAndGlyphs"
text-anchor="middle" opacity="0">K</text>
<path d="M40628 31761
L40628 31368
" />
<path d="M40403 31761
L40571 31536
" />
<path d="M40403 31368
L40628 31593
" />
<g transform="rotate(-20 32720 32096.3)">
<text x="32720" y="32293.1"
transform="scale(-1 1) translate(-65440.009449 0)"
textLength="691.882" font-size="524.934" lengthAdjust="spacingAndGlyphs"
text-anchor="middle" opacity="0">D3</text>
</g>
<path d="M33053 32164
L32919 31794
L32831 31826
L32784 31863
L32762 31911
L32757 31952
L32765 32029
L32784 32082
L32828 32146
L32858 32175
L32906 32197
L32965 32196
L33053 32164
" />
<path d="M32584 31916
L32355 31999
L32530 32095
L32477 32114
L32448 32145
L32437 32169
L32432 32210
L32464 32298
L32495 32327
L32519 32339
L32560 32343
L32666 32305
L32695 32274
L32706 32250
" />
<g transform="rotate(-20 31267.4 32490.9)">
<text x="31267.4" y="32687.8"
transform="scale(-1 1) translate(-62534.752756 0)"
textLength="316.929" font-size="524.934" lengthAdjust="spacingAndGlyphs"
text-anchor="middle" opacity="0">K</text>
</g>
<path d="M31425 32623
L31290 32253
" />
<path d="M31213 32699
L31295 32430
" />
<path d="M31079 32330
L31367 32464
" />
<g transform="rotate(-20 25545 34621.3)">
<text x="25545" y="34818.1"
transform="scale(-1 1) translate(-51090.009449 0)"
textLength="691.882" font-size="524.934" lengthAdjust="spacingAndGlyphs"
text-anchor="middle" opacity="0">D2</text>
</g>
<path d="M25878 34689
L25744 34319
L25656 34351
L25609 34388
L25587 34436
L25582 34477
L25590 34554
L25609 34607
L25653 34671
L25683 34700
L25731 34722
L25790 34721
L25878 34689
" />
<path d="M25404 34482
L25380 34471
L25339 34466
L25251 34498
L25222 34529
L25211 34553
L25206 34594
L25219 34630
L25255 34676
L25544 34811
L25315 34894
" />
<g transform="rotate(-20 24092.4 35015.9)">
<text x="24092.4" y="35212.8"
transform="scale(-1 1) translate(-48184.752756 0)"
textLength="316.929" font-size="524.934" lengthAdjust="spacingAndGlyphs"
text-anchor="middle" opacity="0">K</text>
</g>
<path d="M24250 35148
L24115 34778
" />
<path d="M24038 35224
L24120 34955
" />
<path d="M23904 34855
L24192 34989
" />
<g transform="rotate(-20 18475.9 37247.3)">
<text x="18475.9" y="37444.2"
transform="scale(-1 1) translate(-36951.853543 0)"
textLength="691.882" font-size="524.934" lengthAdjust="spacingAndGlyphs"
text-anchor="middle" opacity="0">D1</text>
</g>
<path d="M18809 37315
L18675 36945
L18587 36977
L18540 37014
L18518 37062
L18513 37103
L18521 37180
L18540 37233
L18584 37297
L18614 37326
L18662 37348
L18721 37347
L18809 37315
" />
<path d="M18246 37520
L18457 37443
" />
<path d="M18351 37482
L18217 37112
L18271 37152
L18319 37174
L18361 37179
" />
<g transform="rotate(-20 17023.3 37642)">
<text x="17023.3" y="37838.8"
transform="scale(-1 1) translate(-34046.596850 0)"
textLength="316.929" font-size="524.934" lengthAdjust="spacingAndGlyphs"
text-anchor="middle" opacity="0">K</text>
</g>
<path d="M17181 37774
L17046 37404
" />
<path d="M16969 37851
L17051 37581
" />
<path d="M16835 37481
L17123 37615
" />
<g >
</g>
</g> 
</svg>
