<?xml version="1.0" standalone="no"?>
 <!DOCTYPE svg PUBLIC "-//W3C//DTD SVG 1.1//EN" 
 "http://www.w3.org/Graphics/SVG/1.1/DTD/svg11.dtd"> 
<svg
  xmlns:svg="http://www.w3.org/2000/svg"
  xmlns="http://www.w3.org/2000/svg"
  xmlns:xlink="http://www.w3.org/1999/xlink"
  version="1.1"
  width="29.700220cm" height="21.000720cm" viewBox="0 0 116930 82680">
<title>SVG Picture created as keyboard-F_SilkS.svg date 2021/08/25 15:52:55 </title>
  <desc>Picture generated by PCBNEW </desc>
<g style="fill:#000000; fill-opacity:1;stroke:#000000; stroke-opacity:1;
stroke-linecap:round; stroke-linejoin:round;"
 transform="translate(0 0) scale(1 1)">
</g>
<g style="fill:#000000; fill-opacity:0.0; 
stroke:#000000; stroke-width:-0.000393701; stroke-opacity:1; 
stroke-linecap:round; stroke-linejoin:round;">
</g>
<g style="fill:#000000; fill-opacity:0.0; 
stroke:#000000; stroke-width:59.0551; stroke-opacity:1; 
stroke-linecap:round; stroke-linejoin:round;">
<text x="69800" y="11047.2"
textLength="9806.81" font-size="524.934" lengthAdjust="spacingAndGlyphs"
text-anchor="middle" opacity="0">Project Cambrian Keyboard V1.0</text>
<path d="M65028 11028
L65028 10634
L65178 10634
L65216 10653
L65234 10672
L65253 10709
L65253 10766
L65234 10803
L65216 10822
L65178 10841
L65028 10841
" />
<path d="M65422 11028
L65422 10766
" />
<path d="M65422 10841
L65441 10803
L65459 10784
L65497 10766
L65534 10766
" />
<path d="M65722 11028
L65684 11009
L65666 10991
L65647 10953
L65647 10841
L65666 10803
L65684 10784
L65722 10766
L65778 10766
L65816 10784
L65834 10803
L65853 10841
L65853 10953
L65834 10991
L65816 11009
L65778 11028
L65722 11028
" />
<path d="M66022 10766
L66022 11103
L66003 11140
L65966 11159
L65947 11159
" />
<path d="M66022 10634
L66003 10653
L66022 10672
L66041 10653
L66022 10634
L66022 10672
" />
<path d="M66359 11009
L66322 11028
L66247 11028
L66209 11009
L66191 10972
L66191 10822
L66209 10784
L66247 10766
L66322 10766
L66359 10784
L66378 10822
L66378 10859
L66191 10897
" />
<path d="M66716 11009
L66678 11028
L66603 11028
L66566 11009
L66547 10991
L66528 10953
L66528 10841
L66547 10803
L66566 10784
L66603 10766
L66678 10766
L66716 10784
" />
<path d="M66828 10766
L66978 10766
" />
<path d="M66884 10634
L66884 10972
L66903 11009
L66940 11028
L66978 11028
" />
<path d="M67634 10991
L67615 11009
L67559 11028
L67522 11028
L67465 11009
L67428 10972
L67409 10934
L67390 10859
L67390 10803
L67409 10728
L67428 10691
L67465 10653
L67522 10634
L67559 10634
L67615 10653
L67634 10672
" />
<path d="M67972 11028
L67972 10822
L67953 10784
L67915 10766
L67840 10766
L67803 10784
" />
<path d="M67972 11009
L67934 11028
L67840 11028
L67803 11009
L67784 10972
L67784 10934
L67803 10897
L67840 10878
L67934 10878
L67972 10859
" />
<path d="M68159 11028
L68159 10766
" />
<path d="M68159 10803
L68178 10784
L68215 10766
L68272 10766
L68309 10784
L68328 10822
L68328 11028
" />
<path d="M68328 10822
L68347 10784
L68384 10766
L68440 10766
L68478 10784
L68497 10822
L68497 11028
" />
<path d="M68684 11028
L68684 10634
" />
<path d="M68684 10784
L68722 10766
L68797 10766
L68834 10784
L68853 10803
L68871 10841
L68871 10953
L68853 10991
L68834 11009
L68797 11028
L68722 11028
L68684 11009
" />
<path d="M69040 11028
L69040 10766
" />
<path d="M69040 10841
L69059 10803
L69078 10784
L69115 10766
L69153 10766
" />
<path d="M69284 11028
L69284 10766
" />
<path d="M69284 10634
L69265 10653
L69284 10672
L69303 10653
L69284 10634
L69284 10672
" />
<path d="M69640 11028
L69640 10822
L69621 10784
L69584 10766
L69509 10766
L69471 10784
" />
<path d="M69640 11009
L69603 11028
L69509 11028
L69471 11009
L69453 10972
L69453 10934
L69471 10897
L69509 10878
L69603 10878
L69640 10859
" />
<path d="M69828 10766
L69828 11028
" />
<path d="M69828 10803
L69846 10784
L69884 10766
L69940 10766
L69978 10784
L69996 10822
L69996 11028
" />
<path d="M70484 11028
L70484 10634
" />
<path d="M70709 11028
L70540 10803
" />
<path d="M70709 10634
L70484 10859
" />
<path d="M71027 11009
L70990 11028
L70915 11028
L70877 11009
L70859 10972
L70859 10822
L70877 10784
L70915 10766
L70990 10766
L71027 10784
L71046 10822
L71046 10859
L70859 10897
" />
<path d="M71177 10766
L71271 11028
" />
<path d="M71365 10766
L71271 11028
L71234 11122
L71215 11140
L71177 11159
" />
<path d="M71515 11028
L71515 10634
" />
<path d="M71515 10784
L71552 10766
L71627 10766
L71665 10784
L71684 10803
L71702 10841
L71702 10953
L71684 10991
L71665 11009
L71627 11028
L71552 11028
L71515 11009
" />
<path d="M71927 11028
L71890 11009
L71871 10991
L71852 10953
L71852 10841
L71871 10803
L71890 10784
L71927 10766
L71984 10766
L72021 10784
L72040 10803
L72059 10841
L72059 10953
L72040 10991
L72021 11009
L71984 11028
L71927 11028
" />
<path d="M72396 11028
L72396 10822
L72377 10784
L72340 10766
L72265 10766
L72227 10784
" />
<path d="M72396 11009
L72359 11028
L72265 11028
L72227 11009
L72209 10972
L72209 10934
L72227 10897
L72265 10878
L72359 10878
L72396 10859
" />
<path d="M72584 11028
L72584 10766
" />
<path d="M72584 10841
L72602 10803
L72621 10784
L72659 10766
L72696 10766
" />
<path d="M72996 11028
L72996 10634
" />
<path d="M72996 11009
L72958 11028
L72883 11028
L72846 11009
L72827 10991
L72808 10953
L72808 10841
L72827 10803
L72846 10784
L72883 10766
L72958 10766
L72996 10784
" />
<path d="M73427 10634
L73558 11028
L73690 10634
" />
<path d="M74027 11028
L73802 11028
" />
<path d="M73915 11028
L73915 10634
L73877 10691
L73840 10728
L73802 10747
" />
<path d="M74196 10991
L74215 11009
L74196 11028
L74177 11009
L74196 10991
L74196 11028
" />
<path d="M74458 10634
L74496 10634
L74533 10653
L74552 10672
L74571 10709
L74590 10784
L74590 10878
L74571 10953
L74552 10991
L74533 11009
L74496 11028
L74458 11028
L74421 11009
L74402 10991
L74383 10953
L74365 10878
L74365 10784
L74383 10709
L74402 10672
L74421 10653
L74458 10634
" />
<text x="69800" y="11696.9"
textLength="7088.4" font-size="524.934" lengthAdjust="spacingAndGlyphs"
text-anchor="middle" opacity="0">Designed by Manwoo Yi</text>
<path d="M66387 11678
L66387 11284
L66481 11284
L66537 11303
L66575 11340
L66594 11378
L66612 11453
L66612 11509
L66594 11584
L66575 11621
L66537 11659
L66481 11678
L66387 11678
" />
<path d="M66931 11659
L66894 11678
L66819 11678
L66781 11659
L66762 11621
L66762 11471
L66781 11434
L66819 11415
L66894 11415
L66931 11434
L66950 11471
L66950 11509
L66762 11546
" />
<path d="M67100 11659
L67137 11678
L67212 11678
L67250 11659
L67269 11621
L67269 11603
L67250 11565
L67212 11546
L67156 11546
L67119 11528
L67100 11490
L67100 11471
L67119 11434
L67156 11415
L67212 11415
L67250 11434
" />
<path d="M67437 11678
L67437 11415
" />
<path d="M67437 11284
L67419 11303
L67437 11321
L67456 11303
L67437 11284
L67437 11321
" />
<path d="M67794 11415
L67794 11734
L67775 11771
L67756 11790
L67719 11809
L67662 11809
L67625 11790
" />
<path d="M67794 11659
L67756 11678
L67681 11678
L67644 11659
L67625 11640
L67606 11603
L67606 11490
L67625 11453
L67644 11434
L67681 11415
L67756 11415
L67794 11434
" />
<path d="M67981 11415
L67981 11678
" />
<path d="M67981 11453
L68000 11434
L68037 11415
L68093 11415
L68131 11434
L68150 11471
L68150 11678
" />
<path d="M68487 11659
L68450 11678
L68375 11678
L68337 11659
L68318 11621
L68318 11471
L68337 11434
L68375 11415
L68450 11415
L68487 11434
L68506 11471
L68506 11509
L68318 11546
" />
<path d="M68843 11678
L68843 11284
" />
<path d="M68843 11659
L68806 11678
L68731 11678
L68693 11659
L68675 11640
L68656 11603
L68656 11490
L68675 11453
L68693 11434
L68731 11415
L68806 11415
L68843 11434
" />
<path d="M69331 11678
L69331 11284
" />
<path d="M69331 11434
L69368 11415
L69443 11415
L69481 11434
L69500 11453
L69518 11490
L69518 11603
L69500 11640
L69481 11659
L69443 11678
L69368 11678
L69331 11659
" />
<path d="M69650 11415
L69743 11678
" />
<path d="M69837 11415
L69743 11678
L69706 11771
L69687 11790
L69650 11809
" />
<path d="M70287 11678
L70287 11284
L70418 11565
L70549 11284
L70549 11678
" />
<path d="M70906 11678
L70906 11471
L70887 11434
L70849 11415
L70774 11415
L70737 11434
" />
<path d="M70906 11659
L70868 11678
L70774 11678
L70737 11659
L70718 11621
L70718 11584
L70737 11546
L70774 11528
L70868 11528
L70906 11509
" />
<path d="M71093 11415
L71093 11678
" />
<path d="M71093 11453
L71112 11434
L71149 11415
L71206 11415
L71243 11434
L71262 11471
L71262 11678
" />
<path d="M71412 11415
L71487 11678
L71562 11490
L71637 11678
L71712 11415
" />
<path d="M71918 11678
L71880 11659
L71862 11640
L71843 11603
L71843 11490
L71862 11453
L71880 11434
L71918 11415
L71974 11415
L72012 11434
L72030 11453
L72049 11490
L72049 11603
L72030 11640
L72012 11659
L71974 11678
L71918 11678
" />
<path d="M72274 11678
L72237 11659
L72218 11640
L72199 11603
L72199 11490
L72218 11453
L72237 11434
L72274 11415
L72330 11415
L72368 11434
L72387 11453
L72405 11490
L72405 11603
L72387 11640
L72368 11659
L72330 11678
L72274 11678
" />
<path d="M72949 11490
L72949 11678
" />
<path d="M72818 11284
L72949 11490
L73080 11284
" />
<path d="M73212 11678
L73212 11415
" />
<path d="M73212 11284
L73193 11303
L73212 11321
L73230 11303
L73212 11284
L73212 11321
" />
<text x="69800" y="12346.5"
textLength="6488.47" font-size="524.934" lengthAdjust="spacingAndGlyphs"
text-anchor="middle" opacity="0">Ahssarabiya! 2021.08</text>
<path d="M66669 12215
L66856 12215
" />
<path d="M66631 12327
L66762 11934
L66894 12327
" />
<path d="M67025 12327
L67025 11934
" />
<path d="M67194 12327
L67194 12121
L67175 12083
L67137 12065
L67081 12065
L67044 12083
L67025 12102
" />
<path d="M67362 12308
L67400 12327
L67475 12327
L67512 12308
L67531 12271
L67531 12252
L67512 12215
L67475 12196
L67419 12196
L67381 12177
L67362 12140
L67362 12121
L67381 12083
L67419 12065
L67475 12065
L67512 12083
" />
<path d="M67681 12308
L67719 12327
L67794 12327
L67831 12308
L67850 12271
L67850 12252
L67831 12215
L67794 12196
L67737 12196
L67700 12177
L67681 12140
L67681 12121
L67700 12083
L67737 12065
L67794 12065
L67831 12083
" />
<path d="M68187 12327
L68187 12121
L68168 12083
L68131 12065
L68056 12065
L68018 12083
" />
<path d="M68187 12308
L68150 12327
L68056 12327
L68018 12308
L68000 12271
L68000 12233
L68018 12196
L68056 12177
L68150 12177
L68187 12158
" />
<path d="M68375 12327
L68375 12065
" />
<path d="M68375 12140
L68393 12102
L68412 12083
L68450 12065
L68487 12065
" />
<path d="M68787 12327
L68787 12121
L68768 12083
L68731 12065
L68656 12065
L68618 12083
" />
<path d="M68787 12308
L68750 12327
L68656 12327
L68618 12308
L68600 12271
L68600 12233
L68618 12196
L68656 12177
L68750 12177
L68787 12158
" />
<path d="M68975 12327
L68975 11934
" />
<path d="M68975 12083
L69012 12065
L69087 12065
L69125 12083
L69143 12102
L69162 12140
L69162 12252
L69143 12290
L69125 12308
L69087 12327
L69012 12327
L68975 12308
" />
<path d="M69331 12327
L69331 12065
" />
<path d="M69331 11934
L69312 11952
L69331 11971
L69350 11952
L69331 11934
L69331 11971
" />
<path d="M69481 12065
L69575 12327
" />
<path d="M69668 12065
L69575 12327
L69537 12421
L69518 12440
L69481 12458
" />
<path d="M69987 12327
L69987 12121
L69968 12083
L69931 12065
L69856 12065
L69818 12083
" />
<path d="M69987 12308
L69949 12327
L69856 12327
L69818 12308
L69800 12271
L69800 12233
L69818 12196
L69856 12177
L69949 12177
L69987 12158
" />
<path d="M70174 12290
L70193 12308
L70174 12327
L70156 12308
L70174 12290
L70174 12327
" />
<path d="M70174 12177
L70156 11952
L70174 11934
L70193 11952
L70174 12177
L70174 11934
" />
<path d="M70643 11971
L70662 11952
L70699 11934
L70793 11934
L70831 11952
L70849 11971
L70868 12008
L70868 12046
L70849 12102
L70624 12327
L70868 12327
" />
<path d="M71112 11934
L71149 11934
L71187 11952
L71206 11971
L71224 12008
L71243 12083
L71243 12177
L71224 12252
L71206 12290
L71187 12308
L71149 12327
L71112 12327
L71074 12308
L71056 12290
L71037 12252
L71018 12177
L71018 12083
L71037 12008
L71056 11971
L71074 11952
L71112 11934
" />
<path d="M71393 11971
L71412 11952
L71449 11934
L71543 11934
L71581 11952
L71599 11971
L71618 12008
L71618 12046
L71599 12102
L71374 12327
L71618 12327
" />
<path d="M71993 12327
L71768 12327
" />
<path d="M71880 12327
L71880 11934
L71843 11990
L71805 12027
L71768 12046
" />
<path d="M72162 12290
L72180 12308
L72162 12327
L72143 12308
L72162 12290
L72162 12327
" />
<path d="M72424 11934
L72462 11934
L72499 11952
L72518 11971
L72537 12008
L72555 12083
L72555 12177
L72537 12252
L72518 12290
L72499 12308
L72462 12327
L72424 12327
L72387 12308
L72368 12290
L72349 12252
L72330 12177
L72330 12083
L72349 12008
L72368 11971
L72387 11952
L72424 11934
" />
<path d="M72780 12102
L72743 12083
L72724 12065
L72705 12027
L72705 12008
L72724 11971
L72743 11952
L72780 11934
L72855 11934
L72893 11952
L72912 11971
L72930 12008
L72930 12027
L72912 12065
L72893 12083
L72855 12102
L72780 12102
L72743 12121
L72724 12140
L72705 12177
L72705 12252
L72724 12290
L72743 12308
L72780 12327
L72855 12327
L72893 12308
L72912 12290
L72930 12252
L72930 12177
L72912 12140
L72893 12121
L72855 12102
" />
</g>
<g style="fill:#000000; fill-opacity:0.0; 
stroke:#000000; stroke-width:47.2441; stroke-opacity:1; 
stroke-linecap:round; stroke-linejoin:round;">
<path d="M71776 39176
L72300 39176
" />
<path d="M71776 39700
L71776 39176
" />
<path d="M71776 40200
L72823 40200
" />
<path d="M72823 40200
L72823 44223
" />
<path d="M71776 40200
L71776 44223
" />
<path d="M71776 44223
L72823 44223
" />
<path d="M71776 28676
L72300 28676
" />
<path d="M71776 29200
L71776 28676
" />
<path d="M71776 29700
L72823 29700
" />
<path d="M72823 29700
L72823 37723
" />
<path d="M71776 29700
L71776 37723
" />
<path d="M71776 37723
L72823 37723
" />
<path d="M62623 19523
L62100 19523
" />
<path d="M62623 19000
L62623 19523
" />
<path d="M62623 18500
L61576 18500
" />
<path d="M61576 18500
L61576 16476
" />
<path d="M62623 18500
L62623 16476
" />
<path d="M62623 16476
L61576 16476
" />
<path d="M58823 19000
L58823 19523
" />
<path d="M58823 19523
L58300 19523
" />
<path d="M57800 19523
L41776 19523
" />
<path d="M41776 18476
L41776 19523
" />
<path d="M57800 18476
L41776 18476
" />
<path d="M57800 18476
L57800 19523
" />
<path d="M41776 12000
L41776 11476
" />
<path d="M41776 11476
L42300 11476
" />
<path d="M42800 11476
L58823 11476
" />
<path d="M58823 12523
L58823 11476
" />
<path d="M42800 12523
L58823 12523
" />
<path d="M42800 12523
L42800 11476
" />
</g>
<g style="fill:#000000; fill-opacity:0.0; 
stroke:#000000; stroke-width:59.0551; stroke-opacity:1; 
stroke-linecap:round; stroke-linejoin:round;">
<text x="72300" y="38979.5"
textLength="751.687" font-size="524.934" lengthAdjust="spacingAndGlyphs"
text-anchor="middle" opacity="0">J5</text>
<path d="M72168 38567
L72168 38848
L72150 38904
L72112 38942
L72056 38960
L72018 38960
" />
<path d="M72543 38567
L72356 38567
L72337 38754
L72356 38735
L72393 38717
L72487 38717
L72524 38735
L72543 38754
L72562 38792
L72562 38885
L72543 38923
L72524 38942
L72487 38960
L72393 38960
L72356 38942
L72337 38923
" />
<text x="72300" y="28479.5"
textLength="751.687" font-size="524.934" lengthAdjust="spacingAndGlyphs"
text-anchor="middle" opacity="0">J4</text>
<path d="M72168 28067
L72168 28348
L72150 28404
L72112 28442
L72056 28460
L72018 28460
" />
<path d="M72524 28198
L72524 28460
" />
<path d="M72431 28048
L72337 28329
L72581 28329
" />
<text x="62100" y="20114.2"
textLength="751.687" font-size="524.934" lengthAdjust="spacingAndGlyphs"
text-anchor="middle" opacity="0">J3</text>
<path d="M61968 19701
L61968 19982
L61950 20039
L61912 20076
L61856 20095
L61818 20095
" />
<path d="M62118 19701
L62362 19701
L62231 19851
L62287 19851
L62324 19870
L62343 19889
L62362 19926
L62362 20020
L62343 20057
L62324 20076
L62287 20095
L62174 20095
L62137 20076
L62118 20057
" />
<g transform="rotate(-90 59390.6 19000)">
<text x="59390.6" y="19196.9"
textLength="751.687" font-size="524.934" lengthAdjust="spacingAndGlyphs"
text-anchor="middle" opacity="0">J2</text>
</g>
<path d="M59174 19131
L59456 19131
L59512 19149
L59549 19187
L59568 19243
L59568 19281
" />
<path d="M59212 18962
L59193 18943
L59174 18906
L59174 18812
L59193 18775
L59212 18756
L59249 18737
L59287 18737
L59343 18756
L59568 18981
L59568 18737
" />
<g transform="rotate(-90 41209.4 12000)">
<text x="41209.4" y="12196.9"
textLength="751.687" font-size="524.934" lengthAdjust="spacingAndGlyphs"
text-anchor="middle" opacity="0">J1</text>
</g>
<path d="M40993 12131
L41275 12131
L41331 12149
L41368 12187
L41387 12243
L41387 12281
" />
<path d="M41387 11737
L41387 11962
" />
<path d="M41387 11850
L40993 11850
L41050 11887
L41087 11925
L41106 11962
" />
<g >
</g>
</g> 
</svg>
