<?xml version="1.0" standalone="no"?>
 <!DOCTYPE svg PUBLIC "-//W3C//DTD SVG 1.1//EN" 
 "http://www.w3.org/Graphics/SVG/1.1/DTD/svg11.dtd"> 
<svg
  xmlns:svg="http://www.w3.org/2000/svg"
  xmlns="http://www.w3.org/2000/svg"
  xmlns:xlink="http://www.w3.org/1999/xlink"
  version="1.1"
  width="29.700220cm" height="21.000720cm" viewBox="0 0 116930 82680">
<title>SVG Picture created as keyboard_right-F_SilkS.svg date 2021/10/25 13:24:33 </title>
  <desc>Picture generated by PCBNEW </desc>
<g style="fill:#000000; fill-opacity:1;stroke:#000000; stroke-opacity:1;
stroke-linecap:round; stroke-linejoin:round;"
 transform="translate(0 0) scale(1 1)">
</g>
<g style="fill:#000000; fill-opacity:0.0; 
stroke:#000000; stroke-width:-0.000393701; stroke-opacity:1; 
stroke-linecap:round; stroke-linejoin:round;">
</g>
<g style="fill:#000000; fill-opacity:0.0; 
stroke:#000000; stroke-width:59.0551; stroke-opacity:1; 
stroke-linecap:round; stroke-linejoin:round;">
<text x="65400" y="16872"
textLength="6730.41" font-size="524.934" lengthAdjust="spacingAndGlyphs"
text-anchor="start" opacity="0">Project Cambrian V1.0</text>
<path d="M65532 16853
L65532 16459
L65682 16459
L65719 16478
L65738 16497
L65757 16534
L65757 16590
L65738 16628
L65719 16647
L65682 16665
L65532 16665
" />
<path d="M65925 16853
L65925 16590
" />
<path d="M65925 16665
L65944 16628
L65963 16609
L66000 16590
L66038 16590
" />
<path d="M66225 16853
L66188 16834
L66169 16815
L66150 16778
L66150 16665
L66169 16628
L66188 16609
L66225 16590
L66282 16590
L66319 16609
L66338 16628
L66357 16665
L66357 16778
L66338 16815
L66319 16834
L66282 16853
L66225 16853
" />
<path d="M66525 16590
L66525 16928
L66507 16965
L66469 16984
L66450 16984
" />
<path d="M66525 16459
L66507 16478
L66525 16497
L66544 16478
L66525 16459
L66525 16497
" />
<path d="M66863 16834
L66825 16853
L66750 16853
L66713 16834
L66694 16797
L66694 16647
L66713 16609
L66750 16590
L66825 16590
L66863 16609
L66881 16647
L66881 16684
L66694 16722
" />
<path d="M67219 16834
L67181 16853
L67106 16853
L67069 16834
L67050 16815
L67031 16778
L67031 16665
L67050 16628
L67069 16609
L67106 16590
L67181 16590
L67219 16609
" />
<path d="M67331 16590
L67481 16590
" />
<path d="M67388 16459
L67388 16797
L67406 16834
L67444 16853
L67481 16853
" />
<path d="M68138 16815
L68119 16834
L68063 16853
L68025 16853
L67969 16834
L67931 16797
L67913 16759
L67894 16684
L67894 16628
L67913 16553
L67931 16515
L67969 16478
L68025 16459
L68063 16459
L68119 16478
L68138 16497
" />
<path d="M68475 16853
L68475 16647
L68456 16609
L68419 16590
L68344 16590
L68306 16609
" />
<path d="M68475 16834
L68438 16853
L68344 16853
L68306 16834
L68288 16797
L68288 16759
L68306 16722
L68344 16703
L68438 16703
L68475 16684
" />
<path d="M68662 16853
L68662 16590
" />
<path d="M68662 16628
L68681 16609
L68719 16590
L68775 16590
L68812 16609
L68831 16647
L68831 16853
" />
<path d="M68831 16647
L68850 16609
L68887 16590
L68944 16590
L68981 16609
L69000 16647
L69000 16853
" />
<path d="M69187 16853
L69187 16459
" />
<path d="M69187 16609
L69225 16590
L69300 16590
L69337 16609
L69356 16628
L69375 16665
L69375 16778
L69356 16815
L69337 16834
L69300 16853
L69225 16853
L69187 16834
" />
<path d="M69544 16853
L69544 16590
" />
<path d="M69544 16665
L69562 16628
L69581 16609
L69619 16590
L69656 16590
" />
<path d="M69787 16853
L69787 16590
" />
<path d="M69787 16459
L69769 16478
L69787 16497
L69806 16478
L69787 16459
L69787 16497
" />
<path d="M70144 16853
L70144 16647
L70125 16609
L70087 16590
L70012 16590
L69975 16609
" />
<path d="M70144 16834
L70106 16853
L70012 16853
L69975 16834
L69956 16797
L69956 16759
L69975 16722
L70012 16703
L70106 16703
L70144 16684
" />
<path d="M70331 16590
L70331 16853
" />
<path d="M70331 16628
L70350 16609
L70387 16590
L70444 16590
L70481 16609
L70500 16647
L70500 16853
" />
<path d="M70931 16459
L71062 16853
L71193 16459
" />
<path d="M71531 16853
L71306 16853
" />
<path d="M71418 16853
L71418 16459
L71381 16515
L71343 16553
L71306 16572
" />
<path d="M71700 16815
L71718 16834
L71700 16853
L71681 16834
L71700 16815
L71700 16853
" />
<path d="M71962 16459
L72000 16459
L72037 16478
L72056 16497
L72075 16534
L72093 16609
L72093 16703
L72075 16778
L72056 16815
L72037 16834
L72000 16853
L71962 16853
L71925 16834
L71906 16815
L71887 16778
L71868 16703
L71868 16609
L71887 16534
L71906 16497
L71925 16478
L71962 16459
" />
<text x="65400" y="17521.7"
textLength="4988.66" font-size="524.934" lengthAdjust="spacingAndGlyphs"
text-anchor="start" opacity="0">Manwoo Yi 2021</text>
<path d="M65532 17502
L65532 17109
L65663 17390
L65794 17109
L65794 17502
" />
<path d="M66150 17502
L66150 17296
L66132 17259
L66094 17240
L66019 17240
L65982 17259
" />
<path d="M66150 17484
L66113 17502
L66019 17502
L65982 17484
L65963 17446
L65963 17409
L65982 17371
L66019 17352
L66113 17352
L66150 17334
" />
<path d="M66338 17240
L66338 17502
" />
<path d="M66338 17277
L66357 17259
L66394 17240
L66450 17240
L66488 17259
L66507 17296
L66507 17502
" />
<path d="M66656 17240
L66731 17502
L66806 17315
L66881 17502
L66956 17240
" />
<path d="M67163 17502
L67125 17484
L67106 17465
L67088 17427
L67088 17315
L67106 17277
L67125 17259
L67163 17240
L67219 17240
L67256 17259
L67275 17277
L67294 17315
L67294 17427
L67275 17465
L67256 17484
L67219 17502
L67163 17502
" />
<path d="M67519 17502
L67481 17484
L67463 17465
L67444 17427
L67444 17315
L67463 17277
L67481 17259
L67519 17240
L67575 17240
L67613 17259
L67631 17277
L67650 17315
L67650 17427
L67631 17465
L67613 17484
L67575 17502
L67519 17502
" />
<path d="M68194 17315
L68194 17502
" />
<path d="M68063 17109
L68194 17315
L68325 17109
" />
<path d="M68456 17502
L68456 17240
" />
<path d="M68456 17109
L68438 17127
L68456 17146
L68475 17127
L68456 17109
L68456 17146
" />
<path d="M68925 17146
L68944 17127
L68981 17109
L69075 17109
L69112 17127
L69131 17146
L69150 17184
L69150 17221
L69131 17277
L68906 17502
L69150 17502
" />
<path d="M69394 17109
L69431 17109
L69469 17127
L69487 17146
L69506 17184
L69525 17259
L69525 17352
L69506 17427
L69487 17465
L69469 17484
L69431 17502
L69394 17502
L69356 17484
L69337 17465
L69319 17427
L69300 17352
L69300 17259
L69319 17184
L69337 17146
L69356 17127
L69394 17109
" />
<path d="M69675 17146
L69694 17127
L69731 17109
L69825 17109
L69862 17127
L69881 17146
L69900 17184
L69900 17221
L69881 17277
L69656 17502
L69900 17502
" />
<path d="M70275 17502
L70050 17502
" />
<path d="M70162 17502
L70162 17109
L70125 17165
L70087 17202
L70050 17221
" />
</g>
<g style="fill:#000000; fill-opacity:0.0; 
stroke:#000000; stroke-width:47.2441; stroke-opacity:1; 
stroke-linecap:round; stroke-linejoin:round;">
<path d="M11376 37723
L12423 37723
" />
<path d="M11376 33700
L11376 37723
" />
<path d="M12423 33700
L12423 37723
" />
<path d="M11376 33700
L12423 33700
" />
<path d="M11376 33200
L11376 32676
" />
<path d="M11376 32676
L11900 32676
" />
<path d="M11376 29723
L12423 29723
" />
<path d="M11376 22700
L11376 29723
" />
<path d="M12423 22700
L12423 29723
" />
<path d="M11376 22700
L12423 22700
" />
<path d="M11376 22200
L11376 21676
" />
<path d="M11376 21676
L11900 21676
" />
</g>
<g style="fill:#000000; fill-opacity:0.0; 
stroke:#000000; stroke-width:59.0551; stroke-opacity:1; 
stroke-linecap:round; stroke-linejoin:round;">
<text x="11900" y="32479.5"
textLength="751.687" font-size="524.934" lengthAdjust="spacingAndGlyphs"
text-anchor="middle" opacity="0">J2</text>
<path d="M11768 32067
L11768 32348
L11750 32404
L11712 32442
L11656 32460
L11618 32460
" />
<path d="M11937 32104
L11956 32085
L11993 32067
L12087 32067
L12124 32085
L12143 32104
L12162 32142
L12162 32179
L12143 32235
L11918 32460
L12162 32460
" />
<text x="11900" y="21479.5"
textLength="751.687" font-size="524.934" lengthAdjust="spacingAndGlyphs"
text-anchor="middle" opacity="0">J1</text>
<path d="M11768 21067
L11768 21348
L11750 21404
L11712 21442
L11656 21460
L11618 21460
" />
<path d="M12162 21460
L11937 21460
" />
<path d="M12049 21460
L12049 21067
L12012 21123
L11974 21160
L11937 21179
" />
<g >
</g>
</g> 
</svg>
