<?xml version="1.0" standalone="no"?>
 <!DOCTYPE svg PUBLIC "-//W3C//DTD SVG 1.1//EN" 
 "http://www.w3.org/Graphics/SVG/1.1/DTD/svg11.dtd"> 
<svg
  xmlns:svg="http://www.w3.org/2000/svg"
  xmlns="http://www.w3.org/2000/svg"
  xmlns:xlink="http://www.w3.org/1999/xlink"
  version="1.1"
  width="29.700220cm" height="21.000720cm" viewBox="0 0 116930 82680">
<title>SVG Picture created as keyboard_right-B_SilkS.svg date 2021/10/25 13:24:33 </title>
  <desc>Picture generated by PCBNEW </desc>
<g style="fill:#000000; fill-opacity:1;stroke:#000000; stroke-opacity:1;
stroke-linecap:round; stroke-linejoin:round;"
 transform="translate(0 0) scale(1 1)">
</g>
<g style="fill:#000000; fill-opacity:0.0; 
stroke:#000000; stroke-width:-0.000393701; stroke-opacity:1; 
stroke-linecap:round; stroke-linejoin:round;">
</g>
<g style="fill:#000000; fill-opacity:0.0; 
stroke:#000000; stroke-width:47.2441; stroke-opacity:1; 
stroke-linecap:round; stroke-linejoin:round;">
<path d="M34934 45059
L34934 45940
" />
<path d="M34934 45940
L33265 45940
" />
<path d="M33265 45940
L33265 45059
" />
<path d="M33265 45059
L34934 45059
" />
<path d="M35190 45500
L34934 45500
" />
<path d="M33009 45500
L33265 45500
" />
<path d="M34651 45059
L34651 45940
" />
<path d="M34603 45059
L34603 45940
" />
<path d="M34698 45059
L34698 45940
" />
<path d="M98759 54465
L99640 54465
" />
<path d="M99640 54465
L99640 56134
" />
<path d="M99640 56134
L98759 56134
" />
<path d="M98759 56134
L98759 54465
" />
<path d="M99200 54209
L99200 54465
" />
<path d="M99200 56390
L99200 56134
" />
<path d="M98759 54748
L99640 54748
" />
<path d="M98759 54796
L99640 54796
" />
<path d="M98759 54701
L99640 54701
" />
<path d="M67325 58358
L67023 59186
" />
<path d="M67023 59186
L65455 58615
" />
<path d="M65455 58615
L65756 57787
" />
<path d="M65756 57787
L67325 58358
" />
<path d="M67415 58859
L67174 58772
" />
<path d="M65365 58113
L65606 58201
" />
<path d="M67059 58261
L66757 59089
" />
<path d="M67014 58244
L66713 59073
" />
<path d="M67103 58277
L66801 59105
" />
<path d="M58125 55458
L57823 56286
" />
<path d="M57823 56286
L56255 55715
" />
<path d="M56255 55715
L56556 54887
" />
<path d="M56556 54887
L58125 55458
" />
<path d="M58215 55959
L57974 55872
" />
<path d="M56165 55213
L56406 55301
" />
<path d="M57859 55361
L57557 56189
" />
<path d="M57814 55344
L57513 56173
" />
<path d="M57903 55377
L57601 56205
" />
<path d="M48934 52659
L48934 53540
" />
<path d="M48934 53540
L47265 53540
" />
<path d="M47265 53540
L47265 52659
" />
<path d="M47265 52659
L48934 52659
" />
<path d="M49190 53100
L48934 53100
" />
<path d="M47009 53100
L47265 53100
" />
<path d="M48651 52659
L48651 53540
" />
<path d="M48603 52659
L48603 53540
" />
<path d="M48698 52659
L48698 53540
" />
<path d="M34159 48865
L35040 48865
" />
<path d="M35040 48865
L35040 50534
" />
<path d="M35040 50534
L34159 50534
" />
<path d="M34159 50534
L34159 48865
" />
<path d="M34600 48609
L34600 48865
" />
<path d="M34600 50790
L34600 50534
" />
<path d="M34159 49148
L35040 49148
" />
<path d="M34159 49196
L35040 49196
" />
<path d="M34159 49101
L35040 49101
" />
<path d="M89034 50759
L89034 51640
" />
<path d="M89034 51640
L87365 51640
" />
<path d="M87365 51640
L87365 50759
" />
<path d="M87365 50759
L89034 50759
" />
<path d="M89290 51200
L89034 51200
" />
<path d="M87109 51200
L87365 51200
" />
<path d="M88751 50759
L88751 51640
" />
<path d="M88703 50759
L88703 51640
" />
<path d="M88798 50759
L88798 51640
" />
<path d="M75258 49074
L76086 49376
" />
<path d="M76086 49376
L75515 50944
" />
<path d="M75515 50944
L74687 50643
" />
<path d="M74687 50643
L75258 49074
" />
<path d="M75759 48984
L75672 49225
" />
<path d="M75013 51034
L75101 50793
" />
<path d="M75161 49340
L75989 49642
" />
<path d="M75144 49385
L75973 49686
" />
<path d="M75177 49296
L76005 49598
" />
<path d="M57725 47158
L57423 47986
" />
<path d="M57423 47986
L55855 47415
" />
<path d="M55855 47415
L56156 46587
" />
<path d="M56156 46587
L57725 47158
" />
<path d="M57815 47659
L57574 47572
" />
<path d="M55765 46913
L56006 47001
" />
<path d="M57459 47061
L57157 47889
" />
<path d="M57414 47044
L57113 47873
" />
<path d="M57503 47077
L57201 47905
" />
<path d="M50134 45059
L50134 45940
" />
<path d="M50134 45940
L48465 45940
" />
<path d="M48465 45940
L48465 45059
" />
<path d="M48465 45059
L50134 45059
" />
<path d="M50390 45500
L50134 45500
" />
<path d="M48209 45500
L48465 45500
" />
<path d="M49851 45059
L49851 45940
" />
<path d="M49803 45059
L49803 45940
" />
<path d="M49898 45059
L49898 45940
" />
<path d="M42534 45059
L42534 45940
" />
<path d="M42534 45940
L40865 45940
" />
<path d="M40865 45940
L40865 45059
" />
<path d="M40865 45059
L42534 45059
" />
<path d="M42790 45500
L42534 45500
" />
<path d="M40609 45500
L40865 45500
" />
<path d="M42251 45059
L42251 45940
" />
<path d="M42203 45059
L42203 45940
" />
<path d="M42298 45059
L42298 45940
" />
<path d="M27434 45059
L27434 45940
" />
<path d="M27434 45940
L25765 45940
" />
<path d="M25765 45940
L25765 45059
" />
<path d="M25765 45059
L27434 45059
" />
<path d="M27690 45500
L27434 45500
" />
<path d="M25509 45500
L25765 45500
" />
<path d="M27151 45059
L27151 45940
" />
<path d="M27103 45059
L27103 45940
" />
<path d="M27198 45059
L27198 45940
" />
<path d="M19634 45059
L19634 45940
" />
<path d="M19634 45940
L17965 45940
" />
<path d="M17965 45940
L17965 45059
" />
<path d="M17965 45059
L19634 45059
" />
<path d="M19890 45500
L19634 45500
" />
<path d="M17709 45500
L17965 45500
" />
<path d="M19351 45059
L19351 45940
" />
<path d="M19303 45059
L19303 45940
" />
<path d="M19398 45059
L19398 45940
" />
<path d="M96634 39559
L96634 40440
" />
<path d="M96634 40440
L94965 40440
" />
<path d="M94965 40440
L94965 39559
" />
<path d="M94965 39559
L96634 39559
" />
<path d="M96890 40000
L96634 40000
" />
<path d="M94709 40000
L94965 40000
" />
<path d="M96351 39559
L96351 40440
" />
<path d="M96303 39559
L96303 40440
" />
<path d="M96398 39559
L96398 40440
" />
<path d="M84115 44044
L83287 43743
" />
<path d="M83287 43743
L83858 42174
" />
<path d="M83858 42174
L84686 42476
" />
<path d="M84686 42476
L84115 44044
" />
<path d="M83613 44134
L83701 43893
" />
<path d="M84359 42084
L84272 42325
" />
<path d="M84212 43778
L83384 43476
" />
<path d="M84228 43733
L83400 43432
" />
<path d="M84196 43822
L83367 43521
" />
<path d="M64125 40858
L63823 41686
" />
<path d="M63823 41686
L62255 41115
" />
<path d="M62255 41115
L62556 40287
" />
<path d="M62556 40287
L64125 40858
" />
<path d="M64215 41359
L63974 41272
" />
<path d="M62165 40613
L62406 40701
" />
<path d="M63859 40761
L63557 41589
" />
<path d="M63814 40744
L63513 41573
" />
<path d="M63903 40777
L63601 41605
" />
<path d="M56925 38758
L56623 39586
" />
<path d="M56623 39586
L55055 39015
" />
<path d="M55055 39015
L55356 38187
" />
<path d="M55356 38187
L56925 38758
" />
<path d="M57015 39259
L56774 39172
" />
<path d="M54965 38513
L55206 38601
" />
<path d="M56659 38661
L56357 39489
" />
<path d="M56614 38644
L56313 39473
" />
<path d="M56703 38677
L56401 39505
" />
<path d="M47334 37459
L47334 38340
" />
<path d="M47334 38340
L45665 38340
" />
<path d="M45665 38340
L45665 37459
" />
<path d="M45665 37459
L47334 37459
" />
<path d="M47590 37900
L47334 37900
" />
<path d="M45409 37900
L45665 37900
" />
<path d="M47051 37459
L47051 38340
" />
<path d="M47003 37459
L47003 38340
" />
<path d="M47098 37459
L47098 38340
" />
<path d="M39734 37459
L39734 38340
" />
<path d="M39734 38340
L38065 38340
" />
<path d="M38065 38340
L38065 37459
" />
<path d="M38065 37459
L39734 37459
" />
<path d="M39990 37900
L39734 37900
" />
<path d="M37809 37900
L38065 37900
" />
<path d="M39451 37459
L39451 38340
" />
<path d="M39403 37459
L39403 38340
" />
<path d="M39498 37459
L39498 38340
" />
<path d="M32134 37459
L32134 38340
" />
<path d="M32134 38340
L30465 38340
" />
<path d="M30465 38340
L30465 37459
" />
<path d="M30465 37459
L32134 37459
" />
<path d="M32390 37900
L32134 37900
" />
<path d="M30209 37900
L30465 37900
" />
<path d="M31851 37459
L31851 38340
" />
<path d="M31803 37459
L31803 38340
" />
<path d="M31898 37459
L31898 38340
" />
<path d="M24534 37459
L24534 38340
" />
<path d="M24534 38340
L22865 38340
" />
<path d="M22865 38340
L22865 37459
" />
<path d="M22865 37459
L24534 37459
" />
<path d="M24790 37900
L24534 37900
" />
<path d="M22609 37900
L22865 37900
" />
<path d="M24251 37459
L24251 38340
" />
<path d="M24203 37459
L24203 38340
" />
<path d="M24298 37459
L24298 38340
" />
<path d="M76725 37258
L76423 38086
" />
<path d="M76423 38086
L74855 37515
" />
<path d="M74855 37515
L75156 36687
" />
<path d="M75156 36687
L76725 37258
" />
<path d="M76815 37759
L76574 37672
" />
<path d="M74765 37013
L75006 37101
" />
<path d="M76459 37161
L76157 37989
" />
<path d="M76414 37144
L76113 37973
" />
<path d="M76503 37177
L76201 38005
" />
<path d="M67825 34158
L67523 34986
" />
<path d="M67523 34986
L65955 34415
" />
<path d="M65955 34415
L66256 33587
" />
<path d="M66256 33587
L67825 34158
" />
<path d="M67915 34659
L67674 34572
" />
<path d="M65865 33913
L66106 34001
" />
<path d="M67559 34061
L67257 34889
" />
<path d="M67514 34044
L67213 34873
" />
<path d="M67603 34077
L67301 34905
" />
<path d="M98759 28165
L99640 28165
" />
<path d="M99640 28165
L99640 29834
" />
<path d="M99640 29834
L98759 29834
" />
<path d="M98759 29834
L98759 28165
" />
<path d="M99200 27909
L99200 28165
" />
<path d="M99200 30090
L99200 29834
" />
<path d="M98759 28448
L99640 28448
" />
<path d="M98759 28496
L99640 28496
" />
<path d="M98759 28401
L99640 28401
" />
<path d="M81534 58359
L81534 59240
" />
<path d="M81534 59240
L79865 59240
" />
<path d="M79865 59240
L79865 58359
" />
<path d="M79865 58359
L81534 58359
" />
<path d="M81790 58800
L81534 58800
" />
<path d="M79609 58800
L79865 58800
" />
<path d="M81251 58359
L81251 59240
" />
<path d="M81203 58359
L81203 59240
" />
<path d="M81298 58359
L81298 59240
" />
<path d="M89134 58359
L89134 59240
" />
<path d="M89134 59240
L87465 59240
" />
<path d="M87465 59240
L87465 58359
" />
<path d="M87465 58359
L89134 58359
" />
<path d="M89390 58800
L89134 58800
" />
<path d="M87209 58800
L87465 58800
" />
<path d="M88851 58359
L88851 59240
" />
<path d="M88803 58359
L88803 59240
" />
<path d="M88898 58359
L88898 59240
" />
<path d="M60825 31558
L60523 32386
" />
<path d="M60523 32386
L58955 31815
" />
<path d="M58955 31815
L59256 30987
" />
<path d="M59256 30987
L60825 31558
" />
<path d="M60915 32059
L60674 31972
" />
<path d="M58865 31313
L59106 31401
" />
<path d="M60559 31461
L60257 32289
" />
<path d="M60514 31444
L60213 32273
" />
<path d="M60603 31477
L60301 32305
" />
<path d="M53234 29859
L53234 30740
" />
<path d="M53234 30740
L51565 30740
" />
<path d="M51565 30740
L51565 29859
" />
<path d="M51565 29859
L53234 29859
" />
<path d="M53490 30300
L53234 30300
" />
<path d="M51309 30300
L51565 30300
" />
<path d="M52951 29859
L52951 30740
" />
<path d="M52903 29859
L52903 30740
" />
<path d="M52998 29859
L52998 30740
" />
<path d="M45534 29859
L45534 30740
" />
<path d="M45534 30740
L43865 30740
" />
<path d="M43865 30740
L43865 29859
" />
<path d="M43865 29859
L45534 29859
" />
<path d="M45790 30300
L45534 30300
" />
<path d="M43609 30300
L43865 30300
" />
<path d="M45251 29859
L45251 30740
" />
<path d="M45203 29859
L45203 30740
" />
<path d="M45298 29859
L45298 30740
" />
<path d="M37934 29859
L37934 30740
" />
<path d="M37934 30740
L36265 30740
" />
<path d="M36265 30740
L36265 29859
" />
<path d="M36265 29859
L37934 29859
" />
<path d="M38190 30300
L37934 30300
" />
<path d="M36009 30300
L36265 30300
" />
<path d="M37651 29859
L37651 30740
" />
<path d="M37603 29859
L37603 30740
" />
<path d="M37698 29859
L37698 30740
" />
<path d="M30334 29859
L30334 30740
" />
<path d="M30334 30740
L28665 30740
" />
<path d="M28665 30740
L28665 29859
" />
<path d="M28665 29859
L30334 29859
" />
<path d="M30590 30300
L30334 30300
" />
<path d="M28409 30300
L28665 30300
" />
<path d="M30051 29859
L30051 30740
" />
<path d="M30003 29859
L30003 30740
" />
<path d="M30098 29859
L30098 30740
" />
<path d="M22634 29859
L22634 30740
" />
<path d="M22634 30740
L20965 30740
" />
<path d="M20965 30740
L20965 29859
" />
<path d="M20965 29859
L22634 29859
" />
<path d="M22890 30300
L22634 30300
" />
<path d="M20709 30300
L20965 30300
" />
<path d="M22351 29859
L22351 30740
" />
<path d="M22303 29859
L22303 30740
" />
<path d="M22398 29859
L22398 30740
" />
<path d="M88634 32759
L88634 33640
" />
<path d="M88634 33640
L86965 33640
" />
<path d="M86965 33640
L86965 32759
" />
<path d="M86965 32759
L88634 32759
" />
<path d="M88890 33200
L88634 33200
" />
<path d="M86709 33200
L86965 33200
" />
<path d="M88351 32759
L88351 33640
" />
<path d="M88303 32759
L88303 33640
" />
<path d="M88398 32759
L88398 33640
" />
<path d="M77525 22158
L77223 22986
" />
<path d="M77223 22986
L75655 22415
" />
<path d="M75655 22415
L75956 21587
" />
<path d="M75956 21587
L77525 22158
" />
<path d="M77615 22659
L77374 22572
" />
<path d="M75565 21913
L75806 22001
" />
<path d="M77259 22061
L76957 22889
" />
<path d="M77214 22044
L76913 22873
" />
<path d="M77303 22077
L77001 22905
" />
<path d="M64325 24758
L64023 25586
" />
<path d="M64023 25586
L62455 25015
" />
<path d="M62455 25015
L62756 24187
" />
<path d="M62756 24187
L64325 24758
" />
<path d="M64415 25259
L64174 25172
" />
<path d="M62365 24513
L62606 24601
" />
<path d="M64059 24661
L63757 25489
" />
<path d="M64014 24644
L63713 25473
" />
<path d="M64103 24677
L63801 25505
" />
<path d="M57325 22158
L57023 22986
" />
<path d="M57023 22986
L55455 22415
" />
<path d="M55455 22415
L55756 21587
" />
<path d="M55756 21587
L57325 22158
" />
<path d="M57415 22659
L57174 22572
" />
<path d="M55365 21913
L55606 22001
" />
<path d="M57059 22061
L56757 22889
" />
<path d="M57014 22044
L56713 22873
" />
<path d="M57103 22077
L56801 22905
" />
<path d="M48634 22259
L48634 23140
" />
<path d="M48634 23140
L46965 23140
" />
<path d="M46965 23140
L46965 22259
" />
<path d="M46965 22259
L48634 22259
" />
<path d="M48890 22700
L48634 22700
" />
<path d="M46709 22700
L46965 22700
" />
<path d="M48351 22259
L48351 23140
" />
<path d="M48303 22259
L48303 23140
" />
<path d="M48398 22259
L48398 23140
" />
<path d="M40934 22259
L40934 23140
" />
<path d="M40934 23140
L39265 23140
" />
<path d="M39265 23140
L39265 22259
" />
<path d="M39265 22259
L40934 22259
" />
<path d="M41190 22700
L40934 22700
" />
<path d="M39009 22700
L39265 22700
" />
<path d="M40651 22259
L40651 23140
" />
<path d="M40603 22259
L40603 23140
" />
<path d="M40698 22259
L40698 23140
" />
<path d="M33334 22259
L33334 23140
" />
<path d="M33334 23140
L31665 23140
" />
<path d="M31665 23140
L31665 22259
" />
<path d="M31665 22259
L33334 22259
" />
<path d="M33590 22700
L33334 22700
" />
<path d="M31409 22700
L31665 22700
" />
<path d="M33051 22259
L33051 23140
" />
<path d="M33003 22259
L33003 23140
" />
<path d="M33098 22259
L33098 23140
" />
<path d="M25734 22259
L25734 23140
" />
<path d="M25734 23140
L24065 23140
" />
<path d="M24065 23140
L24065 22259
" />
<path d="M24065 22259
L25734 22259
" />
<path d="M25990 22700
L25734 22700
" />
<path d="M23809 22700
L24065 22700
" />
<path d="M25451 22259
L25451 23140
" />
<path d="M25403 22259
L25403 23140
" />
<path d="M25498 22259
L25498 23140
" />
</g>
<g style="fill:#000000; fill-opacity:0.0; 
stroke:#000000; stroke-width:59.0551; stroke-opacity:1; 
stroke-linecap:round; stroke-linejoin:round;">
<text x="34100" y="44862.2"
transform="scale(-1 1) translate(-68200.000000 0)"
textLength="1066.84" font-size="524.934" lengthAdjust="spacingAndGlyphs"
text-anchor="middle" opacity="0">D27</text>
<path d="M34578 44843
L34578 44449
L34484 44449
L34428 44468
L34390 44505
L34371 44543
L34353 44618
L34353 44674
L34371 44749
L34390 44787
L34428 44824
L34484 44843
L34578 44843
" />
<path d="M34203 44487
L34184 44468
L34146 44449
L34053 44449
L34015 44468
L33996 44487
L33978 44524
L33978 44562
L33996 44618
L34221 44843
L33978 44843
" />
<path d="M33846 44449
L33584 44449
L33753 44843
" />
<text x="35600" y="44988.2"
transform="scale(-1 1) translate(-71200.000000 0)"
textLength="316.929" font-size="524.934" lengthAdjust="spacingAndGlyphs"
text-anchor="middle" opacity="0">K</text>
<path d="M35703 44969
L35703 44575
" />
<path d="M35478 44969
L35646 44744
" />
<path d="M35478 44575
L35703 44800
" />
<g transform="rotate(-90 98365.4 55300)">
<text x="98365.4" y="55496.9"
transform="scale(-1 1) translate(-196730.708661 0)"
textLength="1066.84" font-size="524.934" lengthAdjust="spacingAndGlyphs"
text-anchor="middle" opacity="0">D39</text>
</g>
<path d="M98543 54821
L98149 54821
L98149 54915
L98168 54971
L98205 55009
L98243 55028
L98318 55046
L98374 55046
L98449 55028
L98487 55009
L98524 54971
L98543 54915
L98543 54821
" />
<path d="M98149 55178
L98149 55421
L98299 55290
L98299 55346
L98318 55384
L98337 55403
L98374 55421
L98468 55421
L98505 55403
L98524 55384
L98543 55346
L98543 55234
L98524 55196
L98505 55178
" />
<path d="M98543 55609
L98543 55684
L98524 55721
L98505 55740
L98449 55778
L98374 55796
L98224 55796
L98187 55778
L98168 55759
L98149 55721
L98149 55646
L98168 55609
L98187 55590
L98224 55571
L98318 55571
L98355 55590
L98374 55609
L98393 55646
L98393 55721
L98374 55759
L98355 55778
L98318 55796
" />
<g transform="rotate(-90 98491.3 53800)">
<text x="98491.3" y="53996.9"
transform="scale(-1 1) translate(-196982.677165 0)"
textLength="316.929" font-size="524.934" lengthAdjust="spacingAndGlyphs"
text-anchor="middle" opacity="0">K</text>
</g>
<path d="M98669 53696
L98275 53696
" />
<path d="M98669 53921
L98444 53753
" />
<path d="M98275 53921
L98500 53696
" />
<g transform="rotate(20 66675.9 57702.7)">
<text x="66675.9" y="57899.5"
transform="scale(-1 1) translate(-133351.853543 0)"
textLength="1066.84" font-size="524.934" lengthAdjust="spacingAndGlyphs"
text-anchor="middle" opacity="0">D36</text>
</g>
<path d="M67064 58033
L67198 57663
L67110 57631
L67051 57629
L67003 57652
L66973 57681
L66929 57745
L66910 57798
L66902 57874
L66907 57916
L66929 57964
L66976 58001
L67064 58033
" />
<path d="M66864 57541
L66635 57458
L66707 57644
L66654 57624
L66612 57629
L66588 57640
L66558 57669
L66526 57757
L66530 57799
L66542 57823
L66570 57853
L66676 57892
L66718 57887
L66742 57876
" />
<path d="M66318 57342
L66388 57368
L66417 57399
L66428 57423
L66444 57488
L66436 57565
L66385 57706
L66354 57735
L66330 57746
L66289 57751
L66218 57725
L66189 57695
L66178 57671
L66173 57629
L66205 57541
L66236 57512
L66260 57501
L66301 57496
L66372 57522
L66401 57552
L66412 57576
L66417 57618
" />
<g transform="rotate(20 68042.4 58334.1)">
<text x="68042.4" y="58530.9"
transform="scale(-1 1) translate(-136084.752756 0)"
textLength="316.929" font-size="524.934" lengthAdjust="spacingAndGlyphs"
text-anchor="middle" opacity="0">K</text>
</g>
<path d="M68078 58536
L68213 58166
" />
<path d="M67866 58459
L68102 58306
" />
<path d="M68001 58089
L68136 58378
" />
<g transform="rotate(20 57475.9 54802.7)">
<text x="57475.9" y="54999.5"
transform="scale(-1 1) translate(-114951.853543 0)"
textLength="1066.84" font-size="524.934" lengthAdjust="spacingAndGlyphs"
text-anchor="middle" opacity="0">D35</text>
</g>
<path d="M57864 55133
L57998 54763
L57910 54731
L57851 54729
L57803 54752
L57773 54781
L57729 54845
L57710 54898
L57702 54974
L57707 55016
L57729 55064
L57776 55101
L57864 55133
" />
<path d="M57664 54641
L57435 54558
L57507 54744
L57454 54724
L57412 54729
L57388 54740
L57358 54769
L57326 54857
L57330 54899
L57342 54923
L57370 54953
L57476 54992
L57518 54987
L57542 54976
" />
<path d="M57100 54436
L57276 54500
L57230 54683
L57218 54659
L57190 54628
L57101 54596
L57060 54601
L57036 54612
L57005 54641
L56973 54729
L56978 54771
L56989 54795
L57018 54825
L57106 54857
L57148 54853
L57172 54841
" />
<g transform="rotate(20 58842.4 55434.1)">
<text x="58842.4" y="55630.9"
transform="scale(-1 1) translate(-117684.752756 0)"
textLength="316.929" font-size="524.934" lengthAdjust="spacingAndGlyphs"
text-anchor="middle" opacity="0">K</text>
</g>
<path d="M58878 55636
L59013 55266
" />
<path d="M58666 55559
L58902 55406
" />
<path d="M58801 55189
L58936 55478
" />
<text x="48100" y="52462.2"
transform="scale(-1 1) translate(-96200.000000 0)"
textLength="1066.84" font-size="524.934" lengthAdjust="spacingAndGlyphs"
text-anchor="middle" opacity="0">D34</text>
<path d="M48578 52443
L48578 52049
L48484 52049
L48428 52068
L48390 52105
L48371 52143
L48353 52218
L48353 52274
L48371 52349
L48390 52387
L48428 52424
L48484 52443
L48578 52443
" />
<path d="M48221 52049
L47978 52049
L48109 52199
L48053 52199
L48015 52218
L47996 52237
L47978 52274
L47978 52368
L47996 52405
L48015 52424
L48053 52443
L48165 52443
L48203 52424
L48221 52405
" />
<path d="M47640 52180
L47640 52443
" />
<path d="M47734 52031
L47828 52312
L47584 52312
" />
<text x="49600" y="52588.2"
transform="scale(-1 1) translate(-99200.000000 0)"
textLength="316.929" font-size="524.934" lengthAdjust="spacingAndGlyphs"
text-anchor="middle" opacity="0">K</text>
<path d="M49703 52569
L49703 52175
" />
<path d="M49478 52569
L49646 52344
" />
<path d="M49478 52175
L49703 52400
" />
<g transform="rotate(-90 33765.4 49700)">
<text x="33765.4" y="49896.9"
transform="scale(-1 1) translate(-67530.708661 0)"
textLength="1066.84" font-size="524.934" lengthAdjust="spacingAndGlyphs"
text-anchor="middle" opacity="0">D33</text>
</g>
<path d="M33943 49221
L33549 49221
L33549 49315
L33568 49371
L33605 49409
L33643 49428
L33718 49446
L33774 49446
L33849 49428
L33887 49409
L33924 49371
L33943 49315
L33943 49221
" />
<path d="M33549 49578
L33549 49821
L33699 49690
L33699 49746
L33718 49784
L33737 49803
L33774 49821
L33868 49821
L33905 49803
L33924 49784
L33943 49746
L33943 49634
L33924 49596
L33905 49578
" />
<path d="M33549 49953
L33549 50196
L33699 50065
L33699 50121
L33718 50159
L33737 50178
L33774 50196
L33868 50196
L33905 50178
L33924 50159
L33943 50121
L33943 50009
L33924 49971
L33905 49953
" />
<g transform="rotate(-90 33891.3 48200)">
<text x="33891.3" y="48396.9"
transform="scale(-1 1) translate(-67782.677165 0)"
textLength="316.929" font-size="524.934" lengthAdjust="spacingAndGlyphs"
text-anchor="middle" opacity="0">K</text>
</g>
<path d="M34069 48096
L33675 48096
" />
<path d="M34069 48321
L33844 48153
" />
<path d="M33675 48321
L33900 48096
" />
<text x="88200" y="50562.2"
transform="scale(-1 1) translate(-176400.000000 0)"
textLength="1066.84" font-size="524.934" lengthAdjust="spacingAndGlyphs"
text-anchor="middle" opacity="0">D32</text>
<path d="M88678 50543
L88678 50149
L88584 50149
L88528 50168
L88490 50205
L88471 50243
L88453 50318
L88453 50374
L88471 50449
L88490 50487
L88528 50524
L88584 50543
L88678 50543
" />
<path d="M88321 50149
L88078 50149
L88209 50299
L88153 50299
L88115 50318
L88096 50337
L88078 50374
L88078 50468
L88096 50505
L88115 50524
L88153 50543
L88265 50543
L88303 50524
L88321 50505
" />
<path d="M87928 50187
L87909 50168
L87871 50149
L87778 50149
L87740 50168
L87721 50187
L87703 50224
L87703 50262
L87721 50318
L87946 50543
L87703 50543
" />
<text x="89700" y="50688.2"
transform="scale(-1 1) translate(-179400.000000 0)"
textLength="316.929" font-size="524.934" lengthAdjust="spacingAndGlyphs"
text-anchor="middle" opacity="0">K</text>
<path d="M89803 50669
L89803 50275
" />
<path d="M89578 50669
L89746 50444
" />
<path d="M89578 50275
L89803 50500
" />
<g transform="rotate(-70 74602.7 49724.1)">
<text x="74602.7" y="49920.9"
transform="scale(-1 1) translate(-149205.318898 0)"
textLength="1066.84" font-size="524.934" lengthAdjust="spacingAndGlyphs"
text-anchor="middle" opacity="0">D31</text>
</g>
<path d="M74933 49335
L74563 49201
L74531 49289
L74529 49348
L74552 49396
L74581 49426
L74645 49470
L74698 49489
L74774 49497
L74816 49492
L74864 49470
L74901 49423
L74933 49335
" />
<path d="M74441 49535
L74358 49764
L74544 49692
L74524 49745
L74529 49787
L74540 49811
L74569 49841
L74657 49873
L74699 49869
L74723 49857
L74753 49829
L74792 49723
L74787 49681
L74776 49657
" />
<path d="M74600 50251
L74677 50040
" />
<path d="M74638 50146
L74268 50011
L74334 49995
L74382 49973
L74412 49944
" />
<g transform="rotate(-70 75234.1 48357.6)">
<text x="75234.1" y="48554.5"
transform="scale(-1 1) translate(-150468.151969 0)"
textLength="316.929" font-size="524.934" lengthAdjust="spacingAndGlyphs"
text-anchor="middle" opacity="0">K</text>
</g>
<path d="M75436 48321
L75066 48186
" />
<path d="M75359 48533
L75206 48297
" />
<path d="M74989 48398
L75278 48263
" />
<g transform="rotate(20 57075.9 46502.7)">
<text x="57075.9" y="46699.5"
transform="scale(-1 1) translate(-114151.853543 0)"
textLength="1066.84" font-size="524.934" lengthAdjust="spacingAndGlyphs"
text-anchor="middle" opacity="0">D30</text>
</g>
<path d="M57464 46833
L57598 46463
L57510 46431
L57451 46429
L57403 46452
L57373 46481
L57329 46545
L57310 46598
L57302 46674
L57307 46716
L57329 46764
L57376 46801
L57464 46833
" />
<path d="M57264 46341
L57035 46258
L57107 46444
L57054 46424
L57012 46429
L56988 46440
L56958 46469
L56926 46557
L56930 46599
L56942 46623
L56970 46653
L57076 46692
L57118 46687
L57142 46676
" />
<path d="M56806 46175
L56770 46162
L56729 46166
L56705 46178
L56674 46207
L56631 46271
L56599 46359
L56591 46436
L56596 46477
L56607 46501
L56636 46532
L56671 46544
L56713 46540
L56737 46528
L56767 46500
L56810 46436
L56842 46348
L56850 46271
L56846 46229
L56834 46205
L56806 46175
" />
<g transform="rotate(20 58442.4 47134.1)">
<text x="58442.4" y="47330.9"
transform="scale(-1 1) translate(-116884.752756 0)"
textLength="316.929" font-size="524.934" lengthAdjust="spacingAndGlyphs"
text-anchor="middle" opacity="0">K</text>
</g>
<path d="M58478 47336
L58613 46966
" />
<path d="M58266 47259
L58502 47106
" />
<path d="M58401 46889
L58536 47178
" />
<text x="49300" y="44862.2"
transform="scale(-1 1) translate(-98600.000000 0)"
textLength="1066.84" font-size="524.934" lengthAdjust="spacingAndGlyphs"
text-anchor="middle" opacity="0">D29</text>
<path d="M49778 44843
L49778 44449
L49684 44449
L49628 44468
L49590 44505
L49571 44543
L49553 44618
L49553 44674
L49571 44749
L49590 44787
L49628 44824
L49684 44843
L49778 44843
" />
<path d="M49403 44487
L49384 44468
L49346 44449
L49253 44449
L49215 44468
L49196 44487
L49178 44524
L49178 44562
L49196 44618
L49421 44843
L49178 44843
" />
<path d="M48990 44843
L48915 44843
L48878 44824
L48859 44805
L48821 44749
L48803 44674
L48803 44524
L48821 44487
L48840 44468
L48878 44449
L48953 44449
L48990 44468
L49009 44487
L49028 44524
L49028 44618
L49009 44655
L48990 44674
L48953 44693
L48878 44693
L48840 44674
L48821 44655
L48803 44618
" />
<text x="50800" y="44988.2"
transform="scale(-1 1) translate(-101600.000000 0)"
textLength="316.929" font-size="524.934" lengthAdjust="spacingAndGlyphs"
text-anchor="middle" opacity="0">K</text>
<path d="M50903 44969
L50903 44575
" />
<path d="M50678 44969
L50846 44744
" />
<path d="M50678 44575
L50903 44800
" />
<text x="41700" y="44862.2"
transform="scale(-1 1) translate(-83400.000000 0)"
textLength="1066.84" font-size="524.934" lengthAdjust="spacingAndGlyphs"
text-anchor="middle" opacity="0">D28</text>
<path d="M42178 44843
L42178 44449
L42084 44449
L42028 44468
L41990 44505
L41971 44543
L41953 44618
L41953 44674
L41971 44749
L41990 44787
L42028 44824
L42084 44843
L42178 44843
" />
<path d="M41803 44487
L41784 44468
L41746 44449
L41653 44449
L41615 44468
L41596 44487
L41578 44524
L41578 44562
L41596 44618
L41821 44843
L41578 44843
" />
<path d="M41353 44618
L41390 44599
L41409 44580
L41428 44543
L41428 44524
L41409 44487
L41390 44468
L41353 44449
L41278 44449
L41240 44468
L41221 44487
L41203 44524
L41203 44543
L41221 44580
L41240 44599
L41278 44618
L41353 44618
L41390 44637
L41409 44655
L41428 44693
L41428 44768
L41409 44805
L41390 44824
L41353 44843
L41278 44843
L41240 44824
L41221 44805
L41203 44768
L41203 44693
L41221 44655
L41240 44637
L41278 44618
" />
<text x="43200" y="44988.2"
transform="scale(-1 1) translate(-86400.000000 0)"
textLength="316.929" font-size="524.934" lengthAdjust="spacingAndGlyphs"
text-anchor="middle" opacity="0">K</text>
<path d="M43303 44969
L43303 44575
" />
<path d="M43078 44969
L43246 44744
" />
<path d="M43078 44575
L43303 44800
" />
<text x="26600" y="44862.2"
transform="scale(-1 1) translate(-53200.000000 0)"
textLength="1066.84" font-size="524.934" lengthAdjust="spacingAndGlyphs"
text-anchor="middle" opacity="0">D26</text>
<path d="M27078 44843
L27078 44449
L26984 44449
L26928 44468
L26890 44505
L26871 44543
L26853 44618
L26853 44674
L26871 44749
L26890 44787
L26928 44824
L26984 44843
L27078 44843
" />
<path d="M26703 44487
L26684 44468
L26646 44449
L26553 44449
L26515 44468
L26496 44487
L26478 44524
L26478 44562
L26496 44618
L26721 44843
L26478 44843
" />
<path d="M26140 44449
L26215 44449
L26253 44468
L26271 44487
L26309 44543
L26328 44618
L26328 44768
L26309 44805
L26290 44824
L26253 44843
L26178 44843
L26140 44824
L26121 44805
L26103 44768
L26103 44674
L26121 44637
L26140 44618
L26178 44599
L26253 44599
L26290 44618
L26309 44637
L26328 44674
" />
<text x="28100" y="44988.2"
transform="scale(-1 1) translate(-56200.000000 0)"
textLength="316.929" font-size="524.934" lengthAdjust="spacingAndGlyphs"
text-anchor="middle" opacity="0">K</text>
<path d="M28203 44969
L28203 44575
" />
<path d="M27978 44969
L28146 44744
" />
<path d="M27978 44575
L28203 44800
" />
<text x="18800" y="44862.2"
transform="scale(-1 1) translate(-37600.000000 0)"
textLength="1066.84" font-size="524.934" lengthAdjust="spacingAndGlyphs"
text-anchor="middle" opacity="0">D25</text>
<path d="M19278 44843
L19278 44449
L19184 44449
L19128 44468
L19090 44505
L19071 44543
L19053 44618
L19053 44674
L19071 44749
L19090 44787
L19128 44824
L19184 44843
L19278 44843
" />
<path d="M18903 44487
L18884 44468
L18846 44449
L18753 44449
L18715 44468
L18696 44487
L18678 44524
L18678 44562
L18696 44618
L18921 44843
L18678 44843
" />
<path d="M18321 44449
L18509 44449
L18528 44637
L18509 44618
L18471 44599
L18378 44599
L18340 44618
L18321 44637
L18303 44674
L18303 44768
L18321 44805
L18340 44824
L18378 44843
L18471 44843
L18509 44824
L18528 44805
" />
<text x="20300" y="44988.2"
transform="scale(-1 1) translate(-40600.000000 0)"
textLength="316.929" font-size="524.934" lengthAdjust="spacingAndGlyphs"
text-anchor="middle" opacity="0">K</text>
<path d="M20403 44969
L20403 44575
" />
<path d="M20178 44969
L20346 44744
" />
<path d="M20178 44575
L20403 44800
" />
<text x="95800" y="39362.2"
transform="scale(-1 1) translate(-191600.000000 0)"
textLength="1066.84" font-size="524.934" lengthAdjust="spacingAndGlyphs"
text-anchor="middle" opacity="0">D24</text>
<path d="M96278 39343
L96278 38949
L96184 38949
L96128 38968
L96090 39005
L96071 39043
L96053 39118
L96053 39174
L96071 39249
L96090 39287
L96128 39324
L96184 39343
L96278 39343
" />
<path d="M95903 38987
L95884 38968
L95846 38949
L95753 38949
L95715 38968
L95696 38987
L95678 39024
L95678 39062
L95696 39118
L95921 39343
L95678 39343
" />
<path d="M95340 39080
L95340 39343
" />
<path d="M95434 38931
L95528 39212
L95284 39212
" />
<text x="97300" y="39488.2"
transform="scale(-1 1) translate(-194600.000000 0)"
textLength="316.929" font-size="524.934" lengthAdjust="spacingAndGlyphs"
text-anchor="middle" opacity="0">K</text>
<path d="M97403 39469
L97403 39075
" />
<path d="M97178 39469
L97346 39244
" />
<path d="M97178 39075
L97403 39300
" />
<g transform="rotate(-70 84771.3 43395)">
<text x="84771.3" y="43591.9"
transform="scale(-1 1) translate(-169542.560630 0)"
textLength="1066.84" font-size="524.934" lengthAdjust="spacingAndGlyphs"
text-anchor="middle" opacity="0">D23</text>
</g>
<path d="M85102 43006
L84732 42872
L84700 42960
L84698 43019
L84720 43067
L84749 43097
L84813 43141
L84866 43160
L84943 43168
L84985 43163
L85033 43141
L85070 43094
L85102 43006
" />
<path d="M84639 43237
L84615 43248
L84584 43277
L84552 43365
L84557 43406
L84568 43430
L84597 43461
L84632 43474
L84691 43475
L84980 43341
L84896 43570
" />
<path d="M84482 43559
L84398 43788
L84584 43716
L84565 43768
L84570 43810
L84581 43834
L84610 43865
L84698 43897
L84739 43892
L84763 43881
L84794 43852
L84832 43746
L84828 43704
L84816 43680
" />
<g transform="rotate(-70 84139.9 44761.5)">
<text x="84139.9" y="44958.3"
transform="scale(-1 1) translate(-168279.727559 0)"
textLength="316.929" font-size="524.934" lengthAdjust="spacingAndGlyphs"
text-anchor="middle" opacity="0">K</text>
</g>
<path d="M84342 44725
L83972 44590
" />
<path d="M84265 44936
L84111 44701
" />
<path d="M83895 44802
L84183 44667
" />
<g transform="rotate(20 63475.9 40202.7)">
<text x="63475.9" y="40399.5"
transform="scale(-1 1) translate(-126951.853543 0)"
textLength="1066.84" font-size="524.934" lengthAdjust="spacingAndGlyphs"
text-anchor="middle" opacity="0">D22</text>
</g>
<path d="M63864 40533
L63998 40163
L63910 40131
L63851 40129
L63803 40152
L63773 40181
L63729 40245
L63710 40298
L63702 40374
L63707 40416
L63729 40464
L63776 40501
L63864 40533
" />
<path d="M63633 40070
L63622 40046
L63593 40016
L63505 39984
L63463 39988
L63439 40000
L63409 40028
L63396 40064
L63395 40123
L63529 40411
L63300 40328
" />
<path d="M63281 39942
L63270 39918
L63241 39887
L63153 39855
L63111 39860
L63087 39871
L63057 39900
L63044 39935
L63042 39995
L63177 40283
L62948 40200
" />
<g transform="rotate(20 64842.4 40834.1)">
<text x="64842.4" y="41030.9"
transform="scale(-1 1) translate(-129684.752756 0)"
textLength="316.929" font-size="524.934" lengthAdjust="spacingAndGlyphs"
text-anchor="middle" opacity="0">K</text>
</g>
<path d="M64878 41036
L65013 40666
" />
<path d="M64666 40959
L64902 40806
" />
<path d="M64801 40589
L64936 40878
" />
<g transform="rotate(20 56275.9 38102.7)">
<text x="56275.9" y="38299.5"
transform="scale(-1 1) translate(-112551.853543 0)"
textLength="1066.84" font-size="524.934" lengthAdjust="spacingAndGlyphs"
text-anchor="middle" opacity="0">D21</text>
</g>
<path d="M56664 38433
L56798 38063
L56710 38031
L56651 38029
L56603 38052
L56573 38081
L56529 38145
L56510 38198
L56502 38274
L56507 38316
L56529 38364
L56576 38401
L56664 38433
" />
<path d="M56433 37970
L56422 37946
L56393 37916
L56305 37884
L56263 37888
L56239 37900
L56209 37928
L56196 37964
L56195 38023
L56329 38311
L56100 38228
" />
<path d="M55748 38100
L55959 38177
" />
<path d="M55853 38138
L55988 37768
L56004 37834
L56026 37882
L56055 37912
" />
<g transform="rotate(20 57642.4 38734.1)">
<text x="57642.4" y="38930.9"
transform="scale(-1 1) translate(-115284.752756 0)"
textLength="316.929" font-size="524.934" lengthAdjust="spacingAndGlyphs"
text-anchor="middle" opacity="0">K</text>
</g>
<path d="M57678 38936
L57813 38566
" />
<path d="M57466 38859
L57702 38706
" />
<path d="M57601 38489
L57736 38778
" />
<text x="46500" y="37262.2"
transform="scale(-1 1) translate(-93000.000000 0)"
textLength="1066.84" font-size="524.934" lengthAdjust="spacingAndGlyphs"
text-anchor="middle" opacity="0">D20</text>
<path d="M46978 37243
L46978 36849
L46884 36849
L46828 36868
L46790 36905
L46771 36943
L46753 37018
L46753 37074
L46771 37149
L46790 37187
L46828 37224
L46884 37243
L46978 37243
" />
<path d="M46603 36887
L46584 36868
L46546 36849
L46453 36849
L46415 36868
L46396 36887
L46378 36924
L46378 36962
L46396 37018
L46621 37243
L46378 37243
" />
<path d="M46134 36849
L46096 36849
L46059 36868
L46040 36887
L46021 36924
L46003 36999
L46003 37093
L46021 37168
L46040 37205
L46059 37224
L46096 37243
L46134 37243
L46171 37224
L46190 37205
L46209 37168
L46228 37093
L46228 36999
L46209 36924
L46190 36887
L46171 36868
L46134 36849
" />
<text x="48000" y="37388.2"
transform="scale(-1 1) translate(-96000.000000 0)"
textLength="316.929" font-size="524.934" lengthAdjust="spacingAndGlyphs"
text-anchor="middle" opacity="0">K</text>
<path d="M48103 37369
L48103 36975
" />
<path d="M47878 37369
L48046 37144
" />
<path d="M47878 36975
L48103 37200
" />
<text x="38900" y="37262.2"
transform="scale(-1 1) translate(-77800.000000 0)"
textLength="1066.84" font-size="524.934" lengthAdjust="spacingAndGlyphs"
text-anchor="middle" opacity="0">D19</text>
<path d="M39378 37243
L39378 36849
L39284 36849
L39228 36868
L39190 36905
L39171 36943
L39153 37018
L39153 37074
L39171 37149
L39190 37187
L39228 37224
L39284 37243
L39378 37243
" />
<path d="M38778 37243
L39003 37243
" />
<path d="M38890 37243
L38890 36849
L38928 36905
L38965 36943
L39003 36962
" />
<path d="M38590 37243
L38515 37243
L38478 37224
L38459 37205
L38421 37149
L38403 37074
L38403 36924
L38421 36887
L38440 36868
L38478 36849
L38553 36849
L38590 36868
L38609 36887
L38628 36924
L38628 37018
L38609 37055
L38590 37074
L38553 37093
L38478 37093
L38440 37074
L38421 37055
L38403 37018
" />
<text x="40400" y="37388.2"
transform="scale(-1 1) translate(-80800.000000 0)"
textLength="316.929" font-size="524.934" lengthAdjust="spacingAndGlyphs"
text-anchor="middle" opacity="0">K</text>
<path d="M40503 37369
L40503 36975
" />
<path d="M40278 37369
L40446 37144
" />
<path d="M40278 36975
L40503 37200
" />
<text x="31300" y="37262.2"
transform="scale(-1 1) translate(-62600.000000 0)"
textLength="1066.84" font-size="524.934" lengthAdjust="spacingAndGlyphs"
text-anchor="middle" opacity="0">D18</text>
<path d="M31778 37243
L31778 36849
L31684 36849
L31628 36868
L31590 36905
L31571 36943
L31553 37018
L31553 37074
L31571 37149
L31590 37187
L31628 37224
L31684 37243
L31778 37243
" />
<path d="M31178 37243
L31403 37243
" />
<path d="M31290 37243
L31290 36849
L31328 36905
L31365 36943
L31403 36962
" />
<path d="M30953 37018
L30990 36999
L31009 36980
L31028 36943
L31028 36924
L31009 36887
L30990 36868
L30953 36849
L30878 36849
L30840 36868
L30821 36887
L30803 36924
L30803 36943
L30821 36980
L30840 36999
L30878 37018
L30953 37018
L30990 37037
L31009 37055
L31028 37093
L31028 37168
L31009 37205
L30990 37224
L30953 37243
L30878 37243
L30840 37224
L30821 37205
L30803 37168
L30803 37093
L30821 37055
L30840 37037
L30878 37018
" />
<text x="32800" y="37388.2"
transform="scale(-1 1) translate(-65600.000000 0)"
textLength="316.929" font-size="524.934" lengthAdjust="spacingAndGlyphs"
text-anchor="middle" opacity="0">K</text>
<path d="M32903 37369
L32903 36975
" />
<path d="M32678 37369
L32846 37144
" />
<path d="M32678 36975
L32903 37200
" />
<text x="23700" y="37262.2"
transform="scale(-1 1) translate(-47400.000000 0)"
textLength="1066.84" font-size="524.934" lengthAdjust="spacingAndGlyphs"
text-anchor="middle" opacity="0">D17</text>
<path d="M24178 37243
L24178 36849
L24084 36849
L24028 36868
L23990 36905
L23971 36943
L23953 37018
L23953 37074
L23971 37149
L23990 37187
L24028 37224
L24084 37243
L24178 37243
" />
<path d="M23578 37243
L23803 37243
" />
<path d="M23690 37243
L23690 36849
L23728 36905
L23765 36943
L23803 36962
" />
<path d="M23446 36849
L23184 36849
L23353 37243
" />
<text x="25200" y="37388.2"
transform="scale(-1 1) translate(-50400.000000 0)"
textLength="316.929" font-size="524.934" lengthAdjust="spacingAndGlyphs"
text-anchor="middle" opacity="0">K</text>
<path d="M25303 37369
L25303 36975
" />
<path d="M25078 37369
L25246 37144
" />
<path d="M25078 36975
L25303 37200
" />
<g transform="rotate(20 76075.9 36602.7)">
<text x="76075.9" y="36799.5"
transform="scale(-1 1) translate(-152151.853543 0)"
textLength="1066.84" font-size="524.934" lengthAdjust="spacingAndGlyphs"
text-anchor="middle" opacity="0">D16</text>
</g>
<path d="M76464 36933
L76598 36563
L76510 36531
L76451 36529
L76403 36552
L76373 36581
L76329 36645
L76310 36698
L76302 36774
L76307 36816
L76329 36864
L76376 36901
L76464 36933
" />
<path d="M75900 36728
L76111 36805
" />
<path d="M76006 36766
L76140 36396
L76156 36462
L76179 36510
L76208 36541
" />
<path d="M75718 36242
L75788 36268
L75817 36299
L75828 36323
L75844 36388
L75836 36465
L75785 36606
L75754 36635
L75730 36646
L75689 36651
L75618 36625
L75589 36595
L75578 36571
L75573 36529
L75605 36441
L75636 36412
L75660 36401
L75701 36396
L75772 36422
L75801 36452
L75812 36476
L75817 36518
" />
<g transform="rotate(20 77442.4 37234.1)">
<text x="77442.4" y="37430.9"
transform="scale(-1 1) translate(-154884.752756 0)"
textLength="316.929" font-size="524.934" lengthAdjust="spacingAndGlyphs"
text-anchor="middle" opacity="0">K</text>
</g>
<path d="M77478 37436
L77613 37066
" />
<path d="M77266 37359
L77502 37206
" />
<path d="M77401 36989
L77536 37278
" />
<g transform="rotate(20 67175.9 33502.7)">
<text x="67175.9" y="33699.5"
transform="scale(-1 1) translate(-134351.853543 0)"
textLength="1066.84" font-size="524.934" lengthAdjust="spacingAndGlyphs"
text-anchor="middle" opacity="0">D15</text>
</g>
<path d="M67564 33833
L67698 33463
L67610 33431
L67551 33429
L67503 33452
L67473 33481
L67429 33545
L67410 33598
L67402 33674
L67407 33716
L67429 33764
L67476 33801
L67564 33833
" />
<path d="M67000 33628
L67211 33705
" />
<path d="M67106 33666
L67240 33296
L67256 33362
L67279 33410
L67308 33441
" />
<path d="M66800 33136
L66976 33200
L66930 33383
L66918 33359
L66890 33328
L66801 33296
L66760 33301
L66736 33312
L66705 33341
L66673 33429
L66678 33471
L66689 33495
L66718 33525
L66806 33557
L66848 33553
L66872 33541
" />
<g transform="rotate(20 68542.4 34134.1)">
<text x="68542.4" y="34330.9"
transform="scale(-1 1) translate(-137084.752756 0)"
textLength="316.929" font-size="524.934" lengthAdjust="spacingAndGlyphs"
text-anchor="middle" opacity="0">K</text>
</g>
<path d="M68578 34336
L68713 33966
" />
<path d="M68366 34259
L68602 34106
" />
<path d="M68501 33889
L68636 34178
" />
<g transform="rotate(-90 98365.4 29000)">
<text x="98365.4" y="29196.9"
transform="scale(-1 1) translate(-196730.708661 0)"
textLength="1066.84" font-size="524.934" lengthAdjust="spacingAndGlyphs"
text-anchor="middle" opacity="0">D40</text>
</g>
<path d="M98543 28521
L98149 28521
L98149 28615
L98168 28671
L98205 28709
L98243 28728
L98318 28746
L98374 28746
L98449 28728
L98487 28709
L98524 28671
L98543 28615
L98543 28521
" />
<path d="M98280 29084
L98543 29084
" />
<path d="M98131 28990
L98412 28896
L98412 29140
" />
<path d="M98149 29365
L98149 29403
L98168 29440
L98187 29459
L98224 29478
L98299 29496
L98393 29496
L98468 29478
L98505 29459
L98524 29440
L98543 29403
L98543 29365
L98524 29328
L98505 29309
L98468 29290
L98393 29271
L98299 29271
L98224 29290
L98187 29309
L98168 29328
L98149 29365
" />
<g transform="rotate(-90 98491.3 27500)">
<text x="98491.3" y="27696.9"
transform="scale(-1 1) translate(-196982.677165 0)"
textLength="316.929" font-size="524.934" lengthAdjust="spacingAndGlyphs"
text-anchor="middle" opacity="0">K</text>
</g>
<path d="M98669 27396
L98275 27396
" />
<path d="M98669 27621
L98444 27453
" />
<path d="M98275 27621
L98500 27396
" />
<text x="80700" y="58162.2"
transform="scale(-1 1) translate(-161400.000000 0)"
textLength="1066.84" font-size="524.934" lengthAdjust="spacingAndGlyphs"
text-anchor="middle" opacity="0">D37</text>
<path d="M81178 58143
L81178 57749
L81084 57749
L81028 57768
L80990 57805
L80971 57843
L80953 57918
L80953 57974
L80971 58049
L80990 58087
L81028 58124
L81084 58143
L81178 58143
" />
<path d="M80821 57749
L80578 57749
L80709 57899
L80653 57899
L80615 57918
L80596 57937
L80578 57974
L80578 58068
L80596 58105
L80615 58124
L80653 58143
L80765 58143
L80803 58124
L80821 58105
" />
<path d="M80446 57749
L80184 57749
L80353 58143
" />
<text x="82200" y="58288.2"
transform="scale(-1 1) translate(-164400.000000 0)"
textLength="316.929" font-size="524.934" lengthAdjust="spacingAndGlyphs"
text-anchor="middle" opacity="0">K</text>
<path d="M82303 58269
L82303 57875
" />
<path d="M82078 58269
L82246 58044
" />
<path d="M82078 57875
L82303 58100
" />
<text x="88300" y="58162.2"
transform="scale(-1 1) translate(-176600.000000 0)"
textLength="1066.84" font-size="524.934" lengthAdjust="spacingAndGlyphs"
text-anchor="middle" opacity="0">D38</text>
<path d="M88778 58143
L88778 57749
L88684 57749
L88628 57768
L88590 57805
L88571 57843
L88553 57918
L88553 57974
L88571 58049
L88590 58087
L88628 58124
L88684 58143
L88778 58143
" />
<path d="M88421 57749
L88178 57749
L88309 57899
L88253 57899
L88215 57918
L88196 57937
L88178 57974
L88178 58068
L88196 58105
L88215 58124
L88253 58143
L88365 58143
L88403 58124
L88421 58105
" />
<path d="M87953 57918
L87990 57899
L88009 57880
L88028 57843
L88028 57824
L88009 57787
L87990 57768
L87953 57749
L87878 57749
L87840 57768
L87821 57787
L87803 57824
L87803 57843
L87821 57880
L87840 57899
L87878 57918
L87953 57918
L87990 57937
L88009 57955
L88028 57993
L88028 58068
L88009 58105
L87990 58124
L87953 58143
L87878 58143
L87840 58124
L87821 58105
L87803 58068
L87803 57993
L87821 57955
L87840 57937
L87878 57918
" />
<text x="89800" y="58288.2"
transform="scale(-1 1) translate(-179600.000000 0)"
textLength="316.929" font-size="524.934" lengthAdjust="spacingAndGlyphs"
text-anchor="middle" opacity="0">K</text>
<path d="M89903 58269
L89903 57875
" />
<path d="M89678 58269
L89846 58044
" />
<path d="M89678 57875
L89903 58100
" />
<g transform="rotate(20 60175.9 30902.7)">
<text x="60175.9" y="31099.5"
transform="scale(-1 1) translate(-120351.853543 0)"
textLength="1066.84" font-size="524.934" lengthAdjust="spacingAndGlyphs"
text-anchor="middle" opacity="0">D14</text>
</g>
<path d="M60564 31233
L60698 30863
L60610 30831
L60551 30829
L60503 30852
L60473 30881
L60429 30945
L60410 30998
L60402 31074
L60407 31116
L60429 31164
L60476 31201
L60564 31233
" />
<path d="M60000 31028
L60211 31105
" />
<path d="M60106 31066
L60240 30696
L60256 30762
L60279 30810
L60308 30841
" />
<path d="M59773 30666
L59683 30912
" />
<path d="M59912 30557
L59904 30853
L59675 30770
" />
<g transform="rotate(20 61542.4 31534.1)">
<text x="61542.4" y="31730.9"
transform="scale(-1 1) translate(-123084.752756 0)"
textLength="316.929" font-size="524.934" lengthAdjust="spacingAndGlyphs"
text-anchor="middle" opacity="0">K</text>
</g>
<path d="M61578 31736
L61713 31366
" />
<path d="M61366 31659
L61602 31506
" />
<path d="M61501 31289
L61636 31578
" />
<text x="52400" y="29662.2"
transform="scale(-1 1) translate(-104800.000000 0)"
textLength="1066.84" font-size="524.934" lengthAdjust="spacingAndGlyphs"
text-anchor="middle" opacity="0">D13</text>
<path d="M52878 29643
L52878 29249
L52784 29249
L52728 29268
L52690 29305
L52671 29343
L52653 29418
L52653 29474
L52671 29549
L52690 29587
L52728 29624
L52784 29643
L52878 29643
" />
<path d="M52278 29643
L52503 29643
" />
<path d="M52390 29643
L52390 29249
L52428 29305
L52465 29343
L52503 29362
" />
<path d="M52146 29249
L51903 29249
L52034 29399
L51978 29399
L51940 29418
L51921 29437
L51903 29474
L51903 29568
L51921 29605
L51940 29624
L51978 29643
L52090 29643
L52128 29624
L52146 29605
" />
<text x="53900" y="29788.2"
transform="scale(-1 1) translate(-107800.000000 0)"
textLength="316.929" font-size="524.934" lengthAdjust="spacingAndGlyphs"
text-anchor="middle" opacity="0">K</text>
<path d="M54003 29769
L54003 29375
" />
<path d="M53778 29769
L53946 29544
" />
<path d="M53778 29375
L54003 29600
" />
<text x="44700" y="29662.2"
transform="scale(-1 1) translate(-89400.000000 0)"
textLength="1066.84" font-size="524.934" lengthAdjust="spacingAndGlyphs"
text-anchor="middle" opacity="0">D12</text>
<path d="M45178 29643
L45178 29249
L45084 29249
L45028 29268
L44990 29305
L44971 29343
L44953 29418
L44953 29474
L44971 29549
L44990 29587
L45028 29624
L45084 29643
L45178 29643
" />
<path d="M44578 29643
L44803 29643
" />
<path d="M44690 29643
L44690 29249
L44728 29305
L44765 29343
L44803 29362
" />
<path d="M44428 29287
L44409 29268
L44371 29249
L44278 29249
L44240 29268
L44221 29287
L44203 29324
L44203 29362
L44221 29418
L44446 29643
L44203 29643
" />
<text x="46200" y="29788.2"
transform="scale(-1 1) translate(-92400.000000 0)"
textLength="316.929" font-size="524.934" lengthAdjust="spacingAndGlyphs"
text-anchor="middle" opacity="0">K</text>
<path d="M46303 29769
L46303 29375
" />
<path d="M46078 29769
L46246 29544
" />
<path d="M46078 29375
L46303 29600
" />
<text x="37100" y="29662.2"
transform="scale(-1 1) translate(-74200.000000 0)"
textLength="1066.84" font-size="524.934" lengthAdjust="spacingAndGlyphs"
text-anchor="middle" opacity="0">D11</text>
<path d="M37578 29643
L37578 29249
L37484 29249
L37428 29268
L37390 29305
L37371 29343
L37353 29418
L37353 29474
L37371 29549
L37390 29587
L37428 29624
L37484 29643
L37578 29643
" />
<path d="M36978 29643
L37203 29643
" />
<path d="M37090 29643
L37090 29249
L37128 29305
L37165 29343
L37203 29362
" />
<path d="M36603 29643
L36828 29643
" />
<path d="M36715 29643
L36715 29249
L36753 29305
L36790 29343
L36828 29362
" />
<text x="38600" y="29788.2"
transform="scale(-1 1) translate(-77200.000000 0)"
textLength="316.929" font-size="524.934" lengthAdjust="spacingAndGlyphs"
text-anchor="middle" opacity="0">K</text>
<path d="M38703 29769
L38703 29375
" />
<path d="M38478 29769
L38646 29544
" />
<path d="M38478 29375
L38703 29600
" />
<text x="29500" y="29662.2"
transform="scale(-1 1) translate(-59000.000000 0)"
textLength="1066.84" font-size="524.934" lengthAdjust="spacingAndGlyphs"
text-anchor="middle" opacity="0">D10</text>
<path d="M29978 29643
L29978 29249
L29884 29249
L29828 29268
L29790 29305
L29771 29343
L29753 29418
L29753 29474
L29771 29549
L29790 29587
L29828 29624
L29884 29643
L29978 29643
" />
<path d="M29378 29643
L29603 29643
" />
<path d="M29490 29643
L29490 29249
L29528 29305
L29565 29343
L29603 29362
" />
<path d="M29134 29249
L29096 29249
L29059 29268
L29040 29287
L29021 29324
L29003 29399
L29003 29493
L29021 29568
L29040 29605
L29059 29624
L29096 29643
L29134 29643
L29171 29624
L29190 29605
L29209 29568
L29228 29493
L29228 29399
L29209 29324
L29190 29287
L29171 29268
L29134 29249
" />
<text x="31000" y="29788.2"
transform="scale(-1 1) translate(-62000.000000 0)"
textLength="316.929" font-size="524.934" lengthAdjust="spacingAndGlyphs"
text-anchor="middle" opacity="0">K</text>
<path d="M31103 29769
L31103 29375
" />
<path d="M30878 29769
L31046 29544
" />
<path d="M30878 29375
L31103 29600
" />
<text x="21800" y="29662.2"
transform="scale(-1 1) translate(-43600.000000 0)"
textLength="691.882" font-size="524.934" lengthAdjust="spacingAndGlyphs"
text-anchor="middle" opacity="0">D9</text>
<path d="M22090 29643
L22090 29249
L21996 29249
L21940 29268
L21903 29305
L21884 29343
L21865 29418
L21865 29474
L21884 29549
L21903 29587
L21940 29624
L21996 29643
L22090 29643
" />
<path d="M21678 29643
L21603 29643
L21565 29624
L21546 29605
L21509 29549
L21490 29474
L21490 29324
L21509 29287
L21528 29268
L21565 29249
L21640 29249
L21678 29268
L21696 29287
L21715 29324
L21715 29418
L21696 29455
L21678 29474
L21640 29493
L21565 29493
L21528 29474
L21509 29455
L21490 29418
" />
<text x="23300" y="29788.2"
transform="scale(-1 1) translate(-46600.000000 0)"
textLength="316.929" font-size="524.934" lengthAdjust="spacingAndGlyphs"
text-anchor="middle" opacity="0">K</text>
<path d="M23403 29769
L23403 29375
" />
<path d="M23178 29769
L23346 29544
" />
<path d="M23178 29375
L23403 29600
" />
<text x="87800" y="32562.2"
transform="scale(-1 1) translate(-175600.000000 0)"
textLength="691.882" font-size="524.934" lengthAdjust="spacingAndGlyphs"
text-anchor="middle" opacity="0">D8</text>
<path d="M88090 32543
L88090 32149
L87996 32149
L87940 32168
L87903 32205
L87884 32243
L87865 32318
L87865 32374
L87884 32449
L87903 32487
L87940 32524
L87996 32543
L88090 32543
" />
<path d="M87640 32318
L87678 32299
L87696 32280
L87715 32243
L87715 32224
L87696 32187
L87678 32168
L87640 32149
L87565 32149
L87528 32168
L87509 32187
L87490 32224
L87490 32243
L87509 32280
L87528 32299
L87565 32318
L87640 32318
L87678 32337
L87696 32355
L87715 32393
L87715 32468
L87696 32505
L87678 32524
L87640 32543
L87565 32543
L87528 32524
L87509 32505
L87490 32468
L87490 32393
L87509 32355
L87528 32337
L87565 32318
" />
<text x="89300" y="32688.2"
transform="scale(-1 1) translate(-178600.000000 0)"
textLength="316.929" font-size="524.934" lengthAdjust="spacingAndGlyphs"
text-anchor="middle" opacity="0">K</text>
<path d="M89403 32669
L89403 32275
" />
<path d="M89178 32669
L89346 32444
" />
<path d="M89178 32275
L89403 32500
" />
<g transform="rotate(20 76875.9 21502.7)">
<text x="76875.9" y="21699.5"
transform="scale(-1 1) translate(-153751.853543 0)"
textLength="691.882" font-size="524.934" lengthAdjust="spacingAndGlyphs"
text-anchor="middle" opacity="0">D7</text>
</g>
<path d="M77088 21769
L77222 21399
L77134 21367
L77075 21365
L77027 21388
L76996 21417
L76953 21481
L76934 21533
L76926 21610
L76931 21652
L76953 21700
L76999 21737
L77088 21769
" />
<path d="M76888 21277
L76641 21187
L76665 21615
" />
<g transform="rotate(20 78242.4 22134.1)">
<text x="78242.4" y="22330.9"
transform="scale(-1 1) translate(-156484.752756 0)"
textLength="316.929" font-size="524.934" lengthAdjust="spacingAndGlyphs"
text-anchor="middle" opacity="0">K</text>
</g>
<path d="M78278 22336
L78413 21966
" />
<path d="M78066 22259
L78302 22106
" />
<path d="M78201 21889
L78336 22178
" />
<g transform="rotate(20 63675.9 24102.7)">
<text x="63675.9" y="24299.5"
transform="scale(-1 1) translate(-127351.853543 0)"
textLength="691.882" font-size="524.934" lengthAdjust="spacingAndGlyphs"
text-anchor="middle" opacity="0">D6</text>
</g>
<path d="M63888 24369
L64022 23999
L63934 23967
L63875 23965
L63827 23988
L63796 24017
L63753 24081
L63734 24133
L63726 24210
L63731 24252
L63753 24300
L63799 24337
L63888 24369
" />
<path d="M63494 23807
L63564 23832
L63593 23863
L63604 23887
L63620 23952
L63612 24029
L63561 24170
L63530 24199
L63506 24210
L63465 24215
L63394 24189
L63365 24159
L63354 24135
L63349 24093
L63382 24005
L63412 23976
L63436 23965
L63478 23960
L63548 23986
L63577 24016
L63588 24040
L63593 24082
" />
<g transform="rotate(20 65042.4 24734.1)">
<text x="65042.4" y="24930.9"
transform="scale(-1 1) translate(-130084.752756 0)"
textLength="316.929" font-size="524.934" lengthAdjust="spacingAndGlyphs"
text-anchor="middle" opacity="0">K</text>
</g>
<path d="M65078 24936
L65213 24566
" />
<path d="M64866 24859
L65102 24706
" />
<path d="M65001 24489
L65136 24778
" />
<g transform="rotate(20 56675.9 21502.7)">
<text x="56675.9" y="21699.5"
transform="scale(-1 1) translate(-113351.853543 0)"
textLength="691.882" font-size="524.934" lengthAdjust="spacingAndGlyphs"
text-anchor="middle" opacity="0">D5</text>
</g>
<path d="M56888 21769
L57022 21399
L56934 21367
L56875 21365
L56827 21388
L56796 21417
L56753 21481
L56734 21533
L56726 21610
L56731 21652
L56753 21700
L56799 21737
L56888 21769
" />
<path d="M56476 21200
L56652 21264
L56606 21447
L56595 21423
L56566 21392
L56478 21360
L56436 21365
L56412 21376
L56382 21405
L56349 21493
L56354 21535
L56365 21559
L56394 21589
L56482 21621
L56524 21617
L56548 21605
" />
<g transform="rotate(20 58042.4 22134.1)">
<text x="58042.4" y="22330.9"
transform="scale(-1 1) translate(-116084.752756 0)"
textLength="316.929" font-size="524.934" lengthAdjust="spacingAndGlyphs"
text-anchor="middle" opacity="0">K</text>
</g>
<path d="M58078 22336
L58213 21966
" />
<path d="M57866 22259
L58102 22106
" />
<path d="M58001 21889
L58136 22178
" />
<text x="47800" y="22062.2"
transform="scale(-1 1) translate(-95600.000000 0)"
textLength="691.882" font-size="524.934" lengthAdjust="spacingAndGlyphs"
text-anchor="middle" opacity="0">D4</text>
<path d="M48090 22043
L48090 21649
L47996 21649
L47940 21668
L47903 21705
L47884 21743
L47865 21818
L47865 21874
L47884 21949
L47903 21987
L47940 22024
L47996 22043
L48090 22043
" />
<path d="M47528 21780
L47528 22043
" />
<path d="M47621 21631
L47715 21912
L47471 21912
" />
<text x="49300" y="22188.2"
transform="scale(-1 1) translate(-98600.000000 0)"
textLength="316.929" font-size="524.934" lengthAdjust="spacingAndGlyphs"
text-anchor="middle" opacity="0">K</text>
<path d="M49403 22169
L49403 21775
" />
<path d="M49178 22169
L49346 21944
" />
<path d="M49178 21775
L49403 22000
" />
<text x="40100" y="22062.2"
transform="scale(-1 1) translate(-80200.000000 0)"
textLength="691.882" font-size="524.934" lengthAdjust="spacingAndGlyphs"
text-anchor="middle" opacity="0">D3</text>
<path d="M40390 22043
L40390 21649
L40296 21649
L40240 21668
L40203 21705
L40184 21743
L40165 21818
L40165 21874
L40184 21949
L40203 21987
L40240 22024
L40296 22043
L40390 22043
" />
<path d="M40034 21649
L39790 21649
L39921 21799
L39865 21799
L39828 21818
L39809 21837
L39790 21874
L39790 21968
L39809 22005
L39828 22024
L39865 22043
L39978 22043
L40015 22024
L40034 22005
" />
<text x="41600" y="22188.2"
transform="scale(-1 1) translate(-83200.000000 0)"
textLength="316.929" font-size="524.934" lengthAdjust="spacingAndGlyphs"
text-anchor="middle" opacity="0">K</text>
<path d="M41703 22169
L41703 21775
" />
<path d="M41478 22169
L41646 21944
" />
<path d="M41478 21775
L41703 22000
" />
<text x="32500" y="22062.2"
transform="scale(-1 1) translate(-65000.000000 0)"
textLength="691.882" font-size="524.934" lengthAdjust="spacingAndGlyphs"
text-anchor="middle" opacity="0">D2</text>
<path d="M32790 22043
L32790 21649
L32696 21649
L32640 21668
L32603 21705
L32584 21743
L32565 21818
L32565 21874
L32584 21949
L32603 21987
L32640 22024
L32696 22043
L32790 22043
" />
<path d="M32415 21687
L32396 21668
L32359 21649
L32265 21649
L32228 21668
L32209 21687
L32190 21724
L32190 21762
L32209 21818
L32434 22043
L32190 22043
" />
<text x="34000" y="22188.2"
transform="scale(-1 1) translate(-68000.000000 0)"
textLength="316.929" font-size="524.934" lengthAdjust="spacingAndGlyphs"
text-anchor="middle" opacity="0">K</text>
<path d="M34103 22169
L34103 21775
" />
<path d="M33878 22169
L34046 21944
" />
<path d="M33878 21775
L34103 22000
" />
<text x="24900" y="22062.2"
transform="scale(-1 1) translate(-49800.000000 0)"
textLength="691.882" font-size="524.934" lengthAdjust="spacingAndGlyphs"
text-anchor="middle" opacity="0">D1</text>
<path d="M25190 22043
L25190 21649
L25096 21649
L25040 21668
L25003 21705
L24984 21743
L24965 21818
L24965 21874
L24984 21949
L25003 21987
L25040 22024
L25096 22043
L25190 22043
" />
<path d="M24590 22043
L24815 22043
" />
<path d="M24703 22043
L24703 21649
L24740 21705
L24778 21743
L24815 21762
" />
<text x="26400" y="22188.2"
transform="scale(-1 1) translate(-52800.000000 0)"
textLength="316.929" font-size="524.934" lengthAdjust="spacingAndGlyphs"
text-anchor="middle" opacity="0">K</text>
<path d="M26503 22169
L26503 21775
" />
<path d="M26278 22169
L26446 21944
" />
<path d="M26278 21775
L26503 22000
" />
<g >
</g>
</g> 
</svg>
